<svg width="30" height="20" viewBox="0 0 30 20" fill="none" xmlns="http://www.w3.org/2000/svg">
<path d="M29.1672 9.04442L20.5185 0.395757C19.9908 -0.131919 19.135 -0.131919 18.6074 0.395757C18.0796 0.923542 18.0796 1.77911 18.6074 2.3069L24.9491 8.64863H1.85135C1.10508 8.64863 0.5 9.25371 0.5 9.99999C0.5 10.7461 1.10508 11.3513 1.85135 11.3513H24.9491L18.6076 17.6931C18.0798 18.2209 18.0798 19.0764 18.6076 19.6042C18.8714 19.8679 19.2173 20 19.5632 20C19.909 20 20.2548 19.8679 20.5187 19.6042L29.1672 10.9556C29.695 10.4278 29.695 9.5722 29.1672 9.04442Z" fill="#EDA0A8"/>
</svg>
