<svg xmlns="http://www.w3.org/2000/svg" xmlns:xlink="http://www.w3.org/1999/xlink" width="80" height="80" fill="none" xmlns:v="https://vecta.io/nano"><circle cx="40" cy="40" r="40" fill="#b71d49" fill-opacity=".1"/><path d="M39.952 37.463c-3.874-3.873-8.122-5.906-9.488-4.54-.15.157-.26.348-.322.556l-.022-.022L25 54.448l18.975-7.18c.189-.07.369-.176.518-.317 1.366-1.367-.666-5.614-4.54-9.488z" fill="#dd1c4b"/><path d="M39.952 37.461c-3.874-3.874-8.122-5.907-9.488-4.54s.666 5.614 4.54 9.488 8.122 5.907 9.488 4.54-.666-5.614-4.54-9.488z" fill="#d1e3ee"/><path d="M43.443 47.441a4.9 4.9 0 0 1-2.035-.404l-16.073 6.078L25 54.489l18.493-6.997-.05-.05z" fill="#b21d48"/><path d="M49.491 43.493c-.06 0-.119-.011-.175-.032a15.45 15.45 0 0 0-7.953-.773l-1.785.297a.5.5 0 0 1-.565-.424.5.5 0 0 1 .401-.561l1.786-.3a16.46 16.46 0 0 1 8.468.822.5.5 0 0 1-.175.97zm-8.997-2.999a.5.5 0 0 1-.215-.95l10.496-4.998a.5.5 0 0 1 .666.236.5.5 0 0 1-.236.666l-10.496 4.998a.5.5 0 0 1-.215.047zm-5.845-1a.49.49 0 0 1-.192-.038.5.5 0 0 1-.269-.654h0l.727-1.744a13.98 13.98 0 0 0 .746-8.451.5.5 0 0 1 .368-.603.5.5 0 0 1 .603.369 14.99 14.99 0 0 1-.796 9.071l-.727 1.744a.5.5 0 0 1-.461.307z" fill="#ffbf41"/><path d="M51.99 45.492a1 1 0 0 0 1-1 1 1 0 0 0-1-1 1 1 0 0 0-1 1 1 1 0 0 0 1 1z" fill="#d5557e"/><path d="M39.994 31.498a1 1 0 0 0 1-1 1 1 0 0 0-1-1 1 1 0 0 0-1 1 1 1 0 0 0 1 1z" fill="#dd95c1"/><path d="M35.496 26.999a1 1 0 0 1-1-1 1 1 0 0 1 1-1 1 1 0 0 1 1 1 1 1 0 0 1-1 1z" fill="#7fcccb"/><g fill="#2276bb"><use xlink:href="#B"/><use xlink:href="#B" y="-2.499"/><use xlink:href="#C"/><use xlink:href="#C" x="-2.499"/></g><path d="M28.968 39.495l-.152-.65-1.3 5.332.1 1.219a11.22 11.22 0 0 0 3.157 6.906l7.344-2.776-.121-.035c-4.453-1.67-7.819-5.397-9.027-9.996z" fill="#fff"/><path d="M38.116 49.525l-.121-.035c-.481-.182-.952-.389-1.411-.621l-6.614 2.503c.251.325.519.636.804.932l7.343-2.778z" fill="#f6f6e7"/><path d="M45.992 30.987v2.509h-2.509v-2.509h2.509z" fill="#c9da53"/><path d="M36.995 39.994a.5.5 0 0 1-.334-.871l4.998-4.498a.5.5 0 0 1 .669.743l-4.998 4.498a.5.5 0 0 1-.334.129z" fill="#ffbf41"/><g fill="#ffdb43"><use xlink:href="#B" x="1.999" y="8.997"/><path d="M53.257 37.263c-.133 0-.26-.052-.353-.146l-.353-.353a.5.5 0 0 1 .707-.707l.353.353a.5.5 0 0 1-.353.853z"/><use xlink:href="#C" x="2.999" y="7.997"/><path d="M52.904 34.083a.5.5 0 0 1-.353-.853l.353-.353a.5.5 0 0 1 .707.707l-.353.353a.5.5 0 0 1-.353.147z"/><use xlink:href="#B" x="1.999" y="4.499"/><path d="M50.076 34.082a.5.5 0 0 1-.353-.146l-.353-.353a.5.5 0 0 1 .707-.707l.353.353a.5.5 0 0 1-.353.853zM27.499 25.5l.772 1.565 1.727.251-1.25 1.218.295 1.72-1.544-.812-1.544.812.295-1.72L25 27.316l1.727-.251.772-1.565z"/></g><path d="M54.331 52.073a3.47 3.47 0 0 0-1.532-2.02l-.206-.309c-1.155-1.727-2.97-2.901-5.019-3.245a.5.5 0 0 0-.565.424.5.5 0 0 0 .401.561 6.54 6.54 0 0 1 3.814 2.126 2.95 2.95 0 0 0-1.999 1.373 2 2 0 0 0 .771 2.72 2 2 0 0 0 2.72-.771 2.9 2.9 0 0 0 .324-1.283 2.44 2.44 0 0 1 .109 2.595.5.5 0 0 0 .175.685.5.5 0 0 0 .685-.175l.013-.023c.454-.81.566-1.767.309-2.659zm-2.488.372a1 1 0 0 1-1.358.392 1 1 0 0 1-.392-1.358c.3-.491.797-.815 1.358-.889a.51.51 0 0 1 .25.058c.422.235.444 1.256.142 1.797z" fill="#2bb3ce"/><defs ><path id="B" d="M49.491 28.998a.5.5 0 0 1-.5-.5v-.5a.5.5 0 0 1 .5-.5.5.5 0 0 1 .5.5v.5a.5.5 0 0 1-.5.5z"/><path id="C" d="M50.99 27.499h-.5a.5.5 0 0 1-.5-.5.5.5 0 0 1 .5-.5h.5a.5.5 0 0 1 .5.5.5.5 0 0 1-.5.5z"/></defs></svg>