<svg xmlns="http://www.w3.org/2000/svg" width="80" height="80" fill="none"  xmlns:v="https://vecta.io/nano"><g fill="#2196f3"><circle cx="40" cy="40" r="40" fill-opacity=".1"/><path d="M40 25a15.02 15.02 0 0 0-15 15 15.02 15.02 0 0 0 15 15 15.02 15.02 0 0 0 15-15 15.02 15.02 0 0 0-15-15z"/></g><path d="M46.563 41.25H41.25v5.313a1.25 1.25 0 0 1-1.25 1.25 1.25 1.25 0 0 1-1.25-1.25V41.25h-5.313a1.25 1.25 0 0 1-1.25-1.25 1.25 1.25 0 0 1 1.25-1.25h5.313v-5.313a1.25 1.25 0 0 1 1.25-1.25 1.25 1.25 0 0 1 1.25 1.25v5.313h5.313a1.25 1.25 0 0 1 1.25 1.25 1.25 1.25 0 0 1-1.25 1.25z" fill="#fafafa"/></svg>