<svg width="504" height="330" viewBox="0 0 504 330" fill="none" xmlns="http://www.w3.org/2000/svg">
<g filter="url(#filter0_d)">
<rect x="100" y="56" width="304" height="130" rx="10" fill="white"/>
</g>
<path d="M160.77 82V74.88H161.73L165.83 80.21L165.56 80.35V74.88H166.77V82H165.8L161.72 76.69L161.98 76.53V82H160.77ZM172.559 81.44C172.319 81.64 172.022 81.7967 171.669 81.91C171.322 82.0167 170.969 82.07 170.609 82.07C170.062 82.07 169.589 81.9667 169.189 81.76C168.795 81.5533 168.492 81.2533 168.279 80.86C168.065 80.4667 167.959 80 167.959 79.46C167.959 78.94 168.062 78.4833 168.269 78.09C168.475 77.69 168.762 77.38 169.129 77.16C169.495 76.9333 169.919 76.82 170.399 76.82C170.865 76.82 171.265 76.9233 171.599 77.13C171.932 77.33 172.189 77.62 172.369 78C172.555 78.38 172.649 78.83 172.649 79.35V79.54H169.059L169.069 78.87H171.909L171.569 79.21C171.575 78.7233 171.479 78.3533 171.279 78.1C171.085 77.8467 170.802 77.72 170.429 77.72C170.029 77.72 169.719 77.8633 169.499 78.15C169.279 78.43 169.169 78.8333 169.169 79.36C169.169 79.96 169.292 80.4033 169.539 80.69C169.785 80.97 170.159 81.11 170.659 81.11C170.932 81.11 171.199 81.0667 171.459 80.98C171.725 80.8867 171.972 80.7533 172.199 80.58L172.559 81.44ZM175.029 82L173.049 76.95H174.339L175.759 80.86H175.509L176.939 76.95H177.849L179.269 80.86H179.039L180.459 76.95H181.669L179.689 82H178.599L177.059 77.93H177.629L176.119 82H175.029Z" fill="#C4C4C4"/>
<path d="M124.16 107.728H120.192V106.608H129.456V107.728H125.488V118H124.16V107.728ZM134.905 109.76C136.835 109.76 137.801 110.821 137.801 112.944V118H136.505V113.008C136.505 112.261 136.355 111.717 136.057 111.376C135.758 111.024 135.289 110.848 134.649 110.848C133.902 110.848 133.305 111.077 132.857 111.536C132.409 111.995 132.185 112.613 132.185 113.392V118H130.889V106.224H132.185V111.264C132.441 110.773 132.803 110.4 133.273 110.144C133.753 109.888 134.297 109.76 134.905 109.76ZM146.984 113.936H141.08C141.091 114.96 141.325 115.733 141.784 116.256C142.253 116.779 142.931 117.04 143.816 117.04C144.755 117.04 145.619 116.725 146.408 116.096L146.84 117.04C146.488 117.371 146.035 117.632 145.48 117.824C144.936 118.016 144.376 118.112 143.8 118.112C142.541 118.112 141.555 117.744 140.84 117.008C140.125 116.261 139.768 115.243 139.768 113.952C139.768 113.131 139.928 112.405 140.248 111.776C140.568 111.136 141.016 110.64 141.592 110.288C142.168 109.936 142.824 109.76 143.56 109.76C144.627 109.76 145.464 110.112 146.072 110.816C146.68 111.509 146.984 112.469 146.984 113.696V113.936ZM143.576 110.768C142.904 110.768 142.355 110.971 141.928 111.376C141.512 111.781 141.245 112.352 141.128 113.088H145.816C145.752 112.331 145.528 111.755 145.144 111.36C144.771 110.965 144.248 110.768 143.576 110.768ZM156.867 109.76C157.134 109.76 157.379 109.792 157.603 109.856L157.571 111.04C157.326 110.955 157.043 110.912 156.723 110.912C155.944 110.912 155.363 111.157 154.979 111.648C154.606 112.128 154.419 112.715 154.419 113.408V118H153.123V112.208C153.123 111.376 153.08 110.624 152.995 109.952H154.227L154.355 111.44C154.558 110.896 154.883 110.48 155.331 110.192C155.779 109.904 156.291 109.76 156.867 109.76ZM162.092 118.112C161.334 118.112 160.668 117.941 160.092 117.6C159.516 117.259 159.068 116.773 158.748 116.144C158.438 115.515 158.284 114.779 158.284 113.936C158.284 113.093 158.438 112.357 158.748 111.728C159.068 111.099 159.516 110.613 160.092 110.272C160.668 109.931 161.334 109.76 162.092 109.76C162.849 109.76 163.516 109.931 164.092 110.272C164.668 110.613 165.11 111.099 165.42 111.728C165.74 112.357 165.9 113.093 165.9 113.936C165.9 114.779 165.74 115.515 165.42 116.144C165.11 116.773 164.668 117.259 164.092 117.6C163.516 117.941 162.849 118.112 162.092 118.112ZM162.092 117.04C162.892 117.04 163.505 116.779 163.932 116.256C164.358 115.723 164.572 114.949 164.572 113.936C164.572 112.955 164.353 112.197 163.916 111.664C163.478 111.12 162.87 110.848 162.092 110.848C161.302 110.848 160.689 111.12 160.252 111.664C159.814 112.197 159.596 112.955 159.596 113.936C159.596 114.949 159.809 115.723 160.236 116.256C160.673 116.779 161.292 117.04 162.092 117.04ZM171.296 118.112C170.517 118.112 169.835 117.941 169.248 117.6C168.672 117.259 168.224 116.779 167.904 116.16C167.595 115.531 167.44 114.8 167.44 113.968C167.44 113.136 167.6 112.405 167.92 111.776C168.24 111.136 168.693 110.64 169.28 110.288C169.877 109.936 170.571 109.76 171.36 109.76C171.904 109.76 172.427 109.856 172.928 110.048C173.44 110.229 173.861 110.485 174.192 110.816L173.76 111.776C173.355 111.456 172.96 111.221 172.576 111.072C172.203 110.923 171.819 110.848 171.424 110.848C170.603 110.848 169.957 111.125 169.488 111.68C169.019 112.224 168.784 112.987 168.784 113.968C168.784 114.939 169.013 115.696 169.472 116.24C169.941 116.773 170.592 117.04 171.424 117.04C171.819 117.04 172.203 116.965 172.576 116.816C172.96 116.667 173.355 116.432 173.76 116.112L174.192 117.072C173.851 117.392 173.419 117.648 172.896 117.84C172.384 118.021 171.851 118.112 171.296 118.112ZM181.266 118L177.138 114.128V118H175.842V106.224H177.138V113.648L180.93 109.968H182.578L178.546 113.824L182.962 118H181.266ZM190.672 113.936H184.768C184.778 114.96 185.013 115.733 185.472 116.256C185.941 116.779 186.618 117.04 187.504 117.04C188.442 117.04 189.306 116.725 190.096 116.096L190.528 117.04C190.176 117.371 189.722 117.632 189.168 117.824C188.624 118.016 188.064 118.112 187.488 118.112C186.229 118.112 185.242 117.744 184.528 117.008C183.813 116.261 183.456 115.243 183.456 113.952C183.456 113.131 183.616 112.405 183.936 111.776C184.256 111.136 184.704 110.64 185.28 110.288C185.856 109.936 186.512 109.76 187.248 109.76C188.314 109.76 189.152 110.112 189.76 110.816C190.368 111.509 190.672 112.469 190.672 113.696V113.936ZM187.264 110.768C186.592 110.768 186.042 110.971 185.616 111.376C185.2 111.781 184.933 112.352 184.816 113.088H189.504C189.44 112.331 189.216 111.755 188.832 111.36C188.458 110.965 187.936 110.768 187.264 110.768ZM196.383 109.76C196.649 109.76 196.895 109.792 197.119 109.856L197.087 111.04C196.841 110.955 196.559 110.912 196.239 110.912C195.46 110.912 194.879 111.157 194.495 111.648C194.121 112.128 193.935 112.715 193.935 113.408V118H192.639V112.208C192.639 111.376 192.596 110.624 192.511 109.952H193.743L193.871 111.44C194.073 110.896 194.399 110.48 194.847 110.192C195.295 109.904 195.807 109.76 196.383 109.76ZM205.695 107.28C205.269 107.28 204.933 107.403 204.687 107.648C204.453 107.883 204.335 108.293 204.335 108.88V109.952H206.303V110.976H204.335V118H203.039V110.976H201.471V109.952H203.039V108.72C203.039 107.877 203.247 107.243 203.663 106.816C204.09 106.379 204.682 106.16 205.439 106.16C205.813 106.16 206.175 106.208 206.527 106.304V107.408C206.229 107.323 205.951 107.28 205.695 107.28ZM214.656 113.936H208.752C208.763 114.96 208.997 115.733 209.456 116.256C209.925 116.779 210.603 117.04 211.488 117.04C212.427 117.04 213.291 116.725 214.08 116.096L214.512 117.04C214.16 117.371 213.707 117.632 213.152 117.824C212.608 118.016 212.048 118.112 211.472 118.112C210.213 118.112 209.227 117.744 208.512 117.008C207.797 116.261 207.44 115.243 207.44 113.952C207.44 113.131 207.6 112.405 207.92 111.776C208.24 111.136 208.688 110.64 209.264 110.288C209.84 109.936 210.496 109.76 211.232 109.76C212.299 109.76 213.136 110.112 213.744 110.816C214.352 111.509 214.656 112.469 214.656 113.696V113.936ZM211.248 110.768C210.576 110.768 210.027 110.971 209.6 111.376C209.184 111.781 208.917 112.352 208.8 113.088H213.488C213.424 112.331 213.2 111.755 212.816 111.36C212.443 110.965 211.92 110.768 211.248 110.768ZM216.623 106.224H217.919V118H216.623V106.224ZM220.436 106.224H221.732V118H220.436V106.224ZM231.336 109.952V118H230.056V116.544C229.821 117.045 229.464 117.435 228.984 117.712C228.515 117.979 227.965 118.112 227.336 118.112C226.621 118.112 225.992 117.941 225.448 117.6C224.915 117.259 224.499 116.779 224.2 116.16C223.912 115.531 223.768 114.8 223.768 113.968C223.768 113.136 223.917 112.405 224.216 111.776C224.515 111.136 224.931 110.64 225.464 110.288C226.008 109.936 226.632 109.76 227.336 109.76C227.965 109.76 228.515 109.899 228.984 110.176C229.453 110.453 229.811 110.843 230.056 111.344V109.952H231.336ZM227.592 117.04C228.381 117.04 228.989 116.773 229.416 116.24C229.843 115.696 230.056 114.928 230.056 113.936C230.056 112.944 229.843 112.181 229.416 111.648C228.989 111.115 228.381 110.848 227.592 110.848C226.803 110.848 226.184 111.125 225.736 111.68C225.299 112.224 225.08 112.987 225.08 113.968C225.08 114.949 225.299 115.707 225.736 116.24C226.173 116.773 226.792 117.04 227.592 117.04ZM236.562 118.112C235.207 118.112 234.135 117.765 233.346 117.072L233.778 116.112C234.215 116.453 234.658 116.699 235.106 116.848C235.554 116.997 236.055 117.072 236.61 117.072C237.218 117.072 237.676 116.971 237.986 116.768C238.306 116.555 238.466 116.251 238.466 115.856C238.466 115.536 238.359 115.28 238.146 115.088C237.932 114.896 237.58 114.747 237.09 114.64L235.73 114.32C235.058 114.171 234.535 113.904 234.162 113.52C233.799 113.136 233.618 112.677 233.618 112.144C233.618 111.44 233.9 110.869 234.466 110.432C235.031 109.984 235.778 109.76 236.706 109.76C237.271 109.76 237.804 109.851 238.306 110.032C238.807 110.213 239.228 110.475 239.57 110.816L239.138 111.76C238.38 111.131 237.57 110.816 236.706 110.816C236.13 110.816 235.682 110.928 235.362 111.152C235.052 111.365 234.898 111.669 234.898 112.064C234.898 112.395 234.994 112.656 235.186 112.848C235.388 113.04 235.708 113.189 236.146 113.296L237.506 113.632C238.252 113.803 238.807 114.069 239.17 114.432C239.532 114.784 239.714 115.248 239.714 115.824C239.714 116.517 239.431 117.072 238.866 117.488C238.3 117.904 237.532 118.112 236.562 118.112ZM253.039 109.952V118H251.759V116.544C251.524 117.045 251.167 117.435 250.687 117.712C250.218 117.979 249.668 118.112 249.039 118.112C248.324 118.112 247.695 117.941 247.151 117.6C246.618 117.259 246.202 116.779 245.903 116.16C245.615 115.531 245.471 114.8 245.471 113.968C245.471 113.136 245.62 112.405 245.919 111.776C246.218 111.136 246.634 110.64 247.167 110.288C247.711 109.936 248.335 109.76 249.039 109.76C249.668 109.76 250.218 109.899 250.687 110.176C251.156 110.453 251.514 110.843 251.759 111.344V109.952H253.039ZM249.295 117.04C250.084 117.04 250.692 116.773 251.119 116.24C251.546 115.696 251.759 114.928 251.759 113.936C251.759 112.944 251.546 112.181 251.119 111.648C250.692 111.115 250.084 110.848 249.295 110.848C248.506 110.848 247.887 111.125 247.439 111.68C247.002 112.224 246.783 112.987 246.783 113.968C246.783 114.949 247.002 115.707 247.439 116.24C247.876 116.773 248.495 117.04 249.295 117.04ZM259.289 109.76C259.556 109.76 259.801 109.792 260.025 109.856L259.993 111.04C259.748 110.955 259.465 110.912 259.145 110.912C258.366 110.912 257.785 111.157 257.401 111.648C257.028 112.128 256.841 112.715 256.841 113.408V118H255.545V112.208C255.545 111.376 255.502 110.624 255.417 109.952H256.649L256.777 111.44C256.98 110.896 257.305 110.48 257.753 110.192C258.201 109.904 258.713 109.76 259.289 109.76ZM267.922 113.936H262.018C262.028 114.96 262.263 115.733 262.722 116.256C263.191 116.779 263.868 117.04 264.754 117.04C265.692 117.04 266.556 116.725 267.346 116.096L267.778 117.04C267.426 117.371 266.972 117.632 266.418 117.824C265.874 118.016 265.314 118.112 264.738 118.112C263.479 118.112 262.492 117.744 261.778 117.008C261.063 116.261 260.706 115.243 260.706 113.952C260.706 113.131 260.866 112.405 261.186 111.776C261.506 111.136 261.954 110.64 262.53 110.288C263.106 109.936 263.762 109.76 264.498 109.76C265.564 109.76 266.402 110.112 267.01 110.816C267.618 111.509 267.922 112.469 267.922 113.696V113.936ZM264.514 110.768C263.842 110.768 263.292 110.971 262.866 111.376C262.45 111.781 262.183 112.352 262.066 113.088H266.754C266.69 112.331 266.466 111.755 266.082 111.36C265.708 110.965 265.186 110.768 264.514 110.768ZM278.077 109.76C278.781 109.76 279.405 109.936 279.949 110.288C280.493 110.64 280.914 111.136 281.213 111.776C281.511 112.405 281.661 113.136 281.661 113.968C281.661 114.8 281.511 115.531 281.213 116.16C280.914 116.779 280.493 117.259 279.949 117.6C279.415 117.941 278.791 118.112 278.077 118.112C277.447 118.112 276.898 117.973 276.429 117.696C275.959 117.419 275.602 117.024 275.357 116.512V121.456H274.061V112.208C274.061 111.376 274.018 110.624 273.933 109.952H275.164L275.293 111.504C275.517 110.949 275.869 110.523 276.349 110.224C276.839 109.915 277.415 109.76 278.077 109.76ZM277.837 117.04C278.626 117.04 279.234 116.773 279.661 116.24C280.098 115.707 280.317 114.949 280.317 113.968C280.317 112.987 280.098 112.224 279.661 111.68C279.223 111.125 278.615 110.848 277.837 110.848C277.037 110.848 276.423 111.115 275.997 111.648C275.57 112.181 275.357 112.944 275.357 113.936C275.357 114.928 275.57 115.696 275.997 116.24C276.423 116.773 277.037 117.04 277.837 117.04ZM290.39 113.936H284.486C284.497 114.96 284.732 115.733 285.19 116.256C285.66 116.779 286.337 117.04 287.222 117.04C288.161 117.04 289.025 116.725 289.814 116.096L290.246 117.04C289.894 117.371 289.441 117.632 288.886 117.824C288.342 118.016 287.782 118.112 287.206 118.112C285.948 118.112 284.961 117.744 284.246 117.008C283.532 116.261 283.174 115.243 283.174 113.952C283.174 113.131 283.334 112.405 283.654 111.776C283.974 111.136 284.422 110.64 284.998 110.288C285.574 109.936 286.23 109.76 286.966 109.76C288.033 109.76 288.87 110.112 289.478 110.816C290.086 111.509 290.39 112.469 290.39 113.696V113.936ZM286.982 110.768C286.31 110.768 285.761 110.971 285.334 111.376C284.918 111.781 284.652 112.352 284.534 113.088H289.222C289.158 112.331 288.934 111.755 288.55 111.36C288.177 110.965 287.654 110.768 286.982 110.768ZM296.101 109.76C296.368 109.76 296.613 109.792 296.837 109.856L296.805 111.04C296.56 110.955 296.277 110.912 295.957 110.912C295.179 110.912 294.597 111.157 294.213 111.648C293.84 112.128 293.653 112.715 293.653 113.408V118H292.357V112.208C292.357 111.376 292.315 110.624 292.229 109.952H293.461L293.589 111.44C293.792 110.896 294.117 110.48 294.565 110.192C295.013 109.904 295.525 109.76 296.101 109.76ZM301.867 107.28C301.441 107.28 301.105 107.403 300.859 107.648C300.625 107.883 300.507 108.293 300.507 108.88V109.952H302.475V110.976H300.507V118H299.211V110.976H297.643V109.952H299.211V108.72C299.211 107.877 299.419 107.243 299.835 106.816C300.262 106.379 300.854 106.16 301.611 106.16C301.985 106.16 302.347 106.208 302.699 106.304V107.408C302.401 107.323 302.123 107.28 301.867 107.28ZM307.42 118.112C306.662 118.112 305.996 117.941 305.42 117.6C304.844 117.259 304.396 116.773 304.076 116.144C303.766 115.515 303.612 114.779 303.612 113.936C303.612 113.093 303.766 112.357 304.076 111.728C304.396 111.099 304.844 110.613 305.42 110.272C305.996 109.931 306.662 109.76 307.42 109.76C308.177 109.76 308.844 109.931 309.42 110.272C309.996 110.613 310.438 111.099 310.748 111.728C311.068 112.357 311.228 113.093 311.228 113.936C311.228 114.779 311.068 115.515 310.748 116.144C310.438 116.773 309.996 117.259 309.42 117.6C308.844 117.941 308.177 118.112 307.42 118.112ZM307.42 117.04C308.22 117.04 308.833 116.779 309.26 116.256C309.686 115.723 309.9 114.949 309.9 113.936C309.9 112.955 309.681 112.197 309.244 111.664C308.806 111.12 308.198 110.848 307.42 110.848C306.63 110.848 306.017 111.12 305.58 111.664C305.142 112.197 304.924 112.955 304.924 113.936C304.924 114.949 305.137 115.723 305.564 116.256C306.001 116.779 306.62 117.04 307.42 117.04ZM316.992 109.76C317.259 109.76 317.504 109.792 317.728 109.856L317.696 111.04C317.451 110.955 317.168 110.912 316.848 110.912C316.069 110.912 315.488 111.157 315.104 111.648C314.731 112.128 314.544 112.715 314.544 113.408V118H313.248V112.208C313.248 111.376 313.205 110.624 313.12 109.952H314.352L314.48 111.44C314.683 110.896 315.008 110.48 315.456 110.192C315.904 109.904 316.416 109.76 316.992 109.76ZM327.973 109.76C329.754 109.76 330.645 110.821 330.645 112.944V118H329.349V113.008C329.349 112.251 329.216 111.701 328.949 111.36C328.693 111.019 328.272 110.848 327.685 110.848C327.002 110.848 326.469 111.077 326.085 111.536C325.701 111.995 325.509 112.619 325.509 113.408V118H324.213V113.008C324.213 112.261 324.08 111.717 323.813 111.376C323.546 111.024 323.12 110.848 322.533 110.848C321.85 110.848 321.312 111.077 320.917 111.536C320.533 111.995 320.341 112.619 320.341 113.408V118H319.045V112.208C319.045 111.376 319.002 110.624 318.917 109.952H320.149L320.277 111.36C320.501 110.848 320.832 110.453 321.269 110.176C321.717 109.899 322.234 109.76 322.821 109.76C323.461 109.76 323.984 109.888 324.389 110.144C324.794 110.4 325.093 110.795 325.285 111.328C325.53 110.848 325.888 110.469 326.357 110.192C326.837 109.904 327.376 109.76 327.973 109.76ZM333.107 109.952H334.403V118H333.107V109.952ZM334.563 106.544V108.016H332.979V106.544H334.563ZM340.936 109.76C342.867 109.76 343.832 110.821 343.832 112.944V118H342.536V113.008C342.536 112.261 342.387 111.717 342.088 111.376C341.789 111.024 341.32 110.848 340.68 110.848C339.933 110.848 339.336 111.077 338.888 111.536C338.44 111.995 338.216 112.613 338.216 113.392V118H336.92V112.208C336.92 111.376 336.877 110.624 336.792 109.952H338.024L338.152 111.392C338.397 110.869 338.765 110.469 339.256 110.192C339.747 109.904 340.307 109.76 340.936 109.76ZM353.447 109.952V117.936C353.447 119.131 353.138 120.032 352.519 120.64C351.911 121.259 351.01 121.568 349.815 121.568C348.589 121.568 347.533 121.291 346.647 120.736L346.871 119.68C347.383 119.968 347.863 120.176 348.311 120.304C348.77 120.432 349.271 120.496 349.815 120.496C350.594 120.496 351.181 120.288 351.575 119.872C351.97 119.467 352.167 118.859 352.167 118.048V116.144C351.922 116.656 351.559 117.056 351.079 117.344C350.61 117.621 350.05 117.76 349.399 117.76C348.695 117.76 348.066 117.595 347.511 117.264C346.967 116.933 346.546 116.464 346.247 115.856C345.949 115.248 345.799 114.549 345.799 113.76C345.799 112.971 345.949 112.272 346.247 111.664C346.546 111.056 346.967 110.587 347.511 110.256C348.066 109.925 348.695 109.76 349.399 109.76C350.039 109.76 350.594 109.899 351.063 110.176C351.543 110.453 351.906 110.843 352.151 111.344V109.952H353.447ZM349.655 116.672C350.434 116.672 351.042 116.416 351.479 115.904C351.927 115.381 352.151 114.667 352.151 113.76C352.151 112.853 351.927 112.144 351.479 111.632C351.042 111.109 350.434 110.848 349.655 110.848C348.866 110.848 348.242 111.109 347.783 111.632C347.335 112.144 347.111 112.853 347.111 113.76C347.111 114.667 347.335 115.381 347.783 115.904C348.242 116.416 348.866 116.672 349.655 116.672ZM121.248 133.952H122.544V142H121.248V133.952ZM122.704 130.544V132.016H121.12V130.544H122.704ZM129.077 133.76C131.007 133.76 131.973 134.821 131.973 136.944V142H130.677V137.008C130.677 136.261 130.527 135.717 130.229 135.376C129.93 135.024 129.461 134.848 128.821 134.848C128.074 134.848 127.477 135.077 127.029 135.536C126.581 135.995 126.357 136.613 126.357 137.392V142H125.061V136.208C125.061 135.376 125.018 134.624 124.933 133.952H126.164L126.293 135.392C126.538 134.869 126.906 134.469 127.397 134.192C127.887 133.904 128.447 133.76 129.077 133.76ZM147.52 133.76C149.301 133.76 150.192 134.821 150.192 136.944V142H148.896V137.008C148.896 136.251 148.762 135.701 148.496 135.36C148.24 135.019 147.818 134.848 147.232 134.848C146.549 134.848 146.016 135.077 145.632 135.536C145.248 135.995 145.056 136.619 145.056 137.408V142H143.76V137.008C143.76 136.261 143.626 135.717 143.36 135.376C143.093 135.024 142.666 134.848 142.08 134.848C141.397 134.848 140.858 135.077 140.464 135.536C140.08 135.995 139.888 136.619 139.888 137.408V142H138.592V136.208C138.592 135.376 138.549 134.624 138.464 133.952H139.696L139.824 135.36C140.048 134.848 140.378 134.453 140.816 134.176C141.264 133.899 141.781 133.76 142.368 133.76C143.008 133.76 143.53 133.888 143.936 134.144C144.341 134.4 144.64 134.795 144.832 135.328C145.077 134.848 145.434 134.469 145.904 134.192C146.384 133.904 146.922 133.76 147.52 133.76ZM159.742 133.952V142H158.462V140.544C158.228 141.045 157.87 141.435 157.39 141.712C156.921 141.979 156.372 142.112 155.742 142.112C155.028 142.112 154.398 141.941 153.854 141.6C153.321 141.259 152.905 140.779 152.606 140.16C152.318 139.531 152.174 138.8 152.174 137.968C152.174 137.136 152.324 136.405 152.622 135.776C152.921 135.136 153.337 134.64 153.87 134.288C154.414 133.936 155.038 133.76 155.742 133.76C156.372 133.76 156.921 133.899 157.39 134.176C157.86 134.453 158.217 134.843 158.462 135.344V133.952H159.742ZM155.998 141.04C156.788 141.04 157.396 140.773 157.822 140.24C158.249 139.696 158.462 138.928 158.462 137.936C158.462 136.944 158.249 136.181 157.822 135.648C157.396 135.115 156.788 134.848 155.998 134.848C155.209 134.848 154.59 135.125 154.142 135.68C153.705 136.224 153.486 136.987 153.486 137.968C153.486 138.949 153.705 139.707 154.142 140.24C154.58 140.773 155.198 141.04 155.998 141.04ZM166.264 133.76C168.195 133.76 169.16 134.821 169.16 136.944V142H167.864V137.008C167.864 136.261 167.715 135.717 167.416 135.376C167.117 135.024 166.648 134.848 166.008 134.848C165.261 134.848 164.664 135.077 164.216 135.536C163.768 135.995 163.544 136.613 163.544 137.392V142H162.248V136.208C162.248 135.376 162.205 134.624 162.12 133.952H163.352L163.48 135.392C163.725 134.869 164.093 134.469 164.584 134.192C165.075 133.904 165.635 133.76 166.264 133.76ZM174.983 142.112C174.205 142.112 173.522 141.941 172.935 141.6C172.359 141.259 171.911 140.779 171.591 140.16C171.282 139.531 171.127 138.8 171.127 137.968C171.127 137.136 171.287 136.405 171.607 135.776C171.927 135.136 172.381 134.64 172.967 134.288C173.565 133.936 174.258 133.76 175.047 133.76C175.591 133.76 176.114 133.856 176.615 134.048C177.127 134.229 177.549 134.485 177.879 134.816L177.447 135.776C177.042 135.456 176.647 135.221 176.263 135.072C175.89 134.923 175.506 134.848 175.111 134.848C174.29 134.848 173.645 135.125 173.175 135.68C172.706 136.224 172.471 136.987 172.471 137.968C172.471 138.939 172.701 139.696 173.159 140.24C173.629 140.773 174.279 141.04 175.111 141.04C175.506 141.04 175.89 140.965 176.263 140.816C176.647 140.667 177.042 140.432 177.447 140.112L177.879 141.072C177.538 141.392 177.106 141.648 176.583 141.84C176.071 142.021 175.538 142.112 174.983 142.112ZM183.545 133.76C185.476 133.76 186.441 134.821 186.441 136.944V142H185.145V137.008C185.145 136.261 184.996 135.717 184.697 135.376C184.399 135.024 183.929 134.848 183.289 134.848C182.543 134.848 181.945 135.077 181.497 135.536C181.049 135.995 180.825 136.613 180.825 137.392V142H179.529V130.224H180.825V135.264C181.081 134.773 181.444 134.4 181.913 134.144C182.393 133.888 182.937 133.76 183.545 133.76ZM195.625 137.936H189.721C189.731 138.96 189.966 139.733 190.425 140.256C190.894 140.779 191.571 141.04 192.457 141.04C193.395 141.04 194.259 140.725 195.049 140.096L195.481 141.04C195.129 141.371 194.675 141.632 194.121 141.824C193.577 142.016 193.017 142.112 192.441 142.112C191.182 142.112 190.195 141.744 189.481 141.008C188.766 140.261 188.409 139.243 188.409 137.952C188.409 137.131 188.569 136.405 188.889 135.776C189.209 135.136 189.657 134.64 190.233 134.288C190.809 133.936 191.465 133.76 192.201 133.76C193.267 133.76 194.105 134.112 194.713 134.816C195.321 135.509 195.625 136.469 195.625 137.696V137.936ZM192.217 134.768C191.545 134.768 190.995 134.971 190.569 135.376C190.153 135.781 189.886 136.352 189.769 137.088H194.457C194.393 136.331 194.169 135.755 193.785 135.36C193.411 134.965 192.889 134.768 192.217 134.768ZM200.312 142.112C198.957 142.112 197.885 141.765 197.096 141.072L197.528 140.112C197.965 140.453 198.408 140.699 198.856 140.848C199.304 140.997 199.805 141.072 200.36 141.072C200.968 141.072 201.426 140.971 201.736 140.768C202.056 140.555 202.216 140.251 202.216 139.856C202.216 139.536 202.109 139.28 201.896 139.088C201.682 138.896 201.33 138.747 200.84 138.64L199.48 138.32C198.808 138.171 198.285 137.904 197.912 137.52C197.549 137.136 197.368 136.677 197.368 136.144C197.368 135.44 197.65 134.869 198.216 134.432C198.781 133.984 199.528 133.76 200.456 133.76C201.021 133.76 201.554 133.851 202.056 134.032C202.557 134.213 202.978 134.475 203.32 134.816L202.888 135.76C202.13 135.131 201.32 134.816 200.456 134.816C199.88 134.816 199.432 134.928 199.112 135.152C198.802 135.365 198.648 135.669 198.648 136.064C198.648 136.395 198.744 136.656 198.936 136.848C199.138 137.04 199.458 137.189 199.896 137.296L201.256 137.632C202.002 137.803 202.557 138.069 202.92 138.432C203.282 138.784 203.464 139.248 203.464 139.824C203.464 140.517 203.181 141.072 202.616 141.488C202.05 141.904 201.282 142.112 200.312 142.112ZM207.179 134.976V139.376C207.179 139.973 207.302 140.395 207.547 140.64C207.792 140.875 208.139 140.992 208.587 140.992C208.886 140.992 209.174 140.944 209.451 140.848V141.952C209.12 142.059 208.747 142.112 208.331 142.112C207.563 142.112 206.96 141.899 206.523 141.472C206.096 141.035 205.883 140.395 205.883 139.552V134.976H204.315V133.952H205.883V131.888L207.179 131.424V133.952H209.483V134.976H207.179ZM217.781 137.936H211.877C211.888 138.96 212.122 139.733 212.581 140.256C213.05 140.779 213.728 141.04 214.613 141.04C215.552 141.04 216.416 140.725 217.205 140.096L217.637 141.04C217.285 141.371 216.832 141.632 216.277 141.824C215.733 142.016 215.173 142.112 214.597 142.112C213.338 142.112 212.352 141.744 211.637 141.008C210.922 140.261 210.565 139.243 210.565 137.952C210.565 137.131 210.725 136.405 211.045 135.776C211.365 135.136 211.813 134.64 212.389 134.288C212.965 133.936 213.621 133.76 214.357 133.76C215.424 133.76 216.261 134.112 216.869 134.816C217.477 135.509 217.781 136.469 217.781 137.696V137.936ZM214.373 134.768C213.701 134.768 213.152 134.971 212.725 135.376C212.309 135.781 212.042 136.352 211.925 137.088H216.613C216.549 136.331 216.325 135.755 215.941 135.36C215.568 134.965 215.045 134.768 214.373 134.768ZM223.492 133.76C223.759 133.76 224.004 133.792 224.228 133.856L224.196 135.04C223.951 134.955 223.668 134.912 223.348 134.912C222.569 134.912 221.988 135.157 221.604 135.648C221.231 136.128 221.044 136.715 221.044 137.408V142H219.748V136.208C219.748 135.376 219.705 134.624 219.62 133.952H220.852L220.98 135.44C221.183 134.896 221.508 134.48 221.956 134.192C222.404 133.904 222.916 133.76 223.492 133.76ZM233.733 133.76C234.437 133.76 235.061 133.931 235.605 134.272C236.149 134.613 236.57 135.099 236.869 135.728C237.167 136.347 237.317 137.072 237.317 137.904C237.317 138.736 237.167 139.472 236.869 140.112C236.57 140.741 236.149 141.232 235.605 141.584C235.061 141.936 234.437 142.112 233.733 142.112C233.103 142.112 232.554 141.973 232.085 141.696C231.615 141.419 231.258 141.024 231.013 140.512V142H229.717V130.224H231.013V135.376C231.247 134.853 231.599 134.453 232.069 134.176C232.549 133.899 233.103 133.76 233.733 133.76ZM233.493 141.04C234.271 141.04 234.879 140.768 235.317 140.224C235.754 139.669 235.973 138.896 235.973 137.904C235.973 136.933 235.754 136.181 235.317 135.648C234.89 135.115 234.282 134.848 233.493 134.848C232.693 134.848 232.079 135.115 231.653 135.648C231.226 136.181 231.013 136.944 231.013 137.936C231.013 138.928 231.226 139.696 231.653 140.24C232.079 140.773 232.693 141.04 233.493 141.04ZM246.289 133.952L242.529 142.736C242.134 143.653 241.638 144.325 241.041 144.752C240.443 145.179 239.707 145.472 238.833 145.632L238.561 144.624C239.318 144.453 239.889 144.224 240.273 143.936C240.667 143.659 240.993 143.227 241.249 142.64L241.569 141.92L238.161 133.952H239.521L242.241 140.592L244.993 133.952H246.289ZM257.169 136.144C257.915 136.347 258.491 136.699 258.897 137.2C259.313 137.691 259.521 138.283 259.521 138.976C259.521 139.947 259.153 140.715 258.417 141.28C257.681 141.835 256.689 142.112 255.441 142.112C254.193 142.112 253.201 141.835 252.465 141.28C251.729 140.715 251.361 139.947 251.361 138.976C251.361 138.283 251.569 137.685 251.985 137.184C252.411 136.683 252.993 136.336 253.729 136.144C253.046 135.941 252.523 135.611 252.161 135.152C251.798 134.683 251.617 134.133 251.617 133.504C251.617 132.896 251.777 132.368 252.097 131.92C252.417 131.461 252.865 131.109 253.441 130.864C254.027 130.608 254.694 130.48 255.441 130.48C256.187 130.48 256.849 130.608 257.425 130.864C258.011 131.109 258.465 131.461 258.785 131.92C259.105 132.368 259.265 132.896 259.265 133.504C259.265 134.133 259.078 134.683 258.705 135.152C258.342 135.611 257.83 135.941 257.169 136.144ZM252.929 133.6C252.929 134.208 253.153 134.704 253.601 135.088C254.059 135.461 254.673 135.691 255.441 135.776C256.209 135.691 256.817 135.461 257.265 135.088C257.723 134.704 257.953 134.208 257.953 133.6C257.953 132.971 257.729 132.475 257.281 132.112C256.843 131.749 256.23 131.568 255.441 131.568C254.651 131.568 254.033 131.749 253.585 132.112C253.147 132.475 252.929 132.971 252.929 133.6ZM255.441 141.024C256.337 141.024 257.025 140.843 257.505 140.48C257.985 140.117 258.225 139.589 258.225 138.896C258.225 138.267 257.969 137.765 257.457 137.392C256.955 137.008 256.283 136.773 255.441 136.688C254.598 136.773 253.921 137.008 253.409 137.392C252.907 137.765 252.657 138.267 252.657 138.896C252.657 139.589 252.897 140.117 253.377 140.48C253.857 140.843 254.545 141.024 255.441 141.024ZM265.498 133.76C266.202 133.76 266.826 133.936 267.37 134.288C267.914 134.64 268.336 135.136 268.634 135.776C268.933 136.405 269.082 137.136 269.082 137.968C269.082 138.8 268.933 139.531 268.634 140.16C268.336 140.779 267.914 141.259 267.37 141.6C266.837 141.941 266.213 142.112 265.498 142.112C264.869 142.112 264.32 141.973 263.85 141.696C263.381 141.419 263.024 141.024 262.778 140.512V145.456H261.482V136.208C261.482 135.376 261.44 134.624 261.354 133.952H262.586L262.714 135.504C262.938 134.949 263.29 134.523 263.77 134.224C264.261 133.915 264.837 133.76 265.498 133.76ZM265.258 141.04C266.048 141.04 266.656 140.773 267.082 140.24C267.52 139.707 267.738 138.949 267.738 137.968C267.738 136.987 267.52 136.224 267.082 135.68C266.645 135.125 266.037 134.848 265.258 134.848C264.458 134.848 263.845 135.115 263.418 135.648C262.992 136.181 262.778 136.944 262.778 137.936C262.778 138.928 262.992 139.696 263.418 140.24C263.845 140.773 264.458 141.04 265.258 141.04ZM280.004 133.76C281.785 133.76 282.676 134.821 282.676 136.944V142H281.38V137.008C281.38 136.251 281.247 135.701 280.98 135.36C280.724 135.019 280.303 134.848 279.716 134.848C279.033 134.848 278.5 135.077 278.116 135.536C277.732 135.995 277.54 136.619 277.54 137.408V142H276.244V137.008C276.244 136.261 276.111 135.717 275.844 135.376C275.577 135.024 275.151 134.848 274.564 134.848C273.881 134.848 273.343 135.077 272.948 135.536C272.564 135.995 272.372 136.619 272.372 137.408V142H271.076V136.208C271.076 135.376 271.033 134.624 270.948 133.952H272.18L272.308 135.36C272.532 134.848 272.863 134.453 273.3 134.176C273.748 133.899 274.265 133.76 274.852 133.76C275.492 133.76 276.015 133.888 276.42 134.144C276.825 134.4 277.124 134.795 277.316 135.328C277.561 134.848 277.919 134.469 278.388 134.192C278.868 133.904 279.407 133.76 280.004 133.76ZM291.039 134.976V139.376C291.039 139.973 291.161 140.395 291.407 140.64C291.652 140.875 291.999 140.992 292.447 140.992C292.745 140.992 293.033 140.944 293.311 140.848V141.952C292.98 142.059 292.607 142.112 292.191 142.112C291.423 142.112 290.82 141.899 290.383 141.472C289.956 141.035 289.743 140.395 289.743 139.552V134.976H288.175V133.952H289.743V131.888L291.039 131.424V133.952H293.343V134.976H291.039ZM298.232 142.112C297.475 142.112 296.808 141.941 296.232 141.6C295.656 141.259 295.208 140.773 294.888 140.144C294.579 139.515 294.424 138.779 294.424 137.936C294.424 137.093 294.579 136.357 294.888 135.728C295.208 135.099 295.656 134.613 296.232 134.272C296.808 133.931 297.475 133.76 298.232 133.76C298.99 133.76 299.656 133.931 300.232 134.272C300.808 134.613 301.251 135.099 301.56 135.728C301.88 136.357 302.04 137.093 302.04 137.936C302.04 138.779 301.88 139.515 301.56 140.144C301.251 140.773 300.808 141.259 300.232 141.6C299.656 141.941 298.99 142.112 298.232 142.112ZM298.232 141.04C299.032 141.04 299.646 140.779 300.072 140.256C300.499 139.723 300.712 138.949 300.712 137.936C300.712 136.955 300.494 136.197 300.056 135.664C299.619 135.12 299.011 134.848 298.232 134.848C297.443 134.848 296.83 135.12 296.392 135.664C295.955 136.197 295.736 136.955 295.736 137.936C295.736 138.949 295.95 139.723 296.376 140.256C296.814 140.779 297.432 141.04 298.232 141.04ZM311.149 130.224V142H309.869V140.544C309.634 141.045 309.277 141.435 308.797 141.712C308.327 141.979 307.778 142.112 307.149 142.112C306.445 142.112 305.821 141.936 305.277 141.584C304.743 141.232 304.327 140.741 304.029 140.112C303.73 139.472 303.581 138.736 303.581 137.904C303.581 137.072 303.725 136.347 304.013 135.728C304.311 135.099 304.733 134.613 305.277 134.272C305.821 133.931 306.445 133.76 307.149 133.76C307.778 133.76 308.327 133.899 308.797 134.176C309.266 134.443 309.618 134.821 309.853 135.312V130.224H311.149ZM307.405 141.04C308.194 141.04 308.802 140.773 309.229 140.24C309.655 139.696 309.869 138.928 309.869 137.936C309.869 136.955 309.655 136.197 309.229 135.664C308.802 135.12 308.194 134.848 307.405 134.848C306.615 134.848 305.997 135.115 305.549 135.648C305.111 136.181 304.893 136.933 304.893 137.904C304.893 138.896 305.111 139.669 305.549 140.224C305.997 140.768 306.615 141.04 307.405 141.04ZM320.742 133.952V142H319.462V140.544C319.228 141.045 318.87 141.435 318.39 141.712C317.921 141.979 317.372 142.112 316.742 142.112C316.028 142.112 315.398 141.941 314.854 141.6C314.321 141.259 313.905 140.779 313.606 140.16C313.318 139.531 313.174 138.8 313.174 137.968C313.174 137.136 313.324 136.405 313.622 135.776C313.921 135.136 314.337 134.64 314.87 134.288C315.414 133.936 316.038 133.76 316.742 133.76C317.372 133.76 317.921 133.899 318.39 134.176C318.86 134.453 319.217 134.843 319.462 135.344V133.952H320.742ZM316.998 141.04C317.788 141.04 318.396 140.773 318.822 140.24C319.249 139.696 319.462 138.928 319.462 137.936C319.462 136.944 319.249 136.181 318.822 135.648C318.396 135.115 317.788 134.848 316.998 134.848C316.209 134.848 315.59 135.125 315.142 135.68C314.705 136.224 314.486 136.987 314.486 137.968C314.486 138.949 314.705 139.707 315.142 140.24C315.58 140.773 316.198 141.04 316.998 141.04ZM330.32 133.952L326.56 142.736C326.165 143.653 325.669 144.325 325.072 144.752C324.475 145.179 323.739 145.472 322.864 145.632L322.592 144.624C323.349 144.453 323.92 144.224 324.304 143.936C324.699 143.659 325.024 143.227 325.28 142.64L325.6 141.92L322.192 133.952H323.552L326.272 140.592L329.024 133.952H330.32ZM332.578 140.352V141.52C332.578 141.968 332.504 142.379 332.354 142.752C332.205 143.125 331.954 143.488 331.602 143.84L330.994 143.376C331.41 142.896 331.645 142.437 331.698 142H330.93V140.352H332.578ZM351.253 133.952L348.277 142H347.029L344.725 135.712L342.437 142H341.189L338.213 133.952H339.573L341.845 140.448L344.197 133.952H345.333L347.653 140.464L349.973 133.952H351.253ZM352.936 133.952H354.232V142H352.936V133.952ZM354.392 130.544V132.016H352.808V130.544H354.392ZM356.748 130.224H358.044V142H356.748V130.224ZM360.561 130.224H361.857V142H360.561V130.224ZM128.32 157.952L124.56 166.736C124.165 167.653 123.669 168.325 123.072 168.752C122.475 169.179 121.739 169.472 120.864 169.632L120.592 168.624C121.349 168.453 121.92 168.224 122.304 167.936C122.699 167.659 123.024 167.227 123.28 166.64L123.6 165.92L120.192 157.952H121.552L124.272 164.592L127.024 157.952H128.32ZM132.982 166.112C132.225 166.112 131.558 165.941 130.982 165.6C130.406 165.259 129.958 164.773 129.638 164.144C129.329 163.515 129.174 162.779 129.174 161.936C129.174 161.093 129.329 160.357 129.638 159.728C129.958 159.099 130.406 158.613 130.982 158.272C131.558 157.931 132.225 157.76 132.982 157.76C133.74 157.76 134.406 157.931 134.982 158.272C135.558 158.613 136.001 159.099 136.31 159.728C136.63 160.357 136.79 161.093 136.79 161.936C136.79 162.779 136.63 163.515 136.31 164.144C136.001 164.773 135.558 165.259 134.982 165.6C134.406 165.941 133.74 166.112 132.982 166.112ZM132.982 165.04C133.782 165.04 134.396 164.779 134.822 164.256C135.249 163.723 135.462 162.949 135.462 161.936C135.462 160.955 135.244 160.197 134.806 159.664C134.369 159.12 133.761 158.848 132.982 158.848C132.193 158.848 131.58 159.12 131.142 159.664C130.705 160.197 130.486 160.955 130.486 161.936C130.486 162.949 130.7 163.723 131.126 164.256C131.564 164.779 132.182 165.04 132.982 165.04ZM145.547 157.952V166H144.283V164.608C144.027 165.099 143.669 165.472 143.211 165.728C142.752 165.984 142.235 166.112 141.659 166.112C140.709 166.112 139.989 165.845 139.499 165.312C139.008 164.779 138.763 163.989 138.763 162.944V157.952H140.059V162.912C140.059 163.637 140.208 164.171 140.507 164.512C140.805 164.853 141.259 165.024 141.867 165.024C142.581 165.024 143.157 164.795 143.595 164.336C144.032 163.867 144.251 163.253 144.251 162.496V157.952H145.547ZM156.233 157.76C156.937 157.76 157.561 157.931 158.105 158.272C158.649 158.613 159.07 159.099 159.369 159.728C159.667 160.347 159.817 161.072 159.817 161.904C159.817 162.736 159.667 163.472 159.369 164.112C159.07 164.741 158.649 165.232 158.105 165.584C157.561 165.936 156.937 166.112 156.233 166.112C155.603 166.112 155.054 165.973 154.585 165.696C154.115 165.419 153.758 165.024 153.513 164.512V166H152.217V154.224H153.513V159.376C153.747 158.853 154.099 158.453 154.569 158.176C155.049 157.899 155.603 157.76 156.233 157.76ZM155.993 165.04C156.771 165.04 157.379 164.768 157.817 164.224C158.254 163.669 158.473 162.896 158.473 161.904C158.473 160.933 158.254 160.181 157.817 159.648C157.39 159.115 156.782 158.848 155.993 158.848C155.193 158.848 154.579 159.115 154.153 159.648C153.726 160.181 153.513 160.944 153.513 161.936C153.513 162.928 153.726 163.696 154.153 164.24C154.579 164.773 155.193 165.04 155.993 165.04ZM168.547 161.936H162.643C162.653 162.96 162.888 163.733 163.347 164.256C163.816 164.779 164.493 165.04 165.379 165.04C166.317 165.04 167.181 164.725 167.971 164.096L168.403 165.04C168.051 165.371 167.597 165.632 167.043 165.824C166.499 166.016 165.939 166.112 165.363 166.112C164.104 166.112 163.117 165.744 162.403 165.008C161.688 164.261 161.331 163.243 161.331 161.952C161.331 161.131 161.491 160.405 161.811 159.776C162.131 159.136 162.579 158.64 163.155 158.288C163.731 157.936 164.387 157.76 165.123 157.76C166.189 157.76 167.027 158.112 167.635 158.816C168.243 159.509 168.547 160.469 168.547 161.696V161.936ZM165.139 158.768C164.467 158.768 163.917 158.971 163.491 159.376C163.075 159.781 162.808 160.352 162.691 161.088H167.379C167.315 160.331 167.091 159.755 166.707 159.36C166.333 158.965 165.811 158.768 165.139 158.768ZM177.406 166.112C176.051 166.112 174.979 165.765 174.19 165.072L174.622 164.112C175.059 164.453 175.502 164.699 175.95 164.848C176.398 164.997 176.899 165.072 177.454 165.072C178.062 165.072 178.52 164.971 178.83 164.768C179.15 164.555 179.31 164.251 179.31 163.856C179.31 163.536 179.203 163.28 178.99 163.088C178.776 162.896 178.424 162.747 177.934 162.64L176.574 162.32C175.902 162.171 175.379 161.904 175.006 161.52C174.643 161.136 174.462 160.677 174.462 160.144C174.462 159.44 174.744 158.869 175.31 158.432C175.875 157.984 176.622 157.76 177.549 157.76C178.115 157.76 178.648 157.851 179.15 158.032C179.651 158.213 180.072 158.475 180.414 158.816L179.982 159.76C179.224 159.131 178.414 158.816 177.549 158.816C176.974 158.816 176.526 158.928 176.206 159.152C175.896 159.365 175.742 159.669 175.742 160.064C175.742 160.395 175.838 160.656 176.03 160.848C176.232 161.04 176.552 161.189 176.99 161.296L178.35 161.632C179.096 161.803 179.651 162.069 180.014 162.432C180.376 162.784 180.558 163.248 180.558 163.824C180.558 164.517 180.275 165.072 179.71 165.488C179.144 165.904 178.376 166.112 177.406 166.112ZM184.273 158.976V163.376C184.273 163.973 184.396 164.395 184.641 164.64C184.886 164.875 185.233 164.992 185.681 164.992C185.98 164.992 186.268 164.944 186.545 164.848V165.952C186.214 166.059 185.841 166.112 185.425 166.112C184.657 166.112 184.054 165.899 183.617 165.472C183.19 165.035 182.977 164.395 182.977 163.552V158.976H181.409V157.952H182.977V155.888L184.273 155.424V157.952H186.577V158.976H184.273ZM191.883 157.76C192.149 157.76 192.395 157.792 192.619 157.856L192.587 159.04C192.341 158.955 192.059 158.912 191.739 158.912C190.96 158.912 190.379 159.157 189.995 159.648C189.621 160.128 189.435 160.715 189.435 161.408V166H188.139V160.208C188.139 159.376 188.096 158.624 188.011 157.952H189.243L189.371 159.44C189.573 158.896 189.899 158.48 190.347 158.192C190.795 157.904 191.307 157.76 191.883 157.76ZM200.515 161.936H194.611C194.622 162.96 194.857 163.733 195.315 164.256C195.785 164.779 196.462 165.04 197.347 165.04C198.286 165.04 199.15 164.725 199.939 164.096L200.371 165.04C200.019 165.371 199.566 165.632 199.011 165.824C198.467 166.016 197.907 166.112 197.331 166.112C196.073 166.112 195.086 165.744 194.371 165.008C193.657 164.261 193.299 163.243 193.299 161.952C193.299 161.131 193.459 160.405 193.779 159.776C194.099 159.136 194.547 158.64 195.123 158.288C195.699 157.936 196.355 157.76 197.091 157.76C198.158 157.76 198.995 158.112 199.603 158.816C200.211 159.509 200.515 160.469 200.515 161.696V161.936ZM197.107 158.768C196.435 158.768 195.886 158.971 195.459 159.376C195.043 159.781 194.777 160.352 194.659 161.088H199.347C199.283 160.331 199.059 159.755 198.675 159.36C198.302 158.965 197.779 158.768 197.107 158.768ZM209.57 157.952V166H208.29V164.544C208.056 165.045 207.698 165.435 207.218 165.712C206.749 165.979 206.2 166.112 205.57 166.112C204.856 166.112 204.226 165.941 203.682 165.6C203.149 165.259 202.733 164.779 202.434 164.16C202.146 163.531 202.002 162.8 202.002 161.968C202.002 161.136 202.152 160.405 202.45 159.776C202.749 159.136 203.165 158.64 203.698 158.288C204.242 157.936 204.866 157.76 205.57 157.76C206.2 157.76 206.749 157.899 207.218 158.176C207.688 158.453 208.045 158.843 208.29 159.344V157.952H209.57ZM205.826 165.04C206.616 165.04 207.224 164.773 207.65 164.24C208.077 163.696 208.29 162.928 208.29 161.936C208.29 160.944 208.077 160.181 207.65 159.648C207.224 159.115 206.616 158.848 205.826 158.848C205.037 158.848 204.418 159.125 203.97 159.68C203.533 160.224 203.314 160.987 203.314 161.968C203.314 162.949 203.533 163.707 203.97 164.24C204.408 164.773 205.026 165.04 205.826 165.04ZM221.004 157.76C222.785 157.76 223.676 158.821 223.676 160.944V166H222.38V161.008C222.38 160.251 222.247 159.701 221.98 159.36C221.724 159.019 221.303 158.848 220.716 158.848C220.033 158.848 219.5 159.077 219.116 159.536C218.732 159.995 218.54 160.619 218.54 161.408V166H217.244V161.008C217.244 160.261 217.111 159.717 216.844 159.376C216.577 159.024 216.151 158.848 215.564 158.848C214.881 158.848 214.343 159.077 213.948 159.536C213.564 159.995 213.372 160.619 213.372 161.408V166H212.076V160.208C212.076 159.376 212.033 158.624 211.948 157.952H213.18L213.308 159.36C213.532 158.848 213.863 158.453 214.3 158.176C214.748 157.899 215.265 157.76 215.852 157.76C216.492 157.76 217.015 157.888 217.42 158.144C217.825 158.4 218.124 158.795 218.316 159.328C218.561 158.848 218.919 158.469 219.388 158.192C219.868 157.904 220.407 157.76 221.004 157.76ZM226.139 157.952H227.435V166H226.139V157.952ZM227.595 154.544V156.016H226.011V154.544H227.595ZM233.967 157.76C235.898 157.76 236.863 158.821 236.863 160.944V166H235.567V161.008C235.567 160.261 235.418 159.717 235.119 159.376C234.82 159.024 234.351 158.848 233.711 158.848C232.964 158.848 232.367 159.077 231.919 159.536C231.471 159.995 231.247 160.613 231.247 161.392V166H229.951V160.208C229.951 159.376 229.908 158.624 229.823 157.952H231.055L231.183 159.392C231.428 158.869 231.796 158.469 232.287 158.192C232.778 157.904 233.338 157.76 233.967 157.76ZM246.479 157.952V165.936C246.479 167.131 246.169 168.032 245.551 168.64C244.943 169.259 244.041 169.568 242.847 169.568C241.62 169.568 240.564 169.291 239.679 168.736L239.903 167.68C240.415 167.968 240.895 168.176 241.343 168.304C241.801 168.432 242.303 168.496 242.847 168.496C243.625 168.496 244.212 168.288 244.607 167.872C245.001 167.467 245.199 166.859 245.199 166.048V164.144C244.953 164.656 244.591 165.056 244.111 165.344C243.641 165.621 243.081 165.76 242.431 165.76C241.727 165.76 241.097 165.595 240.543 165.264C239.999 164.933 239.577 164.464 239.279 163.856C238.98 163.248 238.831 162.549 238.831 161.76C238.831 160.971 238.98 160.272 239.279 159.664C239.577 159.056 239.999 158.587 240.543 158.256C241.097 157.925 241.727 157.76 242.431 157.76C243.071 157.76 243.625 157.899 244.095 158.176C244.575 158.453 244.937 158.843 245.183 159.344V157.952H246.479ZM242.687 164.672C243.465 164.672 244.073 164.416 244.511 163.904C244.959 163.381 245.183 162.667 245.183 161.76C245.183 160.853 244.959 160.144 244.511 159.632C244.073 159.109 243.465 158.848 242.687 158.848C241.897 158.848 241.273 159.109 240.815 159.632C240.367 160.144 240.143 160.853 240.143 161.76C240.143 162.667 240.367 163.381 240.815 163.904C241.273 164.416 241.897 164.672 242.687 164.672ZM254.867 158.976V163.376C254.867 163.973 254.989 164.395 255.235 164.64C255.48 164.875 255.827 164.992 256.275 164.992C256.573 164.992 256.861 164.944 257.139 164.848V165.952C256.808 166.059 256.435 166.112 256.019 166.112C255.251 166.112 254.648 165.899 254.211 165.472C253.784 165.035 253.571 164.395 253.571 163.552V158.976H252.003V157.952H253.571V155.888L254.867 155.424V157.952H257.171V158.976H254.867ZM262.748 157.76C264.679 157.76 265.644 158.821 265.644 160.944V166H264.348V161.008C264.348 160.261 264.199 159.717 263.9 159.376C263.602 159.024 263.132 158.848 262.492 158.848C261.746 158.848 261.148 159.077 260.7 159.536C260.252 159.995 260.028 160.613 260.028 161.392V166H258.732V154.224H260.028V159.264C260.284 158.773 260.647 158.4 261.116 158.144C261.596 157.888 262.14 157.76 262.748 157.76ZM274.828 161.936H268.924C268.934 162.96 269.169 163.733 269.628 164.256C270.097 164.779 270.774 165.04 271.66 165.04C272.598 165.04 273.462 164.725 274.252 164.096L274.684 165.04C274.332 165.371 273.878 165.632 273.324 165.824C272.78 166.016 272.22 166.112 271.644 166.112C270.385 166.112 269.398 165.744 268.684 165.008C267.969 164.261 267.612 163.243 267.612 161.952C267.612 161.131 267.772 160.405 268.092 159.776C268.412 159.136 268.86 158.64 269.436 158.288C270.012 157.936 270.668 157.76 271.404 157.76C272.47 157.76 273.308 158.112 273.916 158.816C274.524 159.509 274.828 160.469 274.828 161.696V161.936ZM271.42 158.768C270.748 158.768 270.198 158.971 269.772 159.376C269.356 159.781 269.089 160.352 268.972 161.088H273.66C273.596 160.331 273.372 159.755 272.988 159.36C272.614 158.965 272.092 158.768 271.42 158.768ZM287.703 161.936H281.799C281.809 162.96 282.044 163.733 282.503 164.256C282.972 164.779 283.649 165.04 284.535 165.04C285.473 165.04 286.337 164.725 287.127 164.096L287.559 165.04C287.207 165.371 286.753 165.632 286.199 165.824C285.655 166.016 285.095 166.112 284.519 166.112C283.26 166.112 282.273 165.744 281.559 165.008C280.844 164.261 280.487 163.243 280.487 161.952C280.487 161.131 280.647 160.405 280.967 159.776C281.287 159.136 281.735 158.64 282.311 158.288C282.887 157.936 283.543 157.76 284.279 157.76C285.345 157.76 286.183 158.112 286.791 158.816C287.399 159.509 287.703 160.469 287.703 161.696V161.936ZM284.295 158.768C283.623 158.768 283.073 158.971 282.647 159.376C282.231 159.781 281.964 160.352 281.847 161.088H286.535C286.471 160.331 286.247 159.755 285.863 159.36C285.489 158.965 284.967 158.768 284.295 158.768ZM296.648 157.968L293.176 166H291.944L288.52 157.968H289.88L292.6 164.592L295.352 157.968H296.648ZM304.718 161.936H298.814C298.825 162.96 299.06 163.733 299.518 164.256C299.988 164.779 300.665 165.04 301.55 165.04C302.489 165.04 303.353 164.725 304.142 164.096L304.574 165.04C304.222 165.371 303.769 165.632 303.214 165.824C302.67 166.016 302.11 166.112 301.534 166.112C300.276 166.112 299.289 165.744 298.574 165.008C297.86 164.261 297.502 163.243 297.502 161.952C297.502 161.131 297.662 160.405 297.982 159.776C298.302 159.136 298.75 158.64 299.326 158.288C299.902 157.936 300.558 157.76 301.294 157.76C302.361 157.76 303.198 158.112 303.806 158.816C304.414 159.509 304.718 160.469 304.718 161.696V161.936ZM301.31 158.768C300.638 158.768 300.089 158.971 299.662 159.376C299.246 159.781 298.98 160.352 298.862 161.088H303.55C303.486 160.331 303.262 159.755 302.878 159.36C302.505 158.965 301.982 158.768 301.31 158.768ZM310.702 157.76C312.632 157.76 313.598 158.821 313.598 160.944V166H312.302V161.008C312.302 160.261 312.152 159.717 311.854 159.376C311.555 159.024 311.086 158.848 310.446 158.848C309.699 158.848 309.102 159.077 308.654 159.536C308.206 159.995 307.982 160.613 307.982 161.392V166H306.686V160.208C306.686 159.376 306.643 158.624 306.558 157.952H307.789L307.918 159.392C308.163 158.869 308.531 158.469 309.022 158.192C309.512 157.904 310.072 157.76 310.702 157.76ZM317.773 158.976V163.376C317.773 163.973 317.896 164.395 318.141 164.64C318.386 164.875 318.733 164.992 319.181 164.992C319.48 164.992 319.768 164.944 320.045 164.848V165.952C319.714 166.059 319.341 166.112 318.925 166.112C318.157 166.112 317.554 165.899 317.117 165.472C316.69 165.035 316.477 164.395 316.477 163.552V158.976H314.909V157.952H316.477V155.888L317.773 155.424V157.952H320.077V158.976H317.773ZM321.846 155.072C322.187 154.88 322.555 154.736 322.95 154.64C323.344 154.533 323.734 154.48 324.118 154.48C325.035 154.48 325.776 154.715 326.342 155.184C326.918 155.643 327.206 156.251 327.206 157.008C327.206 157.403 327.136 157.765 326.998 158.096C326.87 158.427 326.71 158.725 326.518 158.992C326.326 159.248 326.064 159.568 325.734 159.952C325.275 160.464 324.918 160.923 324.661 161.328C324.416 161.733 324.267 162.203 324.214 162.736L324.166 163.024H323.398V162.624C323.398 161.952 323.515 161.387 323.75 160.928C323.984 160.459 324.331 159.936 324.79 159.36C325.152 158.901 325.419 158.512 325.59 158.192C325.771 157.861 325.862 157.493 325.862 157.088C325.862 156.629 325.702 156.267 325.382 156C325.062 155.733 324.619 155.6 324.054 155.6C323.307 155.6 322.571 155.824 321.846 156.272V155.072ZM322.966 164.352H324.614V166H322.966V164.352Z" fill="#646464"/>
<path d="M142.321 65C140.843 65 139.643 66.2391 139.643 67.765C139.643 69.2909 140.843 70.5299 142.321 70.5299C143.8 70.5299 145 69.2909 145 67.765C145 66.2391 143.8 65 142.321 65Z" fill="#F60C0C"/>
<path fill-rule="evenodd" clip-rule="evenodd" d="M138.438 76.5468L134.691 81.5378C134.392 81.9407 133.874 82.0464 133.459 81.8189L133.342 81.7399L129.647 78.8744L126.392 83.1988C126.211 83.4518 125.927 83.6137 125.627 83.6004C125.407 83.6004 125.212 83.5201 125.031 83.3996C124.642 83.1038 124.538 82.555 124.759 82.1281L124.838 82.0076L128.674 76.8533C128.831 76.6392 129.065 76.4933 129.323 76.4531C129.582 76.425 129.841 76.4933 130.062 76.6673L133.655 79.5851L136.791 75.3958C137 75.1013 137.349 74.9407 137.7 74.9809C138.036 75.0076 138.348 75.2352 138.49 75.5698C138.632 75.9044 138.593 76.2791 138.386 76.5736L138.438 76.5468ZM137.362 67.8471C137.362 67.5125 137.388 67.1779 137.439 66.8433H127.003C122.593 66.8433 120 69.5469 120 74.0976V84.0006C120 88.5392 122.593 91.2295 127.003 91.2295H136.584C140.992 91.2295 143.585 88.5392 143.585 84.0006V73.2008C143.261 73.2544 142.95 73.2932 142.626 73.2932C139.721 73.2932 137.362 70.8586 137.362 67.8471Z" fill="#200E32"/>
<path d="M352 160C352 165.523 347.523 170 342 170C336.477 170 332 165.523 332 160C332 154.477 336.477 150 342 150C347.523 150 352 154.477 352 160Z" fill="#FFCC4D"/>
<path d="M342 161.667C339.987 161.667 338.652 161.432 337 161.111C336.623 161.038 335.889 161.111 335.889 162.222C335.889 164.444 338.442 167.222 342 167.222C345.558 167.222 348.111 164.444 348.111 162.222C348.111 161.111 347.377 161.038 347 161.111C345.348 161.432 344.013 161.667 342 161.667Z" fill="#664500"/>
<path d="M337 162.222C337 162.222 338.667 162.778 342 162.778C345.333 162.778 347 162.222 347 162.222C347 162.222 345.889 164.444 342 164.444C338.111 164.444 337 162.222 337 162.222Z" fill="white"/>
<path d="M340.712 152.452L338.189 152.897L336.889 150.534C336.746 150.273 336.451 150.134 336.16 150.185C335.867 150.237 335.639 150.469 335.594 150.762L335.18 153.427L332.657 153.872C332.359 153.924 332.13 154.164 332.089 154.463C332.049 154.763 332.207 155.054 332.48 155.184L334.741 156.257L334.326 158.931C334.279 159.228 334.431 159.522 334.699 159.658C334.799 159.708 334.906 159.732 335.012 159.732C335.193 159.732 335.373 159.661 335.507 159.525L337.458 157.547L339.968 158.738C340.24 158.867 340.564 158.807 340.771 158.587C340.978 158.368 341.019 158.041 340.874 157.777L339.569 155.406L341.328 153.623C341.54 153.408 341.588 153.081 341.448 152.813C341.307 152.545 341.008 152.4 340.712 152.452ZM343.288 152.452L345.811 152.897L347.111 150.534C347.254 150.273 347.549 150.134 347.84 150.185C348.132 150.237 348.36 150.469 348.406 150.762L348.819 153.427L351.343 153.872C351.641 153.924 351.87 154.163 351.91 154.463C351.95 154.762 351.793 155.053 351.519 155.183L349.258 156.257L349.674 158.93C349.72 159.228 349.569 159.521 349.3 159.657C349.201 159.707 349.094 159.731 348.988 159.731C348.806 159.731 348.627 159.66 348.493 159.524L346.542 157.546L344.032 158.738C343.759 158.867 343.435 158.806 343.228 158.587C343.022 158.367 342.981 158.04 343.126 157.776L344.43 155.406L342.672 153.623C342.459 153.408 342.411 153.081 342.551 152.813C342.693 152.545 342.992 152.4 343.288 152.452Z" fill="#E95F28"/>
<defs>
<filter id="filter0_d" x="0" y="0" width="504" height="330" filterUnits="userSpaceOnUse" color-interpolation-filters="sRGB">
<feFlood flood-opacity="0" result="BackgroundImageFix"/>
<feColorMatrix in="SourceAlpha" type="matrix" values="0 0 0 0 0 0 0 0 0 0 0 0 0 0 0 0 0 0 127 0"/>
<feOffset dy="44"/>
<feGaussianBlur stdDeviation="50"/>
<feColorMatrix type="matrix" values="0 0 0 0 0.389063 0 0 0 0 0.360937 0 0 0 0 0.360937 0 0 0 0.25 0"/>
<feBlend mode="normal" in2="BackgroundImageFix" result="effect1_dropShadow"/>
<feBlend mode="normal" in="SourceGraphic" in2="effect1_dropShadow" result="shape"/>
</filter>
</defs>
</svg>
