<svg xmlns="http://www.w3.org/2000/svg" xmlns:xlink="http://www.w3.org/1999/xlink" width="453" height="330" fill="none" xmlns:v="https://vecta.io/nano"><style><![CDATA[.B{fill:#d4ab88}.C{fill:#dd2e44}.D{fill:#963b22}.E{fill:#a0041e}]]></style><g filter="url(#A)"><rect x="100" y="56" width="304" height="130" rx="10" fill="#fff"/></g><path d="M160.77 82v-7.12h.96l4.1 5.33-.27.14v-5.47h1.21V82h-.97l-4.08-5.31.26-.16V82h-1.21zm11.789-.56c-.24.2-.537.357-.89.47-.347.107-.7.16-1.06.16-.547 0-1.02-.103-1.42-.31a2.15 2.15 0 0 1-.91-.9c-.214-.393-.32-.86-.32-1.4 0-.52.103-.977.31-1.37a2.27 2.27 0 0 1 .86-.93c.366-.227.79-.34 1.27-.34.466 0 .866.103 1.2.31.333.2.59.49.77.87.186.38.28.83.28 1.35v.19h-3.59l.01-.67h2.84l-.34.34c.006-.487-.09-.857-.29-1.11-.194-.253-.477-.38-.85-.38-.4 0-.71.143-.93.43-.22.28-.33.683-.33 1.21 0 .6.123 1.043.37 1.33.246.28.62.42 1.12.42.273 0 .54-.043.8-.13a2.67 2.67 0 0 0 .74-.4l.36.86zm2.47.56l-1.98-5.05h1.29l1.42 3.91h-.25l1.43-3.91h.91l1.42 3.91h-.23l1.42-3.91h1.21l-1.98 5.05h-1.09l-1.54-4.07h.57l-1.51 4.07h-1.09z" fill="#c4c4c4"/><path d="M125.504 113.392V118h-1.312v-4.624l-4.48-6.768h1.536l3.616 5.6 3.616-5.6h1.504l-4.48 6.784zm11.316-3.44V118h-1.28v-1.456a2.58 2.58 0 0 1-1.072 1.168c-.469.267-1.018.4-1.648.4-.714 0-1.344-.171-1.888-.512-.533-.341-.949-.821-1.248-1.44-.288-.629-.432-1.36-.432-2.192s.15-1.563.448-2.192c.299-.64.715-1.136 1.248-1.488.544-.352 1.168-.528 1.872-.528.63 0 1.179.139 1.648.416a2.7 2.7 0 0 1 1.072 1.168v-1.392h1.28zm-3.744 7.088c.79 0 1.398-.267 1.824-.8.427-.544.64-1.312.64-2.304s-.213-1.755-.64-2.288-1.034-.8-1.824-.8-1.408.277-1.856.832c-.437.544-.656 1.307-.656 2.288s.219 1.739.656 2.272 1.056.8 1.856.8zm13.338-7.088V118h-1.28v-1.456c-.235.501-.592.891-1.072 1.168-.469.267-1.019.4-1.648.4-.715 0-1.344-.171-1.888-.512-.533-.341-.949-.821-1.248-1.44-.288-.629-.432-1.36-.432-2.192s.149-1.563.448-2.192c.299-.64.715-1.136 1.248-1.488.544-.352 1.168-.528 1.872-.528.629 0 1.179.139 1.648.416s.827.667 1.072 1.168v-1.392h1.28zm-3.744 7.088c.789 0 1.397-.267 1.824-.8.427-.544.64-1.312.64-2.304s-.213-1.755-.64-2.288-1.035-.8-1.824-.8-1.408.277-1.856.832c-.437.544-.656 1.307-.656 2.288s.219 1.739.656 2.272 1.056.8 1.856.8zm13.338-7.088V118h-1.28v-1.456c-.235.501-.592.891-1.072 1.168-.469.267-1.019.4-1.648.4-.715 0-1.344-.171-1.888-.512-.533-.341-.949-.821-1.248-1.44-.288-.629-.432-1.36-.432-2.192s.149-1.563.448-2.192c.299-.64.715-1.136 1.248-1.488.544-.352 1.168-.528 1.872-.528.629 0 1.179.139 1.648.416s.827.667 1.072 1.168v-1.392h1.28zm-3.744 7.088c.789 0 1.397-.267 1.824-.8.427-.544.64-1.312.64-2.304s-.213-1.755-.64-2.288-1.035-.8-1.824-.8-1.408.277-1.856.832c-.437.544-.656 1.307-.656 2.288s.219 1.739.656 2.272 1.056.8 1.856.8zm13.338-7.088V118h-1.28v-1.456c-.235.501-.592.891-1.072 1.168-.47.267-1.019.4-1.648.4-.715 0-1.344-.171-1.888-.512-.534-.341-.95-.821-1.248-1.44-.288-.629-.432-1.36-.432-2.192s.149-1.563.448-2.192c.298-.64.714-1.136 1.248-1.488.544-.352 1.168-.528 1.872-.528.629 0 1.178.139 1.648.416s.826.667 1.072 1.168v-1.392h1.28zm-3.744 7.088c.789 0 1.397-.267 1.824-.8.426-.544.64-1.312.64-2.304s-.214-1.755-.64-2.288-1.035-.8-1.824-.8-1.408.277-1.856.832c-.438.544-.656 1.307-.656 2.288s.218 1.739.656 2.272 1.056.8 1.856.8zm13.321-7.088l-3.76 8.784c-.394.917-.89 1.589-1.488 2.016s-1.333.72-2.208.88l-.272-1.008c.758-.171 1.328-.4 1.712-.688.395-.277.72-.709.976-1.296l.32-.72-3.408-7.968h1.36l2.72 6.64 2.752-6.64h1.296zm8.5 0l-3.76 8.784c-.394.917-.89 1.589-1.488 2.016s-1.333.72-2.208.88l-.272-1.008c.758-.171 1.328-.4 1.712-.688.395-.277.72-.709.976-1.296l.32-.72-3.408-7.968h1.36l2.72 6.64 2.752-6.64h1.296zm8.5 0l-3.76 8.784c-.394.917-.89 1.589-1.488 2.016s-1.333.72-2.208.88l-.272-1.008c.758-.171 1.328-.4 1.712-.688.395-.277.72-.709.976-1.296l.32-.72-3.408-7.968h1.36l2.72 6.64 2.752-6.64h1.296zm8.5 0l-3.76 8.784c-.394.917-.89 1.589-1.488 2.016s-1.333.72-2.208.88l-.272-1.008c.758-.171 1.328-.4 1.712-.688.395-.277.72-.709.976-1.296l.32-.72-3.408-7.968h1.36l2.72 6.64 2.752-6.64h1.296zm1.22-3.344h1.616l-.416 8.4h-.8l-.4-8.4zm1.632 9.744V118h-1.648v-1.648h1.648zm2.072-9.744h1.616l-.416 8.4h-.8l-.4-8.4zm1.632 9.744V118h-1.648v-1.648h1.648zm2.071-9.744h1.616l-.416 8.4h-.8l-.4-8.4zm1.632 9.744V118h-1.648v-1.648h1.648zm10.707-2.96V118h-1.312v-4.624l-4.48-6.768h1.536l3.616 5.6 3.616-5.6h1.504l-4.48 6.784zm10.964.544h-5.904c.011 1.024.245 1.797.704 2.32.469.523 1.147.784 2.032.784.939 0 1.803-.315 2.592-.944l.432.944c-.352.331-.805.592-1.36.784a5.01 5.01 0 0 1-1.68.288c-1.259 0-2.245-.368-2.96-1.104-.715-.747-1.072-1.765-1.072-3.056 0-.821.16-1.547.48-2.176a3.57 3.57 0 0 1 1.344-1.488c.576-.352 1.232-.528 1.968-.528 1.067 0 1.904.352 2.512 1.056.608.693.912 1.653.912 2.88v.24zm-3.408-3.168c-.672 0-1.221.203-1.648.608-.416.405-.683.976-.8 1.712h4.688c-.064-.757-.288-1.333-.672-1.728-.373-.395-.896-.592-1.568-.592zm8.095 7.344c-1.355 0-2.427-.347-3.216-1.04l.432-.96a4.46 4.46 0 0 0 1.328.736c.448.149.949.224 1.504.224.608 0 1.067-.101 1.376-.304a1.03 1.03 0 0 0 .48-.912c0-.32-.107-.576-.32-.768s-.565-.341-1.056-.448l-1.36-.32c-.672-.149-1.195-.416-1.568-.8-.363-.384-.544-.843-.544-1.376 0-.704.283-1.275.848-1.712.565-.448 1.312-.672 2.24-.672.565 0 1.099.091 1.6.272s.923.443 1.264.784l-.432.944c-.757-.629-1.568-.944-2.432-.944-.576 0-1.024.112-1.344.336a1.04 1.04 0 0 0-.464.912c0 .331.096.592.288.784.203.192.523.341.96.448l1.36.336c.747.171 1.301.437 1.664.8.363.352.544.816.544 1.392 0 .693-.283 1.248-.848 1.664s-1.333.624-2.304.624zm6.564-1.76v1.168c0 .448-.075.859-.224 1.232s-.4.736-.752 1.088l-.608-.464c.416-.48.65-.939.704-1.376h-.768v-1.648h1.648zm6.611-9.744h1.312V118h-1.312v-11.392zm20.36 3.344L267.855 118h-1.248l-2.304-6.288-2.288 6.288h-1.248l-2.976-8.048h1.36l2.272 6.496 2.352-6.496h1.136l2.32 6.512 2.32-6.512h1.28zm1.683 0h1.296V118h-1.296v-8.048zm1.456-3.408v1.472h-1.584v-1.472h1.584zm2.356-.32h1.296V118h-1.296v-11.776zm3.813 0h1.296V118h-1.296v-11.776zm12 3.536c.704 0 1.328.171 1.872.512s.965.827 1.264 1.456c.299.619.448 1.344.448 2.176s-.149 1.568-.448 2.208c-.299.629-.72 1.12-1.264 1.472s-1.168.528-1.872.528c-.629 0-1.179-.139-1.648-.416s-.827-.672-1.072-1.184V118h-1.296v-11.776h1.296v5.152a2.58 2.58 0 0 1 1.056-1.2c.48-.277 1.035-.416 1.664-.416zm-.24 7.28c.779 0 1.387-.272 1.824-.816.437-.555.656-1.328.656-2.32 0-.971-.219-1.723-.656-2.256-.427-.533-1.035-.8-1.824-.8-.8 0-1.413.267-1.84.8s-.64 1.296-.64 2.288.213 1.76.64 2.304c.427.533 1.04.8 1.84.8zm12.554-3.104h-5.904c.01 1.024.245 1.797.704 2.32.469.523 1.146.784 2.032.784.938 0 1.802-.315 2.592-.944l.432.944c-.352.331-.806.592-1.36.784a5.01 5.01 0 0 1-1.68.288c-1.259 0-2.246-.368-2.96-1.104-.715-.747-1.072-1.765-1.072-3.056 0-.821.16-1.547.48-2.176a3.57 3.57 0 0 1 1.344-1.488c.576-.352 1.232-.528 1.968-.528 1.066 0 1.904.352 2.512 1.056.608.693.912 1.653.912 2.88v.24zm-3.408-3.168c-.672 0-1.222.203-1.648.608-.416.405-.683.976-.8 1.712h4.688c-.064-.757-.288-1.333-.672-1.728-.374-.395-.896-.592-1.568-.592zm-177.077 31.344c-1.355 0-2.427-.347-3.216-1.04l.432-.96a4.46 4.46 0 0 0 1.328.736c.448.149.949.224 1.504.224.608 0 1.067-.101 1.376-.304a1.03 1.03 0 0 0 .48-.912c0-.32-.107-.576-.32-.768s-.565-.341-1.056-.448l-1.36-.32c-.672-.149-1.195-.416-1.568-.8-.363-.384-.544-.843-.544-1.376 0-.704.283-1.275.848-1.712.565-.448 1.312-.672 2.24-.672.565 0 1.099.091 1.6.272s.923.443 1.264.784l-.432.944c-.757-.629-1.568-.944-2.432-.944-.576 0-1.024.112-1.344.336a1.04 1.04 0 0 0-.464.912c0 .331.096.592.288.784.203.192.523.341.96.448l1.36.336c.747.171 1.301.437 1.664.8.363.352.544.816.544 1.392 0 .693-.283 1.248-.848 1.664s-1.333.624-2.304.624zm6.867-7.136v4.4c0 .597.123 1.019.368 1.264.246.235.592.352 1.04.352a2.62 2.62 0 0 0 .864-.144v1.104c-.33.107-.704.16-1.12.16-.768 0-1.37-.213-1.808-.64-.426-.437-.64-1.077-.64-1.92v-4.576h-1.568v-1.024h1.568v-2.064l1.296-.464v2.528h2.304v1.024h-2.304zm7.61-1.216a2.67 2.67 0 0 1 .736.096l-.032 1.184c-.245-.085-.528-.128-.848-.128-.779 0-1.36.245-1.744.736-.373.48-.56 1.067-.56 1.76V142h-1.296v-5.792a18.09 18.09 0 0 0-.128-2.256h1.232l.128 1.488c.203-.544.528-.96.976-1.248s.96-.432 1.536-.432zm8.633 4.176h-5.904c.01 1.024.245 1.797.704 2.32.469.523 1.146.784 2.032.784.938 0 1.802-.315 2.592-.944l.432.944c-.352.331-.806.592-1.36.784a5.01 5.01 0 0 1-1.68.288c-1.259 0-2.246-.368-2.96-1.104-.715-.747-1.072-1.765-1.072-3.056 0-.821.16-1.547.48-2.176a3.57 3.57 0 0 1 1.344-1.488c.576-.352 1.232-.528 1.968-.528 1.066 0 1.904.352 2.512 1.056.608.693.912 1.653.912 2.88v.24zm-3.408-3.168c-.672 0-1.222.203-1.648.608-.416.405-.683.976-.8 1.712h4.688c-.064-.757-.288-1.333-.672-1.728-.374-.395-.896-.592-1.568-.592zm12.463-.816V142h-1.28v-1.456c-.235.501-.592.891-1.072 1.168-.469.267-1.019.4-1.648.4-.715 0-1.344-.171-1.888-.512-.533-.341-.949-.821-1.248-1.44-.288-.629-.432-1.36-.432-2.192s.149-1.563.448-2.192c.299-.64.715-1.136 1.248-1.488.544-.352 1.168-.528 1.872-.528.629 0 1.179.139 1.648.416s.827.667 1.072 1.168v-1.392h1.28zm-3.744 7.088c.789 0 1.397-.267 1.824-.8.427-.544.64-1.312.64-2.304s-.213-1.755-.64-2.288-1.035-.8-1.824-.8-1.408.277-1.856.832c-.437.544-.656 1.307-.656 2.288s.219 1.739.656 2.272 1.056.8 1.856.8zm15.178-7.28c1.781 0 2.672 1.061 2.672 3.184V142h-1.296v-4.992c0-.757-.134-1.307-.4-1.648-.256-.341-.678-.512-1.264-.512-.683 0-1.216.229-1.6.688s-.576 1.083-.576 1.872V142h-1.296v-4.992c0-.747-.134-1.291-.4-1.632-.267-.352-.694-.528-1.28-.528-.683 0-1.222.229-1.616.688-.384.459-.576 1.083-.576 1.872V142h-1.296v-5.792a18.09 18.09 0 0 0-.128-2.256h1.232l.128 1.408c.224-.512.554-.907.992-1.184.448-.277.965-.416 1.552-.416.64 0 1.162.128 1.568.384s.704.651.896 1.184a2.74 2.74 0 0 1 1.072-1.136c.48-.288 1.018-.432 1.616-.432zm5.134.192h1.296V142h-1.296v-8.048zm1.456-3.408v1.472h-1.584v-1.472h1.584zm6.373 3.216c1.93 0 2.896 1.061 2.896 3.184V142h-1.296v-4.992c0-.747-.15-1.291-.448-1.632-.299-.352-.768-.528-1.408-.528-.747 0-1.344.229-1.792.688s-.672 1.077-.672 1.856V142h-1.296v-5.792a18.09 18.09 0 0 0-.128-2.256h1.232l.128 1.44c.245-.523.613-.923 1.104-1.2.49-.288 1.05-.432 1.68-.432zm12.511.192v7.984c0 1.195-.309 2.096-.928 2.704-.608.619-1.509.928-2.704.928-1.227 0-2.283-.277-3.168-.832l.224-1.056c.512.288.992.496 1.44.624.459.128.96.192 1.504.192.779 0 1.365-.208 1.76-.624.395-.405.592-1.013.592-1.824v-1.904c-.245.512-.608.912-1.088 1.2-.469.277-1.029.416-1.68.416-.704 0-1.333-.165-1.888-.496-.544-.331-.965-.8-1.264-1.408s-.448-1.307-.448-2.096.149-1.488.448-2.096.72-1.077 1.264-1.408c.555-.331 1.184-.496 1.888-.496.64 0 1.195.139 1.664.416.48.277.843.667 1.088 1.168v-1.392h1.296zm-3.792 6.72c.779 0 1.387-.256 1.824-.768.448-.523.672-1.237.672-2.144s-.224-1.616-.672-2.128c-.437-.523-1.045-.784-1.824-.784-.789 0-1.413.261-1.872.784-.448.512-.672 1.221-.672 2.128s.224 1.621.672 2.144c.459.512 1.083.768 1.872.768zm12.18-5.696v4.4c0 .597.123 1.019.368 1.264.245.235.592.352 1.04.352a2.62 2.62 0 0 0 .864-.144v1.104c-.331.107-.704.16-1.12.16-.768 0-1.371-.213-1.808-.64-.427-.437-.64-1.077-.64-1.92v-4.576h-1.568v-1.024h1.568v-2.064l1.296-.464v2.528h2.304v1.024h-2.304zm7.882-1.216c1.931 0 2.896 1.061 2.896 3.184V142h-1.296v-4.992c0-.747-.149-1.291-.448-1.632-.299-.352-.768-.528-1.408-.528-.747 0-1.344.229-1.792.688s-.672 1.077-.672 1.856V142h-1.296v-11.776h1.296v5.04c.256-.491.619-.864 1.088-1.12.48-.256 1.024-.384 1.632-.384zm12.079 4.176h-5.904c.011 1.024.246 1.797.704 2.32.47.523 1.147.784 2.032.784.939 0 1.803-.315 2.592-.944l.432.944c-.352.331-.805.592-1.36.784a5.01 5.01 0 0 1-1.68.288c-1.258 0-2.245-.368-2.96-1.104-.714-.747-1.072-1.765-1.072-3.056 0-.821.16-1.547.48-2.176a3.57 3.57 0 0 1 1.344-1.488c.576-.352 1.232-.528 1.968-.528 1.067 0 1.904.352 2.512 1.056.608.693.912 1.653.912 2.88v.24zm-3.408-3.168c-.672 0-1.221.203-1.648.608-.416.405-.682.976-.8 1.712h4.688c-.064-.757-.288-1.333-.672-1.728-.373-.395-.896-.592-1.568-.592zm16.283 3.168h-5.904c.011 1.024.246 1.797.704 2.32.47.523 1.147.784 2.032.784.939 0 1.803-.315 2.592-.944l.432.944c-.352.331-.805.592-1.36.784a5.01 5.01 0 0 1-1.68.288c-1.258 0-2.245-.368-2.96-1.104-.714-.747-1.072-1.765-1.072-3.056 0-.821.16-1.547.48-2.176a3.57 3.57 0 0 1 1.344-1.488c.576-.352 1.232-.528 1.968-.528 1.067 0 1.904.352 2.512 1.056.608.693.912 1.653.912 2.88v.24zm-3.408-3.168c-.672 0-1.221.203-1.648.608-.416.405-.682.976-.8 1.712h4.688c-.064-.757-.288-1.333-.672-1.728-.373-.395-.896-.592-1.568-.592zm12.354-.8L239.739 142h-1.232l-3.424-8.032h1.36l2.72 6.624 2.752-6.624h1.296zm8.07 3.968h-5.904c.011 1.024.245 1.797.704 2.32.469.523 1.147.784 2.032.784.939 0 1.803-.315 2.592-.944l.432.944c-.352.331-.805.592-1.36.784a5.01 5.01 0 0 1-1.68.288c-1.259 0-2.245-.368-2.96-1.104-.715-.747-1.072-1.765-1.072-3.056 0-.821.16-1.547.48-2.176a3.57 3.57 0 0 1 1.344-1.488c.576-.352 1.232-.528 1.968-.528 1.067 0 1.904.352 2.512 1.056.608.693.912 1.653.912 2.88v.24zm-3.408-3.168c-.672 0-1.221.203-1.648.608-.416.405-.683.976-.8 1.712h4.688c-.064-.757-.288-1.333-.672-1.728-.373-.395-.896-.592-1.568-.592zm9.391-1.008c1.931 0 2.896 1.061 2.896 3.184V142h-1.296v-4.992c0-.747-.149-1.291-.448-1.632-.299-.352-.768-.528-1.408-.528-.747 0-1.344.229-1.792.688s-.672 1.077-.672 1.856V142h-1.296v-5.792a18.09 18.09 0 0 0-.128-2.256h1.232l.128 1.44c.245-.523.613-.923 1.104-1.2.491-.288 1.051-.432 1.68-.432zm7.071 1.216v4.4c0 .597.123 1.019.368 1.264.246.235.592.352 1.04.352a2.62 2.62 0 0 0 .864-.144v1.104c-.33.107-.704.16-1.12.16-.768 0-1.37-.213-1.808-.64-.426-.437-.64-1.077-.64-1.92v-4.576h-1.568v-1.024h1.568v-2.064l1.296-.464v2.528h2.304v1.024h-2.304zm5.509 5.376V142h-1.648v-1.648h1.648zm6.611-9.744h1.312v10.272h5.712V142h-7.024v-11.392zm15.279 7.328h-5.904c.011 1.024.245 1.797.704 2.32.469.523 1.147.784 2.032.784.939 0 1.803-.315 2.592-.944l.432.944c-.352.331-.805.592-1.36.784a5.01 5.01 0 0 1-1.68.288c-1.259 0-2.245-.368-2.96-1.104-.715-.747-1.072-1.765-1.072-3.056 0-.821.16-1.547.48-2.176a3.57 3.57 0 0 1 1.344-1.488c.576-.352 1.232-.528 1.968-.528 1.067 0 1.904.352 2.512 1.056.608.693.912 1.653.912 2.88v.24zm-3.408-3.168c-.672 0-1.221.203-1.648.608-.416.405-.683.976-.8 1.712h4.688c-.064-.757-.288-1.333-.672-1.728-.373-.395-.896-.592-1.568-.592zm7.056.208v4.4c0 .597.123 1.019.368 1.264.246.235.592.352 1.04.352a2.62 2.62 0 0 0 .864-.144v1.104c-.33.107-.704.16-1.12.16-.768 0-1.37-.213-1.808-.64-.426-.437-.64-1.077-.64-1.92v-4.576h-1.568v-1.024h1.568v-2.064l1.296-.464v2.528h2.304v1.024h-2.304zm5.212-4.368v1.168c0 .448-.075.859-.224 1.232s-.4.741-.752 1.104l-.608-.48c.416-.48.651-.939.704-1.376h-.768v-1.648h1.648zm4.53 11.504c-1.354 0-2.426-.347-3.216-1.04l.432-.96c.438.341.88.587 1.328.736s.95.224 1.504.224c.608 0 1.067-.101 1.376-.304a1.03 1.03 0 0 0 .48-.912c0-.32-.106-.576-.32-.768s-.565-.341-1.056-.448l-1.36-.32c-.672-.149-1.194-.416-1.568-.8-.362-.384-.544-.843-.544-1.376 0-.704.283-1.275.848-1.712.566-.448 1.312-.672 2.24-.672a4.67 4.67 0 0 1 1.6.272c.502.181.923.443 1.264.784l-.432.944c-.757-.629-1.568-.944-2.432-.944-.576 0-1.024.112-1.344.336a1.04 1.04 0 0 0-.464.912c0 .331.096.592.288.784.203.192.523.341.96.448l1.36.336c.747.171 1.302.437 1.664.8.363.352.544.816.544 1.392a1.96 1.96 0 0 1-.848 1.664c-.565.416-1.333.624-2.304.624zm13.406-8.352c.704 0 1.328.171 1.872.512s.965.827 1.264 1.456c.298.619.448 1.344.448 2.176s-.15 1.568-.448 2.208c-.299.629-.72 1.12-1.264 1.472s-1.168.528-1.872.528c-.63 0-1.179-.139-1.648-.416a2.68 2.68 0 0 1-1.072-1.184V142h-1.296v-11.776h1.296v5.152a2.57 2.57 0 0 1 1.056-1.2c.48-.277 1.034-.416 1.664-.416zm-.24 7.28c.778 0 1.386-.272 1.824-.816.437-.555.656-1.328.656-2.32 0-.971-.219-1.723-.656-2.256-.427-.533-1.035-.8-1.824-.8-.8 0-1.414.267-1.84.8s-.64 1.296-.64 2.288.213 1.76.64 2.304c.426.533 1.04.8 1.84.8zm5.817-10.816h1.296V142h-1.296v-11.776zm7.141 11.888c-.757 0-1.424-.171-2-.512s-1.024-.827-1.344-1.456c-.309-.629-.464-1.365-.464-2.208s.155-1.579.464-2.208c.32-.629.768-1.115 1.344-1.456s1.243-.512 2-.512 1.424.171 2 .512a3.38 3.38 0 0 1 1.328 1.456c.32.629.48 1.365.48 2.208s-.16 1.579-.48 2.208a3.38 3.38 0 0 1-1.328 1.456c-.576.341-1.243.512-2 .512zm0-1.072c.8 0 1.413-.261 1.84-.784.427-.533.64-1.307.64-2.32 0-.981-.219-1.739-.656-2.272-.437-.544-1.045-.816-1.824-.816-.789 0-1.403.272-1.84.816-.437.533-.656 1.291-.656 2.272 0 1.013.213 1.787.64 2.32.437.523 1.056.784 1.856.784zm9.156 1.072c-.757 0-1.424-.171-2-.512s-1.024-.827-1.344-1.456c-.309-.629-.464-1.365-.464-2.208s.155-1.579.464-2.208c.32-.629.768-1.115 1.344-1.456s1.243-.512 2-.512 1.424.171 2 .512a3.38 3.38 0 0 1 1.328 1.456c.32.629.48 1.365.48 2.208s-.16 1.579-.48 2.208a3.38 3.38 0 0 1-1.328 1.456c-.576.341-1.243.512-2 .512zm0-1.072c.8 0 1.413-.261 1.84-.784.427-.533.64-1.307.64-2.32 0-.981-.219-1.739-.656-2.272-.437-.544-1.045-.816-1.824-.816-.789 0-1.403.272-1.84.816-.437.533-.656 1.291-.656 2.272 0 1.013.213 1.787.64 2.32.437.523 1.056.784 1.856.784zm12.807-7.072L349.739 142h-1.232l-3.424-8.032h1.36l2.72 6.624 2.752-6.624h1.296zM125.264 157.76c.704 0 1.328.171 1.872.512s.965.827 1.264 1.456c.299.619.448 1.344.448 2.176s-.149 1.568-.448 2.208c-.299.629-.72 1.12-1.264 1.472s-1.168.528-1.872.528c-.629 0-1.179-.139-1.648-.416s-.827-.672-1.072-1.184V166h-1.296v-11.776h1.296v5.152a2.58 2.58 0 0 1 1.056-1.2c.48-.277 1.035-.416 1.664-.416zm-.24 7.28c.779 0 1.387-.272 1.824-.816.437-.555.656-1.328.656-2.32 0-.971-.219-1.723-.656-2.256-.427-.533-1.035-.8-1.824-.8-.8 0-1.413.267-1.84.8s-.64 1.296-.64 2.288.213 1.76.64 2.304c.427.533 1.04.8 1.84.8zm12.906-7.088V166h-1.28v-1.456c-.235.501-.592.891-1.072 1.168-.47.267-1.019.4-1.648.4-.715 0-1.344-.171-1.888-.512-.534-.341-.95-.821-1.248-1.44-.288-.629-.432-1.36-.432-2.192s.149-1.563.448-2.192c.298-.64.714-1.136 1.248-1.488.544-.352 1.168-.528 1.872-.528.629 0 1.178.139 1.648.416s.826.667 1.072 1.168v-1.392h1.28zm-3.744 7.088c.789 0 1.397-.267 1.824-.8.426-.544.64-1.312.64-2.304s-.214-1.755-.64-2.288-1.035-.8-1.824-.8-1.408.277-1.856.832c-.438.544-.656 1.307-.656 2.288s.218 1.739.656 2.272 1.056.8 1.856.8zm10.266-7.28c.704 0 1.328.171 1.872.512s.965.827 1.264 1.456c.298.619.448 1.344.448 2.176s-.15 1.568-.448 2.208c-.299.629-.72 1.12-1.264 1.472s-1.168.528-1.872.528c-.63 0-1.179-.139-1.648-.416a2.68 2.68 0 0 1-1.072-1.184V166h-1.296v-11.776h1.296v5.152a2.57 2.57 0 0 1 1.056-1.2c.48-.277 1.034-.416 1.664-.416zm-.24 7.28c.778 0 1.386-.272 1.824-.816.437-.555.656-1.328.656-2.32 0-.971-.219-1.723-.656-2.256-.427-.533-1.035-.8-1.824-.8-.8 0-1.414.267-1.84.8s-.64 1.296-.64 2.288.213 1.76.64 2.304c.426.533 1.04.8 1.84.8zm12.796-7.088l-3.76 8.784c-.395.917-.891 1.589-1.488 2.016s-1.334.72-2.208.88l-.272-1.008c.757-.171 1.328-.4 1.712-.688.394-.277.72-.709.976-1.296l.32-.72-3.408-7.968h1.36l2.72 6.64 2.752-6.64h1.296zm12.767 0v7.984c0 1.195-.309 2.096-.928 2.704-.608.619-1.509.928-2.704.928-1.226 0-2.282-.277-3.168-.832l.224-1.056c.512.288.992.496 1.44.624.459.128.96.192 1.504.192.779 0 1.366-.208 1.76-.624.395-.405.592-1.013.592-1.824v-1.904c-.245.512-.608.912-1.088 1.2-.469.277-1.029.416-1.68.416-.704 0-1.333-.165-1.888-.496-.544-.331-.965-.8-1.264-1.408s-.448-1.307-.448-2.096.15-1.488.448-2.096.72-1.077 1.264-1.408c.555-.331 1.184-.496 1.888-.496.64 0 1.195.139 1.664.416.48.277.843.667 1.088 1.168v-1.392h1.296zm-3.792 6.72c.779 0 1.387-.256 1.824-.768.448-.523.672-1.237.672-2.144s-.224-1.616-.672-2.128c-.437-.523-1.045-.784-1.824-.784-.789 0-1.413.261-1.872.784-.448.512-.672 1.221-.672 2.128s.224 1.621.672 2.144c.459.512 1.083.768 1.872.768zm6.281-6.72h1.296V166h-1.296v-8.048zm1.456-3.408v1.472h-1.584v-1.472h1.584zm6.1 3.216a2.67 2.67 0 0 1 .736.096l-.032 1.184c-.245-.085-.528-.128-.848-.128-.779 0-1.36.245-1.744.736-.373.48-.56 1.067-.56 1.76V166h-1.296v-5.792a18.09 18.09 0 0 0-.128-2.256h1.232l.128 1.488c.203-.544.528-.96.976-1.248s.96-.432 1.536-.432zm2.053-3.536h1.296V166h-1.296v-11.776zm5.237 10.128V166h-1.648v-1.648h1.648z" fill="#646464"/><path d="M142.321 65c-1.478 0-2.678 1.239-2.678 2.765s1.2 2.765 2.678 2.765S145 69.291 145 67.765 143.8 65 142.321 65z" fill="#f60c0c"/><path fill-rule="evenodd" d="M138.438 76.547l-3.747 4.991a.95.95 0 0 1-1.232.281l-.117-.079-3.695-2.866-3.255 4.325c-.181.253-.465.415-.765.401-.22 0-.415-.08-.596-.201-.389-.296-.493-.845-.272-1.272l.079-.12 3.836-5.154a1 1 0 0 1 .649-.4 1 1 0 0 1 .739.214l3.593 2.918 3.136-4.189c.209-.294.558-.455.909-.415a.96.96 0 0 1 .79.589 1.03 1.03 0 0 1-.104 1.004l.052-.027zm-1.076-8.7c0-.335.026-.669.077-1.004h-10.436c-4.41 0-7.003 2.704-7.003 7.254v9.903c0 4.539 2.593 7.229 7.003 7.229h9.581c4.408 0 7.001-2.69 7.001-7.229v-10.8a5.81 5.81 0 0 1-.959.092c-2.905 0-5.264-2.435-5.264-5.446z" fill="#200e32"/><use xlink:href="#B" class="C"/><use xlink:href="#C" class="B"/><path d="M201.255 169.697h.911v.379h-.911v-.379z" class="C"/><use xlink:href="#D" class="B"/><use xlink:href="#E" class="D"/><use xlink:href="#F" class="B"/><use xlink:href="#G" class="D"/><use xlink:href="#H" class="B"/><use xlink:href="#I" class="C"/><use xlink:href="#J" class="E"/><use xlink:href="#K" class="C"/><use xlink:href="#L" class="B"/><use xlink:href="#B" x="24" class="C"/><use xlink:href="#C" x="24" class="B"/><path d="M225.255 169.697h.911v.379h-.911v-.379z" class="C"/><use xlink:href="#D" x="24" class="B"/><use xlink:href="#E" x="24" class="D"/><use xlink:href="#F" x="24" class="B"/><use xlink:href="#G" x="24" class="D"/><use xlink:href="#H" x="24" class="B"/><use xlink:href="#I" x="24" class="C"/><use xlink:href="#J" x="24" class="E"/><use xlink:href="#K" x="24" class="C"/><use xlink:href="#L" x="24" class="B"/><use xlink:href="#B" x="48" class="C"/><use xlink:href="#C" x="48" class="B"/><path d="M249.255 169.697h.911v.379h-.911v-.379z" class="C"/><path d="M255.158 163.131s2.111-1.331 2.402-1.347l1.488-.095c.84-.072 2.572-.39 2.724-.419s.215.018.56-.47-.029-.373-.029-.373-.237.171-.365.221-.376.101-.607.097l-4.789-.164c-.566.029-.86.023-1.078.392-.383.644-.329 1.83-.306 2.158z" class="B"/><use xlink:href="#E" x="48" class="D"/><use xlink:href="#F" x="48" class="B"/><use xlink:href="#G" x="48" class="D"/><use xlink:href="#H" x="48" class="B"/><use xlink:href="#I" x="48" class="C"/><use xlink:href="#J" x="48" class="E"/><path d="M262.914 160.14s-.282-.122-.524.186c-.048.063-.088.1-.088.1.027.042.018.088.003.127-.087.232-.315.406-.751.461-.182.022-.327.05-.457.08l.013-.353-.434-.012-.019.51c-.197.099-.26.203-.289.28-.064.17.371.371.642.45a2.6 2.6 0 0 0 .608.106c.163.004.758.131.758.131l.059-.157-.645-.26c-.132-.052-.053-.339.149-.37.538-.082.666-.045.748-.265l.299-.802c.055-.144-.072-.212-.072-.212z" class="C"/><use xlink:href="#L" x="48" class="B"/><defs><filter id="A" x="0" y="0" width="504" height="330" filterUnits="userSpaceOnUse" color-interpolation-filters="sRGB"><feFlood flood-opacity="0" result="A"/><feColorMatrix in="SourceAlpha" values="0 0 0 0 0 0 0 0 0 0 0 0 0 0 0 0 0 0 127 0"/><feOffset dy="44"/><feGaussianBlur stdDeviation="50"/><feColorMatrix values="0 0 0 0 0.389063 0 0 0 0 0.360937 0 0 0 0 0.360937 0 0 0 0.25 0"/><feBlend in2="A"/><feBlend in="SourceGraphic"/></filter><path id="B" d="M202.271 169.753c.034-.351-.199-.593-.504-.597h-.125c-.304.004-.537.246-.504.597.05.528-.011.817-.035 1.352-.016.393.198.873.602.869.403.004.618-.476.601-.869-.023-.535-.085-.824-.035-1.352z"/><path id="C" d="M202.347 167.009c0-.156-.325-.232-.642-.23s-.643.074-.642.23c0 0 .273 2.01.221 3.901-.005.167.208.256.421.258s.426-.091.421-.258c-.052-1.891.221-3.901.221-3.901z"/><path id="D" d="M207.158 163.131s2.111-1.331 2.402-1.347l1.488-.095c.84-.072 2.572-.39 2.724-.419s.215.018.56-.47-.029-.373-.029-.373-.237.171-.366.221-.375.101-.606.097l-4.789-.164c-.566.029-.86.023-1.078.392-.383.644-.329 1.83-.306 2.158z"/><path id="E" d="M201.694 151.583c.136-.22.359-.574 1.205-.351 1.279.338.13.934.13.934s1.335.583 1.335 2.332-1.565 1.381-1.565 3.225l-.239.311s.43-.255-.905.911c-2.67 2.332-4.527-.743-4.28-1.606.362-1.264-.353-1.092-.353-2.258s1.335-1.166 1.335-2.332 1.335-1.749 2.002-1.749 1.335.583 1.335.583z"/><path id="F" d="M200.776 155.664a1.75 1.75 0 0 0 1.752-1.749 1.75 1.75 0 1 0-3.504 0 1.75 1.75 0 0 0 1.752 1.749z"/><path id="G" d="M200.693 151.583c-.619 0-1.153.178-1.44.44-.737-.121-.319.885-.896 1.892-.668 1.166.667 2.332.667 1.749s0-2.332 1.335-2.332h.334c.922 0 1.668-.391 1.668-.874s-.746-.875-1.668-.875z"/><path id="H" d="M203.401 156.434c-.654-.195-1.122-.173-1.921-.183l-.288-2.264c-.041-.32-.375-.552-.737-.514s-.63.323-.589.643l.271 2.132-1.295.027.015 1.138c.006.153.057.343.167.583.668 1.458 4.005 1.741 4.005.292 0-.352-.032-.618-.1-.821.804.052 2.246-.505.472-1.033z"/><path id="I" d="M199.692 160.328c0 1.167 0 1.75-1.335 3.499s-2.67 1.749-3.337 2.915 0 1.166 1.335.583.667 2.332 2.669 2.332 1.335-1.749 2.67-1.749 2.002 1.749 3.337 1.749 1.723-1.41.668-2.332c-.668-.583 1.335-1.749 2.002-1.166 1.055.922 2.16-.446.667-1.749-.667-.583-1.194-1.228 0-1.749 1.335-.583 1.669-2.916 0-2.333-2.231.781-5.339 1.843-5.339 0v-2.332s-.907-.212-1.195-1.739l-.126-.003s-.374 2.037-1.883.004l-.141.001s.574 1.526-.434 2.199c-.068.044.442.704.442 1.87z"/><path id="J" d="M208.368 162.005c-.748.327-.821.702-.606 1.081.106-.148.298-.291.606-.425.835-.365 1.279-1.414 1.085-2.005-.125.525-.511 1.099-1.085 1.349zm-3.337 6.996c-1.335 0-2.002-1.749-3.337-1.749s-.667 1.749-2.67 1.749-1.335-2.915-2.669-2.332c-.721.315-1.237.451-1.463.333-.408.89.241.856 1.463.323 1.334-.583.667 2.332 2.669 2.332s1.335-1.749 2.67-1.749 2.002 1.749 3.337 1.749c.949 0 1.406-.713 1.22-1.455-.139.456-.563.799-1.22.799zm2.67-3.498c-.667-.583-2.67.583-2.002 1.166.009.008.014.017.022.026.409-.502 1.516-.941 1.98-.536.795.694 1.617.09 1.337-.808-.178.475-.763.653-1.337.152z"/><path id="K" d="M214.914 160.14s-.282-.122-.524.186c-.048.063-.088.1-.088.1.027.042.018.088.003.127-.086.232-.315.406-.751.461-.182.022-.327.05-.457.08l.013-.353-.434-.012-.019.51c-.197.099-.26.203-.289.28-.064.17.371.371.642.45a2.6 2.6 0 0 0 .608.106c.163.004.758.131.758.131l.059-.157-.645-.26c-.132-.052-.053-.339.15-.37.537-.082.665-.045.747-.265l.299-.802c.055-.144-.072-.212-.072-.212z"/><path id="L" d="M199.253 156.388c-.067-.046-.144-.077-.227-.094-.111-.023-.234-.02-.365.007l-1.049.188-1.488.278c-.199 0-1.011-.228-1.758-.313l-1.204-.113-.716-.087-.629-.131c-.291-.046-.775-.068-.803-.018-.117.215.51.136 1.027.532.303.232.611.222.904.204.232-.015.966.334 1.553.49l1.508.328c.136.017.865-.031 1.35-.064l1.254-.044c.324.018.567-.046.723-.19.195-.18.191-.433.186-.506-.016-.197-.11-.363-.266-.467zm7.474.778c-.112-.133-.377-.329-.942-.466-.439-.107-2.666-.367-3.103-.413-.339-.035-.132 1.055.04 1.147.11.059.243.064.445.082.816.073 2.044.016 2.264-.003.095-.008.139.022.146.075-.043.169-.192.39-.319.644l-.519 1.065-.074.059a1.32 1.32 0 0 0-.544.228c-.064.045-.123.1-.168.212-.063.156.113.175.156.081.018-.039.061-.107.159-.129-.003.018-.01.033-.01.054-.002.034-.012.062-.018.092-.153.23-.456.323-.435.412.005.019.032.02.054.025-.103.061-.183.103-.177.15.006.038.054.046.119.041-.047.031-.078.058-.074.087.017.122.371-.068.541-.128.289-.102.458-.21.658-.371.233-.187.345-.458.446-.609.074-.111.962-1.053 1.159-1.369.29-.465.308-.832.196-.966z"/></defs></svg>