<svg width="453" height="330" viewBox="0 0 453 330" fill="none" xmlns="http://www.w3.org/2000/svg">
<g filter="url(#filter0_d)">
<rect x="100" y="56" width="304" height="130" rx="10" fill="white"/>
</g>
<path d="M160.77 82V74.88H161.73L165.83 80.21L165.56 80.35V74.88H166.77V82H165.8L161.72 76.69L161.98 76.53V82H160.77ZM172.559 81.44C172.319 81.64 172.022 81.7967 171.669 81.91C171.322 82.0167 170.969 82.07 170.609 82.07C170.062 82.07 169.589 81.9667 169.189 81.76C168.795 81.5533 168.492 81.2533 168.279 80.86C168.065 80.4667 167.959 80 167.959 79.46C167.959 78.94 168.062 78.4833 168.269 78.09C168.475 77.69 168.762 77.38 169.129 77.16C169.495 76.9333 169.919 76.82 170.399 76.82C170.865 76.82 171.265 76.9233 171.599 77.13C171.932 77.33 172.189 77.62 172.369 78C172.555 78.38 172.649 78.83 172.649 79.35V79.54H169.059L169.069 78.87H171.909L171.569 79.21C171.575 78.7233 171.479 78.3533 171.279 78.1C171.085 77.8467 170.802 77.72 170.429 77.72C170.029 77.72 169.719 77.8633 169.499 78.15C169.279 78.43 169.169 78.8333 169.169 79.36C169.169 79.96 169.292 80.4033 169.539 80.69C169.785 80.97 170.159 81.11 170.659 81.11C170.932 81.11 171.199 81.0667 171.459 80.98C171.725 80.8867 171.972 80.7533 172.199 80.58L172.559 81.44ZM175.029 82L173.049 76.95H174.339L175.759 80.86H175.509L176.939 76.95H177.849L179.269 80.86H179.039L180.459 76.95H181.669L179.689 82H178.599L177.059 77.93H177.629L176.119 82H175.029Z" fill="#C4C4C4"/>
<path d="M125.504 113.392V118H124.192V113.376L119.712 106.608H121.248L124.864 112.208L128.48 106.608H129.984L125.504 113.392ZM136.82 109.952V118H135.54V116.544C135.306 117.045 134.948 117.435 134.468 117.712C133.999 117.979 133.45 118.112 132.82 118.112C132.106 118.112 131.476 117.941 130.932 117.6C130.399 117.259 129.983 116.779 129.684 116.16C129.396 115.531 129.252 114.8 129.252 113.968C129.252 113.136 129.402 112.405 129.7 111.776C129.999 111.136 130.415 110.64 130.948 110.288C131.492 109.936 132.116 109.76 132.82 109.76C133.45 109.76 133.999 109.899 134.468 110.176C134.938 110.453 135.295 110.843 135.54 111.344V109.952H136.82ZM133.076 117.04C133.866 117.04 134.474 116.773 134.9 116.24C135.327 115.696 135.54 114.928 135.54 113.936C135.54 112.944 135.327 112.181 134.9 111.648C134.474 111.115 133.866 110.848 133.076 110.848C132.287 110.848 131.668 111.125 131.22 111.68C130.783 112.224 130.564 112.987 130.564 113.968C130.564 114.949 130.783 115.707 131.22 116.24C131.658 116.773 132.276 117.04 133.076 117.04ZM146.414 109.952V118H145.134V116.544C144.899 117.045 144.542 117.435 144.062 117.712C143.593 117.979 143.043 118.112 142.414 118.112C141.699 118.112 141.07 117.941 140.526 117.6C139.993 117.259 139.577 116.779 139.278 116.16C138.99 115.531 138.846 114.8 138.846 113.968C138.846 113.136 138.995 112.405 139.294 111.776C139.593 111.136 140.009 110.64 140.542 110.288C141.086 109.936 141.71 109.76 142.414 109.76C143.043 109.76 143.593 109.899 144.062 110.176C144.531 110.453 144.889 110.843 145.134 111.344V109.952H146.414ZM142.67 117.04C143.459 117.04 144.067 116.773 144.494 116.24C144.921 115.696 145.134 114.928 145.134 113.936C145.134 112.944 144.921 112.181 144.494 111.648C144.067 111.115 143.459 110.848 142.67 110.848C141.881 110.848 141.262 111.125 140.814 111.68C140.377 112.224 140.158 112.987 140.158 113.968C140.158 114.949 140.377 115.707 140.814 116.24C141.251 116.773 141.87 117.04 142.67 117.04ZM156.008 109.952V118H154.728V116.544C154.493 117.045 154.136 117.435 153.656 117.712C153.187 117.979 152.637 118.112 152.008 118.112C151.293 118.112 150.664 117.941 150.12 117.6C149.587 117.259 149.171 116.779 148.872 116.16C148.584 115.531 148.44 114.8 148.44 113.968C148.44 113.136 148.589 112.405 148.888 111.776C149.187 111.136 149.603 110.64 150.136 110.288C150.68 109.936 151.304 109.76 152.008 109.76C152.637 109.76 153.187 109.899 153.656 110.176C154.125 110.453 154.483 110.843 154.728 111.344V109.952H156.008ZM152.264 117.04C153.053 117.04 153.661 116.773 154.088 116.24C154.515 115.696 154.728 114.928 154.728 113.936C154.728 112.944 154.515 112.181 154.088 111.648C153.661 111.115 153.053 110.848 152.264 110.848C151.475 110.848 150.856 111.125 150.408 111.68C149.971 112.224 149.752 112.987 149.752 113.968C149.752 114.949 149.971 115.707 150.408 116.24C150.845 116.773 151.464 117.04 152.264 117.04ZM165.602 109.952V118H164.322V116.544C164.087 117.045 163.73 117.435 163.25 117.712C162.78 117.979 162.231 118.112 161.602 118.112C160.887 118.112 160.258 117.941 159.714 117.6C159.18 117.259 158.764 116.779 158.466 116.16C158.178 115.531 158.034 114.8 158.034 113.968C158.034 113.136 158.183 112.405 158.482 111.776C158.78 111.136 159.196 110.64 159.73 110.288C160.274 109.936 160.898 109.76 161.602 109.76C162.231 109.76 162.78 109.899 163.25 110.176C163.719 110.453 164.076 110.843 164.322 111.344V109.952H165.602ZM161.858 117.04C162.647 117.04 163.255 116.773 163.682 116.24C164.108 115.696 164.322 114.928 164.322 113.936C164.322 112.944 164.108 112.181 163.682 111.648C163.255 111.115 162.647 110.848 161.858 110.848C161.068 110.848 160.45 111.125 160.002 111.68C159.564 112.224 159.346 112.987 159.346 113.968C159.346 114.949 159.564 115.707 160.002 116.24C160.439 116.773 161.058 117.04 161.858 117.04ZM175.179 109.952L171.419 118.736C171.025 119.653 170.529 120.325 169.931 120.752C169.334 121.179 168.598 121.472 167.723 121.632L167.451 120.624C168.209 120.453 168.779 120.224 169.163 119.936C169.558 119.659 169.883 119.227 170.139 118.64L170.459 117.92L167.051 109.952H168.411L171.131 116.592L173.883 109.952H175.179ZM183.679 109.952L179.919 118.736C179.525 119.653 179.029 120.325 178.431 120.752C177.834 121.179 177.098 121.472 176.223 121.632L175.951 120.624C176.709 120.453 177.279 120.224 177.663 119.936C178.058 119.659 178.383 119.227 178.639 118.64L178.959 117.92L175.551 109.952H176.911L179.631 116.592L182.383 109.952H183.679ZM192.179 109.952L188.419 118.736C188.025 119.653 187.529 120.325 186.931 120.752C186.334 121.179 185.598 121.472 184.723 121.632L184.451 120.624C185.209 120.453 185.779 120.224 186.163 119.936C186.558 119.659 186.883 119.227 187.139 118.64L187.459 117.92L184.051 109.952H185.411L188.131 116.592L190.883 109.952H192.179ZM200.679 109.952L196.919 118.736C196.525 119.653 196.029 120.325 195.431 120.752C194.834 121.179 194.098 121.472 193.223 121.632L192.951 120.624C193.709 120.453 194.279 120.224 194.663 119.936C195.058 119.659 195.383 119.227 195.639 118.64L195.959 117.92L192.551 109.952H193.911L196.631 116.592L199.383 109.952H200.679ZM201.899 106.608H203.515L203.099 115.008H202.299L201.899 106.608ZM203.531 116.352V118H201.883V116.352H203.531ZM205.603 106.608H207.219L206.803 115.008H206.003L205.603 106.608ZM207.235 116.352V118H205.587V116.352H207.235ZM209.306 106.608H210.922L210.506 115.008H209.706L209.306 106.608ZM210.938 116.352V118H209.29V116.352H210.938ZM221.645 113.392V118H220.333V113.376L215.853 106.608H217.389L221.005 112.208L224.621 106.608H226.125L221.645 113.392ZM232.609 113.936H226.705C226.716 114.96 226.95 115.733 227.409 116.256C227.878 116.779 228.556 117.04 229.441 117.04C230.38 117.04 231.244 116.725 232.033 116.096L232.465 117.04C232.113 117.371 231.66 117.632 231.105 117.824C230.561 118.016 230.001 118.112 229.425 118.112C228.166 118.112 227.18 117.744 226.465 117.008C225.75 116.261 225.393 115.243 225.393 113.952C225.393 113.131 225.553 112.405 225.873 111.776C226.193 111.136 226.641 110.64 227.217 110.288C227.793 109.936 228.449 109.76 229.185 109.76C230.252 109.76 231.089 110.112 231.697 110.816C232.305 111.509 232.609 112.469 232.609 113.696V113.936ZM229.201 110.768C228.529 110.768 227.98 110.971 227.553 111.376C227.137 111.781 226.87 112.352 226.753 113.088H231.441C231.377 112.331 231.153 111.755 230.769 111.36C230.396 110.965 229.873 110.768 229.201 110.768ZM237.296 118.112C235.941 118.112 234.869 117.765 234.08 117.072L234.512 116.112C234.949 116.453 235.392 116.699 235.84 116.848C236.288 116.997 236.789 117.072 237.344 117.072C237.952 117.072 238.411 116.971 238.72 116.768C239.04 116.555 239.2 116.251 239.2 115.856C239.2 115.536 239.093 115.28 238.88 115.088C238.667 114.896 238.315 114.747 237.824 114.64L236.464 114.32C235.792 114.171 235.269 113.904 234.896 113.52C234.533 113.136 234.352 112.677 234.352 112.144C234.352 111.44 234.635 110.869 235.2 110.432C235.765 109.984 236.512 109.76 237.44 109.76C238.005 109.76 238.539 109.851 239.04 110.032C239.541 110.213 239.963 110.475 240.304 110.816L239.872 111.76C239.115 111.131 238.304 110.816 237.44 110.816C236.864 110.816 236.416 110.928 236.096 111.152C235.787 111.365 235.632 111.669 235.632 112.064C235.632 112.395 235.728 112.656 235.92 112.848C236.123 113.04 236.443 113.189 236.88 113.296L238.24 113.632C238.987 113.803 239.541 114.069 239.904 114.432C240.267 114.784 240.448 115.248 240.448 115.824C240.448 116.517 240.165 117.072 239.6 117.488C239.035 117.904 238.267 118.112 237.296 118.112ZM243.86 116.352V117.52C243.86 117.968 243.785 118.379 243.636 118.752C243.486 119.125 243.236 119.488 242.884 119.84L242.276 119.376C242.692 118.896 242.926 118.437 242.98 118H242.212V116.352H243.86ZM250.471 106.608H251.783V118H250.471V106.608ZM270.831 109.952L267.855 118H266.607L264.303 111.712L262.015 118H260.767L257.791 109.952H259.151L261.423 116.448L263.775 109.952H264.911L267.231 116.464L269.551 109.952H270.831ZM272.514 109.952H273.81V118H272.514V109.952ZM273.97 106.544V108.016H272.386V106.544H273.97ZM276.326 106.224H277.622V118H276.326V106.224ZM280.139 106.224H281.435V118H280.139V106.224ZM292.139 109.76C292.843 109.76 293.467 109.931 294.011 110.272C294.555 110.613 294.976 111.099 295.275 111.728C295.574 112.347 295.723 113.072 295.723 113.904C295.723 114.736 295.574 115.472 295.275 116.112C294.976 116.741 294.555 117.232 294.011 117.584C293.467 117.936 292.843 118.112 292.139 118.112C291.51 118.112 290.96 117.973 290.491 117.696C290.022 117.419 289.664 117.024 289.419 116.512V118H288.123V106.224H289.419V111.376C289.654 110.853 290.006 110.453 290.475 110.176C290.955 109.899 291.51 109.76 292.139 109.76ZM291.899 117.04C292.678 117.04 293.286 116.768 293.723 116.224C294.16 115.669 294.379 114.896 294.379 113.904C294.379 112.933 294.16 112.181 293.723 111.648C293.296 111.115 292.688 110.848 291.899 110.848C291.099 110.848 290.486 111.115 290.059 111.648C289.632 112.181 289.419 112.944 289.419 113.936C289.419 114.928 289.632 115.696 290.059 116.24C290.486 116.773 291.099 117.04 291.899 117.04ZM304.453 113.936H298.549C298.559 114.96 298.794 115.733 299.253 116.256C299.722 116.779 300.399 117.04 301.285 117.04C302.223 117.04 303.087 116.725 303.877 116.096L304.309 117.04C303.957 117.371 303.503 117.632 302.949 117.824C302.405 118.016 301.845 118.112 301.269 118.112C300.01 118.112 299.023 117.744 298.309 117.008C297.594 116.261 297.237 115.243 297.237 113.952C297.237 113.131 297.397 112.405 297.717 111.776C298.037 111.136 298.485 110.64 299.061 110.288C299.637 109.936 300.293 109.76 301.029 109.76C302.095 109.76 302.933 110.112 303.541 110.816C304.149 111.509 304.453 112.469 304.453 113.696V113.936ZM301.045 110.768C300.373 110.768 299.823 110.971 299.397 111.376C298.981 111.781 298.714 112.352 298.597 113.088H303.285C303.221 112.331 302.997 111.755 302.613 111.36C302.239 110.965 301.717 110.768 301.045 110.768ZM123.968 142.112C122.613 142.112 121.541 141.765 120.752 141.072L121.184 140.112C121.621 140.453 122.064 140.699 122.512 140.848C122.96 140.997 123.461 141.072 124.016 141.072C124.624 141.072 125.083 140.971 125.392 140.768C125.712 140.555 125.872 140.251 125.872 139.856C125.872 139.536 125.765 139.28 125.552 139.088C125.339 138.896 124.987 138.747 124.496 138.64L123.136 138.32C122.464 138.171 121.941 137.904 121.568 137.52C121.205 137.136 121.024 136.677 121.024 136.144C121.024 135.44 121.307 134.869 121.872 134.432C122.437 133.984 123.184 133.76 124.112 133.76C124.677 133.76 125.211 133.851 125.712 134.032C126.213 134.213 126.635 134.475 126.976 134.816L126.544 135.76C125.787 135.131 124.976 134.816 124.112 134.816C123.536 134.816 123.088 134.928 122.768 135.152C122.459 135.365 122.304 135.669 122.304 136.064C122.304 136.395 122.4 136.656 122.592 136.848C122.795 137.04 123.115 137.189 123.552 137.296L124.912 137.632C125.659 137.803 126.213 138.069 126.576 138.432C126.939 138.784 127.12 139.248 127.12 139.824C127.12 140.517 126.837 141.072 126.272 141.488C125.707 141.904 124.939 142.112 123.968 142.112ZM130.835 134.976V139.376C130.835 139.973 130.958 140.395 131.203 140.64C131.449 140.875 131.795 140.992 132.243 140.992C132.542 140.992 132.83 140.944 133.107 140.848V141.952C132.777 142.059 132.403 142.112 131.987 142.112C131.219 142.112 130.617 141.899 130.179 141.472C129.753 141.035 129.539 140.395 129.539 139.552V134.976H127.971V133.952H129.539V131.888L130.835 131.424V133.952H133.139V134.976H130.835ZM138.445 133.76C138.712 133.76 138.957 133.792 139.181 133.856L139.149 135.04C138.904 134.955 138.621 134.912 138.301 134.912C137.522 134.912 136.941 135.157 136.557 135.648C136.184 136.128 135.997 136.715 135.997 137.408V142H134.701V136.208C134.701 135.376 134.658 134.624 134.573 133.952H135.805L135.933 135.44C136.136 134.896 136.461 134.48 136.909 134.192C137.357 133.904 137.869 133.76 138.445 133.76ZM147.078 137.936H141.174C141.184 138.96 141.419 139.733 141.878 140.256C142.347 140.779 143.024 141.04 143.91 141.04C144.848 141.04 145.712 140.725 146.502 140.096L146.934 141.04C146.582 141.371 146.128 141.632 145.574 141.824C145.03 142.016 144.47 142.112 143.894 142.112C142.635 142.112 141.648 141.744 140.934 141.008C140.219 140.261 139.862 139.243 139.862 137.952C139.862 137.131 140.022 136.405 140.342 135.776C140.662 135.136 141.11 134.64 141.686 134.288C142.262 133.936 142.918 133.76 143.654 133.76C144.72 133.76 145.558 134.112 146.166 134.816C146.774 135.509 147.078 136.469 147.078 137.696V137.936ZM143.67 134.768C142.998 134.768 142.448 134.971 142.022 135.376C141.606 135.781 141.339 136.352 141.222 137.088H145.91C145.846 136.331 145.622 135.755 145.238 135.36C144.864 134.965 144.342 134.768 143.67 134.768ZM156.133 133.952V142H154.853V140.544C154.618 141.045 154.261 141.435 153.781 141.712C153.312 141.979 152.762 142.112 152.133 142.112C151.418 142.112 150.789 141.941 150.245 141.6C149.712 141.259 149.296 140.779 148.997 140.16C148.709 139.531 148.565 138.8 148.565 137.968C148.565 137.136 148.714 136.405 149.013 135.776C149.312 135.136 149.728 134.64 150.261 134.288C150.805 133.936 151.429 133.76 152.133 133.76C152.762 133.76 153.312 133.899 153.781 134.176C154.25 134.453 154.608 134.843 154.853 135.344V133.952H156.133ZM152.389 141.04C153.178 141.04 153.786 140.773 154.213 140.24C154.64 139.696 154.853 138.928 154.853 137.936C154.853 136.944 154.64 136.181 154.213 135.648C153.786 135.115 153.178 134.848 152.389 134.848C151.6 134.848 150.981 135.125 150.533 135.68C150.096 136.224 149.877 136.987 149.877 137.968C149.877 138.949 150.096 139.707 150.533 140.24C150.97 140.773 151.589 141.04 152.389 141.04ZM167.567 133.76C169.348 133.76 170.239 134.821 170.239 136.944V142H168.943V137.008C168.943 136.251 168.809 135.701 168.543 135.36C168.287 135.019 167.865 134.848 167.279 134.848C166.596 134.848 166.063 135.077 165.679 135.536C165.295 135.995 165.103 136.619 165.103 137.408V142H163.807V137.008C163.807 136.261 163.673 135.717 163.407 135.376C163.14 135.024 162.713 134.848 162.127 134.848C161.444 134.848 160.905 135.077 160.511 135.536C160.127 135.995 159.935 136.619 159.935 137.408V142H158.639V136.208C158.639 135.376 158.596 134.624 158.511 133.952H159.743L159.871 135.36C160.095 134.848 160.425 134.453 160.863 134.176C161.311 133.899 161.828 133.76 162.415 133.76C163.055 133.76 163.577 133.888 163.983 134.144C164.388 134.4 164.687 134.795 164.879 135.328C165.124 134.848 165.481 134.469 165.951 134.192C166.431 133.904 166.969 133.76 167.567 133.76ZM172.701 133.952H173.997V142H172.701V133.952ZM174.157 130.544V132.016H172.573V130.544H174.157ZM180.53 133.76C182.46 133.76 183.426 134.821 183.426 136.944V142H182.13V137.008C182.13 136.261 181.98 135.717 181.682 135.376C181.383 135.024 180.914 134.848 180.274 134.848C179.527 134.848 178.93 135.077 178.482 135.536C178.034 135.995 177.81 136.613 177.81 137.392V142H176.514V136.208C176.514 135.376 176.471 134.624 176.386 133.952H177.618L177.746 135.392C177.991 134.869 178.359 134.469 178.85 134.192C179.34 133.904 179.9 133.76 180.53 133.76ZM193.041 133.952V141.936C193.041 143.131 192.732 144.032 192.113 144.64C191.505 145.259 190.604 145.568 189.409 145.568C188.182 145.568 187.126 145.291 186.241 144.736L186.465 143.68C186.977 143.968 187.457 144.176 187.905 144.304C188.364 144.432 188.865 144.496 189.409 144.496C190.188 144.496 190.774 144.288 191.169 143.872C191.564 143.467 191.761 142.859 191.761 142.048V140.144C191.516 140.656 191.153 141.056 190.673 141.344C190.204 141.621 189.644 141.76 188.993 141.76C188.289 141.76 187.66 141.595 187.105 141.264C186.561 140.933 186.14 140.464 185.841 139.856C185.542 139.248 185.393 138.549 185.393 137.76C185.393 136.971 185.542 136.272 185.841 135.664C186.14 135.056 186.561 134.587 187.105 134.256C187.66 133.925 188.289 133.76 188.993 133.76C189.633 133.76 190.188 133.899 190.657 134.176C191.137 134.453 191.5 134.843 191.745 135.344V133.952H193.041ZM189.249 140.672C190.028 140.672 190.636 140.416 191.073 139.904C191.521 139.381 191.745 138.667 191.745 137.76C191.745 136.853 191.521 136.144 191.073 135.632C190.636 135.109 190.028 134.848 189.249 134.848C188.46 134.848 187.836 135.109 187.377 135.632C186.929 136.144 186.705 136.853 186.705 137.76C186.705 138.667 186.929 139.381 187.377 139.904C187.836 140.416 188.46 140.672 189.249 140.672ZM201.429 134.976V139.376C201.429 139.973 201.552 140.395 201.797 140.64C202.042 140.875 202.389 140.992 202.837 140.992C203.136 140.992 203.424 140.944 203.701 140.848V141.952C203.37 142.059 202.997 142.112 202.581 142.112C201.813 142.112 201.21 141.899 200.773 141.472C200.346 141.035 200.133 140.395 200.133 139.552V134.976H198.565V133.952H200.133V131.888L201.429 131.424V133.952H203.733V134.976H201.429ZM209.311 133.76C211.242 133.76 212.207 134.821 212.207 136.944V142H210.911V137.008C210.911 136.261 210.762 135.717 210.463 135.376C210.164 135.024 209.695 134.848 209.055 134.848C208.308 134.848 207.711 135.077 207.263 135.536C206.815 135.995 206.591 136.613 206.591 137.392V142H205.295V130.224H206.591V135.264C206.847 134.773 207.21 134.4 207.679 134.144C208.159 133.888 208.703 133.76 209.311 133.76ZM221.39 137.936H215.486C215.497 138.96 215.732 139.733 216.19 140.256C216.66 140.779 217.337 141.04 218.222 141.04C219.161 141.04 220.025 140.725 220.814 140.096L221.246 141.04C220.894 141.371 220.441 141.632 219.886 141.824C219.342 142.016 218.782 142.112 218.206 142.112C216.948 142.112 215.961 141.744 215.246 141.008C214.532 140.261 214.174 139.243 214.174 137.952C214.174 137.131 214.334 136.405 214.654 135.776C214.974 135.136 215.422 134.64 215.998 134.288C216.574 133.936 217.23 133.76 217.966 133.76C219.033 133.76 219.87 134.112 220.478 134.816C221.086 135.509 221.39 136.469 221.39 137.696V137.936ZM217.982 134.768C217.31 134.768 216.761 134.971 216.334 135.376C215.918 135.781 215.652 136.352 215.534 137.088H220.222C220.158 136.331 219.934 135.755 219.55 135.36C219.177 134.965 218.654 134.768 217.982 134.768ZM234.265 137.936H228.361C228.372 138.96 228.607 139.733 229.065 140.256C229.535 140.779 230.212 141.04 231.097 141.04C232.036 141.04 232.9 140.725 233.689 140.096L234.121 141.04C233.769 141.371 233.316 141.632 232.761 141.824C232.217 142.016 231.657 142.112 231.081 142.112C229.823 142.112 228.836 141.744 228.121 141.008C227.407 140.261 227.049 139.243 227.049 137.952C227.049 137.131 227.209 136.405 227.529 135.776C227.849 135.136 228.297 134.64 228.873 134.288C229.449 133.936 230.105 133.76 230.841 133.76C231.908 133.76 232.745 134.112 233.353 134.816C233.961 135.509 234.265 136.469 234.265 137.696V137.936ZM230.857 134.768C230.185 134.768 229.636 134.971 229.209 135.376C228.793 135.781 228.527 136.352 228.409 137.088H233.097C233.033 136.331 232.809 135.755 232.425 135.36C232.052 134.965 231.529 134.768 230.857 134.768ZM243.211 133.968L239.739 142H238.507L235.083 133.968H236.443L239.163 140.592L241.915 133.968H243.211ZM251.281 137.936H245.377C245.388 138.96 245.622 139.733 246.081 140.256C246.55 140.779 247.228 141.04 248.113 141.04C249.052 141.04 249.916 140.725 250.705 140.096L251.137 141.04C250.785 141.371 250.332 141.632 249.777 141.824C249.233 142.016 248.673 142.112 248.097 142.112C246.838 142.112 245.852 141.744 245.137 141.008C244.422 140.261 244.065 139.243 244.065 137.952C244.065 137.131 244.225 136.405 244.545 135.776C244.865 135.136 245.313 134.64 245.889 134.288C246.465 133.936 247.121 133.76 247.857 133.76C248.924 133.76 249.761 134.112 250.369 134.816C250.977 135.509 251.281 136.469 251.281 137.696V137.936ZM247.873 134.768C247.201 134.768 246.652 134.971 246.225 135.376C245.809 135.781 245.542 136.352 245.425 137.088H250.113C250.049 136.331 249.825 135.755 249.441 135.36C249.068 134.965 248.545 134.768 247.873 134.768ZM257.264 133.76C259.195 133.76 260.16 134.821 260.16 136.944V142H258.864V137.008C258.864 136.261 258.715 135.717 258.416 135.376C258.117 135.024 257.648 134.848 257.008 134.848C256.261 134.848 255.664 135.077 255.216 135.536C254.768 135.995 254.544 136.613 254.544 137.392V142H253.248V136.208C253.248 135.376 253.205 134.624 253.12 133.952H254.352L254.48 135.392C254.725 134.869 255.093 134.469 255.584 134.192C256.075 133.904 256.635 133.76 257.264 133.76ZM264.335 134.976V139.376C264.335 139.973 264.458 140.395 264.703 140.64C264.949 140.875 265.295 140.992 265.743 140.992C266.042 140.992 266.33 140.944 266.607 140.848V141.952C266.277 142.059 265.903 142.112 265.487 142.112C264.719 142.112 264.117 141.899 263.679 141.472C263.253 141.035 263.039 140.395 263.039 139.552V134.976H261.471V133.952H263.039V131.888L264.335 131.424V133.952H266.639V134.976H264.335ZM269.844 140.352V142H268.196V140.352H269.844ZM276.455 130.608H277.767V140.88H283.479V142H276.455V130.608ZM291.734 137.936H285.83C285.841 138.96 286.075 139.733 286.534 140.256C287.003 140.779 287.681 141.04 288.566 141.04C289.505 141.04 290.369 140.725 291.158 140.096L291.59 141.04C291.238 141.371 290.785 141.632 290.23 141.824C289.686 142.016 289.126 142.112 288.55 142.112C287.291 142.112 286.305 141.744 285.59 141.008C284.875 140.261 284.518 139.243 284.518 137.952C284.518 137.131 284.678 136.405 284.998 135.776C285.318 135.136 285.766 134.64 286.342 134.288C286.918 133.936 287.574 133.76 288.31 133.76C289.377 133.76 290.214 134.112 290.822 134.816C291.43 135.509 291.734 136.469 291.734 137.696V137.936ZM288.326 134.768C287.654 134.768 287.105 134.971 286.678 135.376C286.262 135.781 285.995 136.352 285.878 137.088H290.566C290.502 136.331 290.278 135.755 289.894 135.36C289.521 134.965 288.998 134.768 288.326 134.768ZM295.382 134.976V139.376C295.382 139.973 295.505 140.395 295.75 140.64C295.996 140.875 296.342 140.992 296.79 140.992C297.089 140.992 297.377 140.944 297.654 140.848V141.952C297.324 142.059 296.95 142.112 296.534 142.112C295.766 142.112 295.164 141.899 294.726 141.472C294.3 141.035 294.086 140.395 294.086 139.552V134.976H292.518V133.952H294.086V131.888L295.382 131.424V133.952H297.686V134.976H295.382ZM300.594 130.608V131.776C300.594 132.224 300.519 132.635 300.37 133.008C300.221 133.381 299.97 133.749 299.618 134.112L299.01 133.632C299.426 133.152 299.661 132.693 299.714 132.256H298.946V130.608H300.594ZM305.124 142.112C303.77 142.112 302.698 141.765 301.908 141.072L302.34 140.112C302.778 140.453 303.22 140.699 303.668 140.848C304.116 140.997 304.618 141.072 305.172 141.072C305.78 141.072 306.239 140.971 306.548 140.768C306.868 140.555 307.028 140.251 307.028 139.856C307.028 139.536 306.922 139.28 306.708 139.088C306.495 138.896 306.143 138.747 305.652 138.64L304.292 138.32C303.62 138.171 303.098 137.904 302.724 137.52C302.362 137.136 302.18 136.677 302.18 136.144C302.18 135.44 302.463 134.869 303.028 134.432C303.594 133.984 304.34 133.76 305.268 133.76C305.834 133.76 306.367 133.851 306.868 134.032C307.37 134.213 307.791 134.475 308.132 134.816L307.7 135.76C306.943 135.131 306.132 134.816 305.268 134.816C304.692 134.816 304.244 134.928 303.924 135.152C303.615 135.365 303.46 135.669 303.46 136.064C303.46 136.395 303.556 136.656 303.748 136.848C303.951 137.04 304.271 137.189 304.708 137.296L306.068 137.632C306.815 137.803 307.37 138.069 307.732 138.432C308.095 138.784 308.276 139.248 308.276 139.824C308.276 140.517 307.994 141.072 307.428 141.488C306.863 141.904 306.095 142.112 305.124 142.112ZM318.53 133.76C319.234 133.76 319.858 133.931 320.402 134.272C320.946 134.613 321.367 135.099 321.666 135.728C321.964 136.347 322.114 137.072 322.114 137.904C322.114 138.736 321.964 139.472 321.666 140.112C321.367 140.741 320.946 141.232 320.402 141.584C319.858 141.936 319.234 142.112 318.53 142.112C317.9 142.112 317.351 141.973 316.882 141.696C316.412 141.419 316.055 141.024 315.81 140.512V142H314.514V130.224H315.81V135.376C316.044 134.853 316.396 134.453 316.866 134.176C317.346 133.899 317.9 133.76 318.53 133.76ZM318.29 141.04C319.068 141.04 319.676 140.768 320.114 140.224C320.551 139.669 320.77 138.896 320.77 137.904C320.77 136.933 320.551 136.181 320.114 135.648C319.687 135.115 319.079 134.848 318.29 134.848C317.49 134.848 316.876 135.115 316.45 135.648C316.023 136.181 315.81 136.944 315.81 137.936C315.81 138.928 316.023 139.696 316.45 140.24C316.876 140.773 317.49 141.04 318.29 141.04ZM324.107 130.224H325.403V142H324.107V130.224ZM331.248 142.112C330.491 142.112 329.824 141.941 329.248 141.6C328.672 141.259 328.224 140.773 327.904 140.144C327.595 139.515 327.44 138.779 327.44 137.936C327.44 137.093 327.595 136.357 327.904 135.728C328.224 135.099 328.672 134.613 329.248 134.272C329.824 133.931 330.491 133.76 331.248 133.76C332.005 133.76 332.672 133.931 333.248 134.272C333.824 134.613 334.267 135.099 334.576 135.728C334.896 136.357 335.056 137.093 335.056 137.936C335.056 138.779 334.896 139.515 334.576 140.144C334.267 140.773 333.824 141.259 333.248 141.6C332.672 141.941 332.005 142.112 331.248 142.112ZM331.248 141.04C332.048 141.04 332.661 140.779 333.088 140.256C333.515 139.723 333.728 138.949 333.728 137.936C333.728 136.955 333.509 136.197 333.072 135.664C332.635 135.12 332.027 134.848 331.248 134.848C330.459 134.848 329.845 135.12 329.408 135.664C328.971 136.197 328.752 136.955 328.752 137.936C328.752 138.949 328.965 139.723 329.392 140.256C329.829 140.779 330.448 141.04 331.248 141.04ZM340.404 142.112C339.647 142.112 338.98 141.941 338.404 141.6C337.828 141.259 337.38 140.773 337.06 140.144C336.751 139.515 336.596 138.779 336.596 137.936C336.596 137.093 336.751 136.357 337.06 135.728C337.38 135.099 337.828 134.613 338.404 134.272C338.98 133.931 339.647 133.76 340.404 133.76C341.161 133.76 341.828 133.931 342.404 134.272C342.98 134.613 343.423 135.099 343.732 135.728C344.052 136.357 344.212 137.093 344.212 137.936C344.212 138.779 344.052 139.515 343.732 140.144C343.423 140.773 342.98 141.259 342.404 141.6C341.828 141.941 341.161 142.112 340.404 142.112ZM340.404 141.04C341.204 141.04 341.817 140.779 342.244 140.256C342.671 139.723 342.884 138.949 342.884 137.936C342.884 136.955 342.665 136.197 342.228 135.664C341.791 135.12 341.183 134.848 340.404 134.848C339.615 134.848 339.001 135.12 338.564 135.664C338.127 136.197 337.908 136.955 337.908 137.936C337.908 138.949 338.121 139.723 338.548 140.256C338.985 140.779 339.604 141.04 340.404 141.04ZM353.211 133.968L349.739 142H348.507L345.083 133.968H346.443L349.163 140.592L351.915 133.968H353.211ZM125.264 157.76C125.968 157.76 126.592 157.931 127.136 158.272C127.68 158.613 128.101 159.099 128.4 159.728C128.699 160.347 128.848 161.072 128.848 161.904C128.848 162.736 128.699 163.472 128.4 164.112C128.101 164.741 127.68 165.232 127.136 165.584C126.592 165.936 125.968 166.112 125.264 166.112C124.635 166.112 124.085 165.973 123.616 165.696C123.147 165.419 122.789 165.024 122.544 164.512V166H121.248V154.224H122.544V159.376C122.779 158.853 123.131 158.453 123.6 158.176C124.08 157.899 124.635 157.76 125.264 157.76ZM125.024 165.04C125.803 165.04 126.411 164.768 126.848 164.224C127.285 163.669 127.504 162.896 127.504 161.904C127.504 160.933 127.285 160.181 126.848 159.648C126.421 159.115 125.813 158.848 125.024 158.848C124.224 158.848 123.611 159.115 123.184 159.648C122.757 160.181 122.544 160.944 122.544 161.936C122.544 162.928 122.757 163.696 123.184 164.24C123.611 164.773 124.224 165.04 125.024 165.04ZM137.93 157.952V166H136.65V164.544C136.415 165.045 136.058 165.435 135.578 165.712C135.108 165.979 134.559 166.112 133.93 166.112C133.215 166.112 132.586 165.941 132.042 165.6C131.508 165.259 131.092 164.779 130.794 164.16C130.506 163.531 130.362 162.8 130.362 161.968C130.362 161.136 130.511 160.405 130.81 159.776C131.108 159.136 131.524 158.64 132.058 158.288C132.602 157.936 133.226 157.76 133.93 157.76C134.559 157.76 135.108 157.899 135.578 158.176C136.047 158.453 136.404 158.843 136.65 159.344V157.952H137.93ZM134.186 165.04C134.975 165.04 135.583 164.773 136.01 164.24C136.436 163.696 136.65 162.928 136.65 161.936C136.65 160.944 136.436 160.181 136.01 159.648C135.583 159.115 134.975 158.848 134.186 158.848C133.396 158.848 132.778 159.125 132.33 159.68C131.892 160.224 131.674 160.987 131.674 161.968C131.674 162.949 131.892 163.707 132.33 164.24C132.767 164.773 133.386 165.04 134.186 165.04ZM144.452 157.76C145.156 157.76 145.78 157.931 146.324 158.272C146.868 158.613 147.289 159.099 147.588 159.728C147.886 160.347 148.036 161.072 148.036 161.904C148.036 162.736 147.886 163.472 147.588 164.112C147.289 164.741 146.868 165.232 146.324 165.584C145.78 165.936 145.156 166.112 144.452 166.112C143.822 166.112 143.273 165.973 142.804 165.696C142.334 165.419 141.977 165.024 141.732 164.512V166H140.436V154.224H141.732V159.376C141.966 158.853 142.318 158.453 142.788 158.176C143.268 157.899 143.822 157.76 144.452 157.76ZM144.212 165.04C144.99 165.04 145.598 164.768 146.036 164.224C146.473 163.669 146.692 162.896 146.692 161.904C146.692 160.933 146.473 160.181 146.036 159.648C145.609 159.115 145.001 158.848 144.212 158.848C143.412 158.848 142.798 159.115 142.372 159.648C141.945 160.181 141.732 160.944 141.732 161.936C141.732 162.928 141.945 163.696 142.372 164.24C142.798 164.773 143.412 165.04 144.212 165.04ZM157.008 157.952L153.248 166.736C152.853 167.653 152.357 168.325 151.76 168.752C151.162 169.179 150.426 169.472 149.552 169.632L149.28 168.624C150.037 168.453 150.608 168.224 150.992 167.936C151.386 167.659 151.712 167.227 151.968 166.64L152.288 165.92L148.88 157.952H150.24L152.96 164.592L155.712 157.952H157.008ZM169.775 157.952V165.936C169.775 167.131 169.466 168.032 168.847 168.64C168.239 169.259 167.338 169.568 166.143 169.568C164.917 169.568 163.861 169.291 162.975 168.736L163.199 167.68C163.711 167.968 164.191 168.176 164.639 168.304C165.098 168.432 165.599 168.496 166.143 168.496C166.922 168.496 167.509 168.288 167.903 167.872C168.298 167.467 168.495 166.859 168.495 166.048V164.144C168.25 164.656 167.887 165.056 167.407 165.344C166.938 165.621 166.378 165.76 165.727 165.76C165.023 165.76 164.394 165.595 163.839 165.264C163.295 164.933 162.874 164.464 162.575 163.856C162.277 163.248 162.127 162.549 162.127 161.76C162.127 160.971 162.277 160.272 162.575 159.664C162.874 159.056 163.295 158.587 163.839 158.256C164.394 157.925 165.023 157.76 165.727 157.76C166.367 157.76 166.922 157.899 167.391 158.176C167.871 158.453 168.234 158.843 168.479 159.344V157.952H169.775ZM165.983 164.672C166.762 164.672 167.37 164.416 167.807 163.904C168.255 163.381 168.479 162.667 168.479 161.76C168.479 160.853 168.255 160.144 167.807 159.632C167.37 159.109 166.762 158.848 165.983 158.848C165.194 158.848 164.57 159.109 164.111 159.632C163.663 160.144 163.439 160.853 163.439 161.76C163.439 162.667 163.663 163.381 164.111 163.904C164.57 164.416 165.194 164.672 165.983 164.672ZM172.264 157.952H173.56V166H172.264V157.952ZM173.72 154.544V156.016H172.136V154.544H173.72ZM179.82 157.76C180.087 157.76 180.332 157.792 180.556 157.856L180.524 159.04C180.279 158.955 179.996 158.912 179.676 158.912C178.897 158.912 178.316 159.157 177.932 159.648C177.559 160.128 177.372 160.715 177.372 161.408V166H176.076V160.208C176.076 159.376 176.033 158.624 175.948 157.952H177.18L177.308 159.44C177.511 158.896 177.836 158.48 178.284 158.192C178.732 157.904 179.244 157.76 179.82 157.76ZM181.873 154.224H183.169V166H181.873V154.224ZM187.11 164.352V166H185.462V164.352H187.11Z" fill="#646464"/>
<path d="M142.321 65C140.843 65 139.643 66.2391 139.643 67.765C139.643 69.2909 140.843 70.5299 142.321 70.5299C143.8 70.5299 145 69.2909 145 67.765C145 66.2391 143.8 65 142.321 65Z" fill="#F60C0C"/>
<path fill-rule="evenodd" clip-rule="evenodd" d="M138.438 76.5468L134.691 81.5379C134.392 81.9407 133.874 82.0465 133.459 81.8189L133.342 81.74L129.647 78.8744L126.392 83.1989C126.211 83.4518 125.927 83.6138 125.627 83.6004C125.407 83.6004 125.212 83.5201 125.031 83.3996C124.642 83.1038 124.538 82.5551 124.759 82.1281L124.838 82.0077L128.674 76.8534C128.831 76.6392 129.065 76.4933 129.323 76.4532C129.582 76.4251 129.841 76.4933 130.062 76.6673L133.655 79.5851L136.791 75.3958C137 75.1013 137.349 74.9407 137.7 74.9809C138.036 75.0077 138.348 75.2352 138.49 75.5698C138.632 75.9044 138.593 76.2792 138.386 76.5736L138.438 76.5468ZM137.362 67.8471C137.362 67.5125 137.388 67.1779 137.439 66.8433H127.003C122.593 66.8433 120 69.5469 120 74.0976V84.0006C120 88.5392 122.593 91.2295 127.003 91.2295H136.584C140.992 91.2295 143.585 88.5392 143.585 84.0006V73.2008C143.261 73.2544 142.95 73.2932 142.626 73.2932C139.721 73.2932 137.362 70.8586 137.362 67.8471Z" fill="#200E32"/>
<path d="M202.271 169.753C202.305 169.402 202.072 169.16 201.767 169.156H201.642C201.338 169.16 201.105 169.402 201.138 169.753C201.188 170.281 201.127 170.57 201.103 171.105C201.087 171.498 201.301 171.978 201.705 171.974C202.108 171.978 202.323 171.498 202.306 171.105C202.283 170.57 202.221 170.281 202.271 169.753Z" fill="#DD2E44"/>
<path d="M202.347 167.009C202.347 166.853 202.022 166.777 201.705 166.779C201.387 166.777 201.062 166.853 201.063 167.009C201.063 167.009 201.336 169.019 201.284 170.91C201.279 171.077 201.492 171.166 201.705 171.168C201.917 171.166 202.131 171.077 202.126 170.91C202.074 169.019 202.347 167.009 202.347 167.009Z" fill="#D4AB88"/>
<path d="M201.255 169.697H202.166V170.076H201.255V169.697Z" fill="#DD2E44"/>
<path d="M207.158 163.131C207.158 163.131 209.269 161.8 209.56 161.784C209.725 161.775 210.817 161.709 211.048 161.689C211.888 161.617 213.62 161.299 213.772 161.27C213.924 161.241 213.987 161.288 214.332 160.8C214.677 160.312 214.303 160.427 214.303 160.427C214.303 160.427 214.066 160.598 213.937 160.648C213.809 160.698 213.562 160.749 213.331 160.745C212.607 160.732 208.542 160.581 208.542 160.581C207.976 160.61 207.682 160.604 207.464 160.973C207.081 161.617 207.135 162.803 207.158 163.131Z" fill="#D4AB88"/>
<path d="M201.694 151.583C201.83 151.363 202.053 151.009 202.899 151.232C204.178 151.57 203.029 152.166 203.029 152.166C203.029 152.166 204.364 152.749 204.364 154.498C204.364 156.247 202.799 155.879 202.799 157.723L202.56 158.034C202.56 158.034 202.99 157.779 201.655 158.945C198.985 161.277 197.128 158.202 197.375 157.339C197.737 156.075 197.022 156.247 197.022 155.081C197.022 153.915 198.357 153.915 198.357 152.749C198.357 151.583 199.692 151 200.359 151C201.027 151 201.694 151.583 201.694 151.583Z" fill="#963B22"/>
<path d="M200.776 155.664C201.744 155.664 202.528 154.881 202.528 153.915C202.528 152.949 201.744 152.166 200.776 152.166C199.809 152.166 199.024 152.949 199.024 153.915C199.024 154.881 199.809 155.664 200.776 155.664Z" fill="#D4AB88"/>
<path d="M200.693 151.583C200.074 151.583 199.54 151.761 199.253 152.023C198.516 151.902 198.934 152.908 198.357 153.915C197.689 155.081 199.024 156.247 199.024 155.664C199.024 155.081 199.024 153.332 200.359 153.332H200.693C201.615 153.332 202.361 152.941 202.361 152.458C202.361 151.974 201.615 151.583 200.693 151.583Z" fill="#963B22"/>
<path d="M203.401 156.434C202.747 156.239 202.279 156.261 201.48 156.251L201.192 153.987C201.151 153.667 200.817 153.435 200.455 153.473C200.089 153.508 199.825 153.796 199.866 154.116L200.137 156.248L198.842 156.275L198.857 157.413C198.863 157.566 198.914 157.756 199.024 157.996C199.692 159.454 203.029 159.737 203.029 158.288C203.029 157.936 202.997 157.67 202.929 157.467C203.733 157.519 205.175 156.962 203.401 156.434Z" fill="#D4AB88"/>
<path d="M199.692 160.328C199.692 161.495 199.692 162.078 198.357 163.827C197.022 165.576 195.687 165.576 195.02 166.742C194.352 167.908 195.02 167.908 196.355 167.325C197.689 166.742 197.022 169.657 199.024 169.657C201.027 169.657 200.359 167.908 201.694 167.908C203.029 167.908 203.696 169.657 205.031 169.657C206.366 169.657 206.754 168.247 205.699 167.325C205.031 166.742 207.034 165.576 207.701 166.159C208.756 167.081 209.861 165.713 208.368 164.41C207.701 163.827 207.174 163.182 208.368 162.661C209.703 162.078 210.037 159.745 208.368 160.328C206.137 161.109 203.029 162.171 203.029 160.328V157.996C203.029 157.996 202.122 157.784 201.834 156.257L201.708 156.254C201.708 156.254 201.334 158.291 199.825 156.258L199.684 156.259C199.684 156.259 200.258 157.785 199.25 158.458C199.182 158.502 199.692 159.162 199.692 160.328Z" fill="#DD2E44"/>
<path d="M208.368 162.005C207.62 162.332 207.547 162.707 207.762 163.086C207.868 162.938 208.06 162.795 208.368 162.661C209.203 162.296 209.647 161.247 209.453 160.656C209.328 161.181 208.942 161.755 208.368 162.005ZM205.031 169.001C203.696 169.001 203.029 167.252 201.694 167.252C200.359 167.252 201.027 169.001 199.024 169.001C197.022 169.001 197.689 166.086 196.355 166.669C195.634 166.984 195.118 167.12 194.892 167.002C194.484 167.892 195.133 167.858 196.355 167.325C197.689 166.742 197.022 169.657 199.024 169.657C201.027 169.657 200.359 167.908 201.694 167.908C203.029 167.908 203.696 169.657 205.031 169.657C205.98 169.657 206.437 168.944 206.251 168.202C206.112 168.658 205.688 169.001 205.031 169.001ZM207.701 165.503C207.034 164.92 205.031 166.086 205.699 166.669C205.708 166.677 205.713 166.686 205.721 166.695C206.13 166.193 207.237 165.754 207.701 166.159C208.496 166.853 209.318 166.249 209.038 165.351C208.86 165.826 208.275 166.004 207.701 165.503Z" fill="#A0041E"/>
<path d="M214.914 160.14C214.914 160.14 214.632 160.018 214.39 160.326C214.342 160.389 214.302 160.426 214.302 160.426C214.329 160.468 214.32 160.514 214.305 160.553C214.219 160.785 213.99 160.959 213.554 161.014C213.372 161.036 213.227 161.064 213.097 161.094L213.11 160.741L212.676 160.729L212.657 161.239C212.46 161.338 212.397 161.442 212.368 161.519C212.304 161.689 212.739 161.89 213.01 161.969C213.256 162.039 213.47 162.071 213.618 162.075C213.781 162.079 214.376 162.206 214.376 162.206L214.435 162.049C214.435 162.049 213.954 161.854 213.79 161.789C213.658 161.737 213.737 161.45 213.94 161.419C214.477 161.337 214.605 161.374 214.687 161.154L214.986 160.352C215.041 160.208 214.914 160.14 214.914 160.14Z" fill="#DD2E44"/>
<path d="M199.253 156.388C199.186 156.342 199.109 156.311 199.026 156.294C198.915 156.271 198.792 156.274 198.661 156.301C198.401 156.358 198.018 156.422 197.612 156.489C197.058 156.581 196.323 156.767 196.124 156.767C195.925 156.767 195.113 156.539 194.366 156.454C194.119 156.426 193.33 156.357 193.162 156.341C192.934 156.319 192.658 156.294 192.446 156.254C192.349 156.235 191.97 156.146 191.817 156.123C191.526 156.077 191.042 156.055 191.014 156.105C190.897 156.32 191.524 156.241 192.041 156.637C192.344 156.869 192.652 156.859 192.945 156.841C193.177 156.826 193.911 157.175 194.498 157.331C194.922 157.444 195.87 157.642 196.006 157.659C196.142 157.676 196.871 157.628 197.356 157.595C197.847 157.561 198.271 157.532 198.61 157.551C198.934 157.569 199.177 157.505 199.333 157.361C199.528 157.181 199.524 156.928 199.519 156.855C199.503 156.658 199.409 156.492 199.253 156.388ZM206.727 157.166C206.615 157.033 206.35 156.837 205.785 156.7C205.346 156.593 203.119 156.333 202.682 156.287C202.343 156.252 202.55 157.342 202.722 157.434C202.832 157.493 202.965 157.498 203.167 157.516C203.983 157.589 205.211 157.532 205.431 157.513C205.526 157.505 205.57 157.535 205.577 157.588C205.534 157.757 205.385 157.978 205.258 158.232C205.046 158.656 204.82 159.231 204.739 159.297L204.665 159.356C204.497 159.383 204.298 159.457 204.121 159.584C204.057 159.629 203.998 159.684 203.953 159.796C203.89 159.952 204.066 159.971 204.109 159.877C204.127 159.838 204.17 159.77 204.268 159.748C204.265 159.766 204.258 159.781 204.258 159.802C204.256 159.836 204.246 159.864 204.24 159.894C204.087 160.124 203.784 160.217 203.805 160.306C203.81 160.325 203.837 160.326 203.859 160.331C203.756 160.392 203.676 160.434 203.682 160.481C203.688 160.519 203.736 160.527 203.801 160.522C203.754 160.553 203.723 160.58 203.727 160.609C203.744 160.731 204.098 160.541 204.268 160.481C204.557 160.379 204.726 160.271 204.926 160.11C205.159 159.923 205.271 159.652 205.372 159.501C205.446 159.39 206.334 158.448 206.531 158.132C206.821 157.667 206.839 157.3 206.727 157.166Z" fill="#D4AB88"/>
<path d="M226.271 169.753C226.305 169.402 226.072 169.16 225.767 169.156H225.642C225.338 169.16 225.105 169.402 225.138 169.753C225.188 170.281 225.127 170.57 225.103 171.105C225.087 171.498 225.301 171.978 225.705 171.974C226.108 171.978 226.323 171.498 226.306 171.105C226.283 170.57 226.221 170.281 226.271 169.753Z" fill="#DD2E44"/>
<path d="M226.347 167.009C226.347 166.853 226.022 166.777 225.705 166.779C225.387 166.777 225.062 166.853 225.063 167.009C225.063 167.009 225.336 169.019 225.284 170.91C225.279 171.077 225.492 171.166 225.705 171.168C225.917 171.166 226.131 171.077 226.126 170.91C226.074 169.019 226.347 167.009 226.347 167.009Z" fill="#D4AB88"/>
<path d="M225.255 169.697H226.166V170.076H225.255V169.697Z" fill="#DD2E44"/>
<path d="M231.158 163.131C231.158 163.131 233.269 161.8 233.56 161.784C233.725 161.775 234.817 161.709 235.048 161.689C235.888 161.617 237.62 161.299 237.772 161.27C237.924 161.241 237.987 161.288 238.332 160.8C238.677 160.312 238.303 160.427 238.303 160.427C238.303 160.427 238.066 160.598 237.937 160.648C237.809 160.698 237.562 160.749 237.331 160.745C236.607 160.732 232.542 160.581 232.542 160.581C231.976 160.61 231.682 160.604 231.464 160.973C231.081 161.617 231.135 162.803 231.158 163.131Z" fill="#D4AB88"/>
<path d="M225.694 151.583C225.83 151.363 226.053 151.009 226.899 151.232C228.178 151.57 227.029 152.166 227.029 152.166C227.029 152.166 228.364 152.749 228.364 154.498C228.364 156.247 226.799 155.879 226.799 157.723L226.56 158.034C226.56 158.034 226.99 157.779 225.655 158.945C222.985 161.277 221.128 158.202 221.375 157.339C221.737 156.075 221.022 156.247 221.022 155.081C221.022 153.915 222.357 153.915 222.357 152.749C222.357 151.583 223.692 151 224.359 151C225.027 151 225.694 151.583 225.694 151.583Z" fill="#963B22"/>
<path d="M224.776 155.664C225.744 155.664 226.528 154.881 226.528 153.915C226.528 152.949 225.744 152.166 224.776 152.166C223.809 152.166 223.024 152.949 223.024 153.915C223.024 154.881 223.809 155.664 224.776 155.664Z" fill="#D4AB88"/>
<path d="M224.693 151.583C224.074 151.583 223.54 151.761 223.253 152.023C222.516 151.902 222.934 152.908 222.357 153.915C221.689 155.081 223.024 156.247 223.024 155.664C223.024 155.081 223.024 153.332 224.359 153.332H224.693C225.615 153.332 226.361 152.941 226.361 152.458C226.361 151.974 225.615 151.583 224.693 151.583Z" fill="#963B22"/>
<path d="M227.401 156.434C226.747 156.239 226.279 156.261 225.48 156.251L225.192 153.987C225.151 153.667 224.817 153.435 224.455 153.473C224.089 153.508 223.825 153.796 223.866 154.116L224.137 156.248L222.842 156.275L222.857 157.413C222.863 157.566 222.914 157.756 223.024 157.996C223.692 159.454 227.029 159.737 227.029 158.288C227.029 157.936 226.997 157.67 226.929 157.467C227.733 157.519 229.175 156.962 227.401 156.434Z" fill="#D4AB88"/>
<path d="M223.692 160.328C223.692 161.495 223.692 162.078 222.357 163.827C221.022 165.576 219.687 165.576 219.02 166.742C218.352 167.908 219.02 167.908 220.355 167.325C221.689 166.742 221.022 169.657 223.024 169.657C225.027 169.657 224.359 167.908 225.694 167.908C227.029 167.908 227.696 169.657 229.031 169.657C230.366 169.657 230.754 168.247 229.699 167.325C229.031 166.742 231.034 165.576 231.701 166.159C232.756 167.081 233.861 165.713 232.368 164.41C231.701 163.827 231.174 163.182 232.368 162.661C233.703 162.078 234.037 159.745 232.368 160.328C230.137 161.109 227.029 162.171 227.029 160.328V157.996C227.029 157.996 226.122 157.784 225.834 156.257L225.708 156.254C225.708 156.254 225.334 158.291 223.825 156.258L223.684 156.259C223.684 156.259 224.258 157.785 223.25 158.458C223.182 158.502 223.692 159.162 223.692 160.328Z" fill="#DD2E44"/>
<path d="M232.368 162.005C231.62 162.332 231.547 162.707 231.762 163.086C231.868 162.938 232.06 162.795 232.368 162.661C233.203 162.296 233.647 161.247 233.453 160.656C233.328 161.181 232.942 161.755 232.368 162.005ZM229.031 169.001C227.696 169.001 227.029 167.252 225.694 167.252C224.359 167.252 225.027 169.001 223.024 169.001C221.022 169.001 221.689 166.086 220.355 166.669C219.634 166.984 219.118 167.12 218.892 167.002C218.484 167.892 219.133 167.858 220.355 167.325C221.689 166.742 221.022 169.657 223.024 169.657C225.027 169.657 224.359 167.908 225.694 167.908C227.029 167.908 227.696 169.657 229.031 169.657C229.98 169.657 230.437 168.944 230.251 168.202C230.112 168.658 229.688 169.001 229.031 169.001ZM231.701 165.503C231.034 164.92 229.031 166.086 229.699 166.669C229.708 166.677 229.713 166.686 229.721 166.695C230.13 166.193 231.237 165.754 231.701 166.159C232.496 166.853 233.318 166.249 233.038 165.351C232.86 165.826 232.275 166.004 231.701 165.503Z" fill="#A0041E"/>
<path d="M238.914 160.14C238.914 160.14 238.632 160.018 238.39 160.326C238.342 160.389 238.302 160.426 238.302 160.426C238.329 160.468 238.32 160.514 238.305 160.553C238.219 160.785 237.99 160.959 237.554 161.014C237.372 161.036 237.227 161.064 237.097 161.094L237.11 160.741L236.676 160.729L236.657 161.239C236.46 161.338 236.397 161.442 236.368 161.519C236.304 161.689 236.739 161.89 237.01 161.969C237.256 162.039 237.47 162.071 237.618 162.075C237.781 162.079 238.376 162.206 238.376 162.206L238.435 162.049C238.435 162.049 237.954 161.854 237.79 161.789C237.658 161.737 237.737 161.45 237.94 161.419C238.477 161.337 238.605 161.374 238.687 161.154L238.986 160.352C239.041 160.208 238.914 160.14 238.914 160.14Z" fill="#DD2E44"/>
<path d="M223.253 156.388C223.186 156.342 223.109 156.311 223.026 156.294C222.915 156.271 222.792 156.274 222.661 156.301C222.401 156.358 222.018 156.422 221.612 156.489C221.058 156.581 220.323 156.767 220.124 156.767C219.925 156.767 219.113 156.539 218.366 156.454C218.119 156.426 217.33 156.357 217.162 156.341C216.934 156.319 216.658 156.294 216.446 156.254C216.349 156.235 215.97 156.146 215.817 156.123C215.526 156.077 215.042 156.055 215.014 156.105C214.897 156.32 215.524 156.241 216.041 156.637C216.344 156.869 216.652 156.859 216.945 156.841C217.177 156.826 217.911 157.175 218.498 157.331C218.922 157.444 219.87 157.642 220.006 157.659C220.142 157.676 220.871 157.628 221.356 157.595C221.847 157.561 222.271 157.532 222.61 157.551C222.934 157.569 223.177 157.505 223.333 157.361C223.528 157.181 223.524 156.928 223.519 156.855C223.503 156.658 223.409 156.492 223.253 156.388ZM230.727 157.166C230.615 157.033 230.35 156.837 229.785 156.7C229.346 156.593 227.119 156.333 226.682 156.287C226.343 156.252 226.55 157.342 226.722 157.434C226.832 157.493 226.965 157.498 227.167 157.516C227.983 157.589 229.211 157.532 229.431 157.513C229.526 157.505 229.57 157.535 229.577 157.588C229.534 157.757 229.385 157.978 229.258 158.232C229.046 158.656 228.82 159.231 228.739 159.297L228.665 159.356C228.497 159.383 228.298 159.457 228.121 159.584C228.057 159.629 227.998 159.684 227.953 159.796C227.89 159.952 228.066 159.971 228.109 159.877C228.127 159.838 228.17 159.77 228.268 159.748C228.265 159.766 228.258 159.781 228.258 159.802C228.256 159.836 228.246 159.864 228.24 159.894C228.087 160.124 227.784 160.217 227.805 160.306C227.81 160.325 227.837 160.326 227.859 160.331C227.756 160.392 227.676 160.434 227.682 160.481C227.688 160.519 227.736 160.527 227.801 160.522C227.754 160.553 227.723 160.58 227.727 160.609C227.744 160.731 228.098 160.541 228.268 160.481C228.557 160.379 228.726 160.271 228.926 160.11C229.159 159.923 229.271 159.652 229.372 159.501C229.446 159.39 230.334 158.448 230.531 158.132C230.821 157.667 230.839 157.3 230.727 157.166Z" fill="#D4AB88"/>
<path d="M250.271 169.753C250.305 169.402 250.072 169.16 249.767 169.156H249.642C249.338 169.16 249.105 169.402 249.138 169.753C249.188 170.281 249.127 170.57 249.103 171.105C249.087 171.498 249.301 171.978 249.705 171.974C250.108 171.978 250.323 171.498 250.306 171.105C250.283 170.57 250.221 170.281 250.271 169.753Z" fill="#DD2E44"/>
<path d="M250.347 167.009C250.347 166.853 250.022 166.777 249.705 166.779C249.387 166.777 249.062 166.853 249.063 167.009C249.063 167.009 249.336 169.019 249.284 170.91C249.279 171.077 249.492 171.166 249.705 171.168C249.917 171.166 250.131 171.077 250.126 170.91C250.074 169.019 250.347 167.009 250.347 167.009Z" fill="#D4AB88"/>
<path d="M249.255 169.697H250.166V170.076H249.255V169.697Z" fill="#DD2E44"/>
<path d="M255.158 163.131C255.158 163.131 257.269 161.8 257.56 161.784C257.725 161.775 258.817 161.709 259.048 161.689C259.888 161.617 261.62 161.299 261.772 161.27C261.924 161.241 261.987 161.288 262.332 160.8C262.677 160.312 262.303 160.427 262.303 160.427C262.303 160.427 262.066 160.598 261.938 160.648C261.809 160.698 261.562 160.749 261.331 160.745C260.607 160.732 256.542 160.581 256.542 160.581C255.976 160.61 255.682 160.604 255.464 160.973C255.081 161.617 255.135 162.803 255.158 163.131Z" fill="#D4AB88"/>
<path d="M249.694 151.583C249.83 151.363 250.053 151.009 250.899 151.232C252.178 151.57 251.029 152.166 251.029 152.166C251.029 152.166 252.364 152.749 252.364 154.498C252.364 156.247 250.799 155.879 250.799 157.723L250.56 158.034C250.56 158.034 250.99 157.779 249.655 158.945C246.985 161.277 245.128 158.202 245.375 157.339C245.737 156.075 245.022 156.247 245.022 155.081C245.022 153.915 246.357 153.915 246.357 152.749C246.357 151.583 247.692 151 248.359 151C249.027 151 249.694 151.583 249.694 151.583Z" fill="#963B22"/>
<path d="M248.776 155.664C249.744 155.664 250.528 154.881 250.528 153.915C250.528 152.949 249.744 152.166 248.776 152.166C247.809 152.166 247.024 152.949 247.024 153.915C247.024 154.881 247.809 155.664 248.776 155.664Z" fill="#D4AB88"/>
<path d="M248.693 151.583C248.074 151.583 247.54 151.761 247.253 152.023C246.516 151.902 246.934 152.908 246.357 153.915C245.689 155.081 247.024 156.247 247.024 155.664C247.024 155.081 247.024 153.332 248.359 153.332H248.693C249.615 153.332 250.361 152.941 250.361 152.458C250.361 151.974 249.615 151.583 248.693 151.583Z" fill="#963B22"/>
<path d="M251.401 156.434C250.747 156.239 250.279 156.261 249.48 156.251L249.192 153.987C249.151 153.667 248.817 153.435 248.455 153.473C248.089 153.508 247.825 153.796 247.866 154.116L248.137 156.248L246.842 156.275L246.857 157.413C246.863 157.566 246.914 157.756 247.024 157.996C247.692 159.454 251.029 159.737 251.029 158.288C251.029 157.936 250.997 157.67 250.929 157.467C251.733 157.519 253.175 156.962 251.401 156.434Z" fill="#D4AB88"/>
<path d="M247.692 160.328C247.692 161.495 247.692 162.078 246.357 163.827C245.022 165.576 243.687 165.576 243.02 166.742C242.352 167.908 243.02 167.908 244.355 167.325C245.689 166.742 245.022 169.657 247.024 169.657C249.027 169.657 248.359 167.908 249.694 167.908C251.029 167.908 251.696 169.657 253.031 169.657C254.366 169.657 254.754 168.247 253.699 167.325C253.031 166.742 255.034 165.576 255.701 166.159C256.756 167.081 257.861 165.713 256.368 164.41C255.701 163.827 255.174 163.182 256.368 162.661C257.703 162.078 258.037 159.745 256.368 160.328C254.137 161.109 251.029 162.171 251.029 160.328V157.996C251.029 157.996 250.122 157.784 249.834 156.257L249.708 156.254C249.708 156.254 249.334 158.291 247.825 156.258L247.684 156.259C247.684 156.259 248.258 157.785 247.25 158.458C247.182 158.502 247.692 159.162 247.692 160.328Z" fill="#DD2E44"/>
<path d="M256.368 162.005C255.62 162.332 255.547 162.707 255.762 163.086C255.868 162.938 256.06 162.795 256.368 162.661C257.203 162.296 257.647 161.247 257.453 160.656C257.328 161.181 256.942 161.755 256.368 162.005ZM253.031 169.001C251.696 169.001 251.029 167.252 249.694 167.252C248.359 167.252 249.027 169.001 247.024 169.001C245.022 169.001 245.689 166.086 244.355 166.669C243.634 166.984 243.118 167.12 242.892 167.002C242.484 167.892 243.133 167.858 244.355 167.325C245.689 166.742 245.022 169.657 247.024 169.657C249.027 169.657 248.359 167.908 249.694 167.908C251.029 167.908 251.696 169.657 253.031 169.657C253.98 169.657 254.437 168.944 254.251 168.202C254.112 168.658 253.688 169.001 253.031 169.001ZM255.701 165.503C255.034 164.92 253.031 166.086 253.699 166.669C253.708 166.677 253.713 166.686 253.721 166.695C254.13 166.193 255.237 165.754 255.701 166.159C256.496 166.853 257.318 166.249 257.038 165.351C256.86 165.826 256.275 166.004 255.701 165.503Z" fill="#A0041E"/>
<path d="M262.914 160.14C262.914 160.14 262.632 160.018 262.39 160.326C262.342 160.389 262.302 160.426 262.302 160.426C262.329 160.468 262.32 160.514 262.305 160.553C262.218 160.785 261.99 160.959 261.554 161.014C261.372 161.036 261.227 161.064 261.097 161.094L261.11 160.741L260.676 160.729L260.657 161.239C260.46 161.338 260.397 161.442 260.368 161.519C260.304 161.689 260.739 161.89 261.01 161.969C261.256 162.039 261.47 162.071 261.618 162.075C261.781 162.079 262.376 162.206 262.376 162.206L262.435 162.049C262.435 162.049 261.954 161.854 261.79 161.789C261.658 161.737 261.737 161.45 261.939 161.419C262.477 161.337 262.605 161.374 262.687 161.154L262.986 160.352C263.041 160.208 262.914 160.14 262.914 160.14Z" fill="#DD2E44"/>
<path d="M247.253 156.388C247.186 156.342 247.109 156.311 247.026 156.294C246.915 156.271 246.792 156.274 246.661 156.301C246.401 156.358 246.018 156.422 245.612 156.489C245.058 156.581 244.323 156.767 244.124 156.767C243.925 156.767 243.113 156.539 242.366 156.454C242.119 156.426 241.33 156.357 241.162 156.341C240.934 156.319 240.658 156.294 240.446 156.254C240.349 156.235 239.97 156.146 239.817 156.123C239.526 156.077 239.042 156.055 239.014 156.105C238.897 156.32 239.524 156.241 240.041 156.637C240.344 156.869 240.652 156.859 240.945 156.841C241.177 156.826 241.911 157.175 242.498 157.331C242.922 157.444 243.87 157.642 244.006 157.659C244.142 157.676 244.871 157.628 245.356 157.595C245.847 157.561 246.271 157.532 246.61 157.551C246.934 157.569 247.177 157.505 247.333 157.361C247.528 157.181 247.524 156.928 247.519 156.855C247.503 156.658 247.409 156.492 247.253 156.388ZM254.727 157.166C254.615 157.033 254.35 156.837 253.785 156.7C253.346 156.593 251.119 156.333 250.682 156.287C250.343 156.252 250.55 157.342 250.722 157.434C250.832 157.493 250.965 157.498 251.167 157.516C251.983 157.589 253.211 157.532 253.431 157.513C253.526 157.505 253.57 157.535 253.577 157.588C253.534 157.757 253.385 157.978 253.258 158.232C253.046 158.656 252.82 159.231 252.739 159.297L252.665 159.356C252.497 159.383 252.298 159.457 252.121 159.584C252.057 159.629 251.998 159.684 251.953 159.796C251.89 159.952 252.066 159.971 252.109 159.877C252.127 159.838 252.17 159.77 252.268 159.748C252.265 159.766 252.258 159.781 252.258 159.802C252.256 159.836 252.246 159.864 252.24 159.894C252.087 160.124 251.784 160.217 251.805 160.306C251.81 160.325 251.837 160.326 251.859 160.331C251.756 160.392 251.676 160.434 251.682 160.481C251.688 160.519 251.736 160.527 251.801 160.522C251.754 160.553 251.723 160.58 251.727 160.609C251.744 160.731 252.098 160.541 252.268 160.481C252.557 160.379 252.726 160.271 252.926 160.11C253.159 159.923 253.271 159.652 253.372 159.501C253.446 159.39 254.334 158.448 254.531 158.132C254.821 157.667 254.839 157.3 254.727 157.166Z" fill="#D4AB88"/>
<defs>
<filter id="filter0_d" x="0" y="0" width="504" height="330" filterUnits="userSpaceOnUse" color-interpolation-filters="sRGB">
<feFlood flood-opacity="0" result="BackgroundImageFix"/>
<feColorMatrix in="SourceAlpha" type="matrix" values="0 0 0 0 0 0 0 0 0 0 0 0 0 0 0 0 0 0 127 0"/>
<feOffset dy="44"/>
<feGaussianBlur stdDeviation="50"/>
<feColorMatrix type="matrix" values="0 0 0 0 0.389063 0 0 0 0 0.360937 0 0 0 0 0.360937 0 0 0 0.25 0"/>
<feBlend mode="normal" in2="BackgroundImageFix" result="effect1_dropShadow"/>
<feBlend mode="normal" in="SourceGraphic" in2="effect1_dropShadow" result="shape"/>
</filter>
</defs>
</svg>
