<svg xmlns="http://www.w3.org/2000/svg" width="504" height="330" fill="none"  xmlns:v="https://vecta.io/nano"><g filter="url(#A)"><rect x="100" y="56" width="304" height="130" rx="10" fill="#fff"/></g><path d="M160.77 82v-7.12h.96l4.1 5.33-.27.14v-5.47h1.21V82h-.97l-4.08-5.31.26-.16V82h-1.21zm11.789-.56c-.24.2-.537.357-.89.47-.347.107-.7.16-1.06.16-.547 0-1.02-.103-1.42-.31a2.15 2.15 0 0 1-.91-.9c-.214-.393-.32-.86-.32-1.4 0-.52.103-.977.31-1.37a2.27 2.27 0 0 1 .86-.93c.366-.227.79-.34 1.27-.34.466 0 .866.103 1.2.31.333.2.59.49.77.87.186.38.28.83.28 1.35v.19h-3.59l.01-.67h2.84l-.34.34c.006-.487-.09-.857-.29-1.11-.194-.253-.477-.38-.85-.38-.4 0-.71.143-.93.43-.22.28-.33.683-.33 1.21 0 .6.123 1.043.37 1.33.246.28.62.42 1.12.42.273 0 .54-.043.8-.13a2.67 2.67 0 0 0 .74-.4l.36.86zm2.47.56l-1.98-5.05h1.29l1.42 3.91h-.25l1.43-3.91h.91l1.42 3.91h-.23l1.42-3.91h1.21l-1.98 5.05h-1.09l-1.54-4.07h.57l-1.51 4.07h-1.09z" fill="#c4c4c4"/><path d="M124.16 107.728h-3.968v-1.12h9.264v1.12h-3.968V118h-1.328v-10.272zm10.745 2.032c1.93 0 2.896 1.061 2.896 3.184V118h-1.296v-4.992c0-.747-.15-1.291-.448-1.632-.299-.352-.768-.528-1.408-.528-.747 0-1.344.229-1.792.688s-.672 1.077-.672 1.856V118h-1.296v-11.776h1.296v5.04a2.62 2.62 0 0 1 1.088-1.12c.48-.256 1.024-.384 1.632-.384zm12.079 4.176h-5.904c.011 1.024.245 1.797.704 2.32.469.523 1.147.784 2.032.784.939 0 1.803-.315 2.592-.944l.432.944c-.352.331-.805.592-1.36.784a5.01 5.01 0 0 1-1.68.288c-1.259 0-2.245-.368-2.96-1.104-.715-.747-1.072-1.765-1.072-3.056 0-.821.16-1.547.48-2.176a3.57 3.57 0 0 1 1.344-1.488c.576-.352 1.232-.528 1.968-.528 1.067 0 1.904.352 2.512 1.056.608.693.912 1.653.912 2.88v.24zm-3.408-3.168c-.672 0-1.221.203-1.648.608-.416.405-.683.976-.8 1.712h4.688c-.064-.757-.288-1.333-.672-1.728-.373-.395-.896-.592-1.568-.592zm13.291-1.008a2.67 2.67 0 0 1 .736.096l-.032 1.184c-.245-.085-.528-.128-.848-.128-.779 0-1.36.245-1.744.736-.373.48-.56 1.067-.56 1.76V118h-1.296v-5.792a18.09 18.09 0 0 0-.128-2.256h1.232l.128 1.488c.203-.544.528-.96.976-1.248s.96-.432 1.536-.432zm5.225 8.352c-.758 0-1.424-.171-2-.512s-1.024-.827-1.344-1.456c-.31-.629-.464-1.365-.464-2.208s.154-1.579.464-2.208c.32-.629.768-1.115 1.344-1.456s1.242-.512 2-.512 1.424.171 2 .512 1.018.827 1.328 1.456c.32.629.48 1.365.48 2.208s-.16 1.579-.48 2.208c-.31.629-.752 1.115-1.328 1.456s-1.243.512-2 .512zm0-1.072c.8 0 1.413-.261 1.84-.784.426-.533.64-1.307.64-2.32 0-.981-.219-1.739-.656-2.272-.438-.544-1.046-.816-1.824-.816-.79 0-1.403.272-1.84.816-.438.533-.656 1.291-.656 2.272 0 1.013.213 1.787.64 2.32.437.523 1.056.784 1.856.784zm9.204 1.072c-.779 0-1.461-.171-2.048-.512-.576-.341-1.024-.821-1.344-1.44-.309-.629-.464-1.36-.464-2.192s.16-1.563.48-2.192c.32-.64.773-1.136 1.36-1.488.597-.352 1.291-.528 2.08-.528.544 0 1.067.096 1.568.288.512.181.933.437 1.264.768l-.432.96c-.405-.32-.8-.555-1.184-.704a3.08 3.08 0 0 0-1.152-.224c-.821 0-1.467.277-1.936.832-.469.544-.704 1.307-.704 2.288 0 .971.229 1.728.688 2.272.469.533 1.12.8 1.952.8a3.08 3.08 0 0 0 1.152-.224c.384-.149.779-.384 1.184-.704l.432.96c-.341.32-.773.576-1.296.768-.512.181-1.045.272-1.6.272zm9.97-.112l-4.128-3.872V118h-1.296v-11.776h1.296v7.424l3.792-3.68h1.648l-4.032 3.856 4.416 4.176h-1.696zm9.406-4.064h-5.904c.01 1.024.245 1.797.704 2.32.469.523 1.146.784 2.032.784.938 0 1.802-.315 2.592-.944l.432.944c-.352.331-.806.592-1.36.784a5.01 5.01 0 0 1-1.68.288c-1.259 0-2.246-.368-2.96-1.104-.715-.747-1.072-1.765-1.072-3.056 0-.821.16-1.547.48-2.176a3.57 3.57 0 0 1 1.344-1.488c.576-.352 1.232-.528 1.968-.528 1.066 0 1.904.352 2.512 1.056.608.693.912 1.653.912 2.88v.24zm-3.408-3.168c-.672 0-1.222.203-1.648.608-.416.405-.683.976-.8 1.712h4.688c-.064-.757-.288-1.333-.672-1.728-.374-.395-.896-.592-1.568-.592zm9.119-1.008c.266 0 .512.032.736.096l-.032 1.184c-.246-.085-.528-.128-.848-.128-.779 0-1.36.245-1.744.736-.374.48-.56 1.067-.56 1.76V118h-1.296v-5.792a18.09 18.09 0 0 0-.128-2.256h1.232l.128 1.488c.202-.544.528-.96.976-1.248s.96-.432 1.536-.432zm9.312-2.48c-.426 0-.762.123-1.008.368-.234.235-.352.645-.352 1.232v1.072h1.968v1.024h-1.968V118h-1.296v-7.024h-1.568v-1.024h1.568v-1.232c0-.843.208-1.477.624-1.904.427-.437 1.019-.656 1.776-.656.374 0 .736.048 1.088.144v1.104a3.05 3.05 0 0 0-.832-.128zm8.961 6.656h-5.904c.011 1.024.245 1.797.704 2.32.469.523 1.147.784 2.032.784.939 0 1.803-.315 2.592-.944l.432.944c-.352.331-.805.592-1.36.784a5.01 5.01 0 0 1-1.68.288c-1.259 0-2.245-.368-2.96-1.104-.715-.747-1.072-1.765-1.072-3.056 0-.821.16-1.547.48-2.176a3.57 3.57 0 0 1 1.344-1.488c.576-.352 1.232-.528 1.968-.528 1.067 0 1.904.352 2.512 1.056.608.693.912 1.653.912 2.88v.24zm-3.408-3.168c-.672 0-1.221.203-1.648.608-.416.405-.683.976-.8 1.712h4.688c-.064-.757-.288-1.333-.672-1.728-.373-.395-.896-.592-1.568-.592zm5.375-4.544h1.296V118h-1.296v-11.776zm3.813 0h1.296V118h-1.296v-11.776zm10.9 3.728V118h-1.28v-1.456c-.235.501-.592.891-1.072 1.168-.469.267-1.019.4-1.648.4-.715 0-1.344-.171-1.888-.512-.533-.341-.949-.821-1.248-1.44-.288-.629-.432-1.36-.432-2.192s.149-1.563.448-2.192c.299-.64.715-1.136 1.248-1.488.544-.352 1.168-.528 1.872-.528.629 0 1.179.139 1.648.416s.827.667 1.072 1.168v-1.392h1.28zm-3.744 7.088c.789 0 1.397-.267 1.824-.8.427-.544.64-1.312.64-2.304s-.213-1.755-.64-2.288-1.035-.8-1.824-.8-1.408.277-1.856.832c-.437.544-.656 1.307-.656 2.288s.219 1.739.656 2.272 1.056.8 1.856.8zm8.97 1.072c-1.355 0-2.427-.347-3.216-1.04l.432-.96a4.46 4.46 0 0 0 1.328.736c.448.149.949.224 1.504.224.608 0 1.066-.101 1.376-.304a1.03 1.03 0 0 0 .48-.912c0-.32-.107-.576-.32-.768s-.566-.341-1.056-.448l-1.36-.32c-.672-.149-1.195-.416-1.568-.8-.363-.384-.544-.843-.544-1.376a2.06 2.06 0 0 1 .848-1.712c.565-.448 1.312-.672 2.24-.672a4.68 4.68 0 0 1 1.6.272c.501.181.922.443 1.264.784l-.432.944c-.758-.629-1.568-.944-2.432-.944-.576 0-1.024.112-1.344.336-.31.213-.464.517-.464.912 0 .331.096.592.288.784.202.192.522.341.96.448l1.36.336c.746.171 1.301.437 1.664.8.362.352.544.816.544 1.392 0 .693-.283 1.248-.848 1.664s-1.334.624-2.304.624zm16.477-8.16V118h-1.28v-1.456c-.235.501-.592.891-1.072 1.168-.469.267-1.019.4-1.648.4-.715 0-1.344-.171-1.888-.512-.533-.341-.949-.821-1.248-1.44-.288-.629-.432-1.36-.432-2.192s.149-1.563.448-2.192c.299-.64.715-1.136 1.248-1.488.544-.352 1.168-.528 1.872-.528.629 0 1.179.139 1.648.416s.827.667 1.072 1.168v-1.392h1.28zm-3.744 7.088c.789 0 1.397-.267 1.824-.8.427-.544.64-1.312.64-2.304s-.213-1.755-.64-2.288-1.035-.8-1.824-.8-1.408.277-1.856.832c-.437.544-.656 1.307-.656 2.288s.219 1.739.656 2.272 1.056.8 1.856.8zm9.994-7.28a2.67 2.67 0 0 1 .736.096l-.032 1.184c-.245-.085-.528-.128-.848-.128-.779 0-1.36.245-1.744.736-.373.48-.56 1.067-.56 1.76V118h-1.296v-5.792a18.09 18.09 0 0 0-.128-2.256h1.232l.128 1.488c.203-.544.528-.96.976-1.248s.96-.432 1.536-.432zm8.633 4.176h-5.904c.01 1.024.245 1.797.704 2.32.469.523 1.146.784 2.032.784.938 0 1.802-.315 2.592-.944l.432.944c-.352.331-.806.592-1.36.784a5.01 5.01 0 0 1-1.68.288c-1.259 0-2.246-.368-2.96-1.104-.715-.747-1.072-1.765-1.072-3.056 0-.821.16-1.547.48-2.176a3.57 3.57 0 0 1 1.344-1.488c.576-.352 1.232-.528 1.968-.528 1.066 0 1.904.352 2.512 1.056.608.693.912 1.653.912 2.88v.24zm-3.408-3.168c-.672 0-1.222.203-1.648.608-.416.405-.683.976-.8 1.712h4.688c-.064-.757-.288-1.333-.672-1.728-.374-.395-.896-.592-1.568-.592zm13.563-1.008c.704 0 1.328.176 1.872.528s.965.848 1.264 1.488c.298.629.448 1.36.448 2.192s-.15 1.563-.448 2.192c-.299.619-.72 1.099-1.264 1.44-.534.341-1.158.512-1.872.512-.63 0-1.179-.139-1.648-.416a2.68 2.68 0 0 1-1.072-1.184v4.944h-1.296v-9.248a18.09 18.09 0 0 0-.128-2.256h1.231l.129 1.552c.224-.555.576-.981 1.056-1.28.49-.309 1.066-.464 1.728-.464zm-.24 7.28c.789 0 1.397-.267 1.824-.8.437-.533.656-1.291.656-2.272s-.219-1.744-.656-2.288c-.438-.555-1.046-.832-1.824-.832-.8 0-1.414.267-1.84.8s-.64 1.296-.64 2.288.213 1.76.64 2.304c.426.533 1.04.8 1.84.8zm12.553-3.104h-5.904c.011 1.024.246 1.797.704 2.32.47.523 1.147.784 2.032.784.939 0 1.803-.315 2.592-.944l.432.944c-.352.331-.805.592-1.36.784a5.01 5.01 0 0 1-1.68.288c-1.258 0-2.245-.368-2.96-1.104-.714-.747-1.072-1.765-1.072-3.056 0-.821.16-1.547.48-2.176a3.57 3.57 0 0 1 1.344-1.488c.576-.352 1.232-.528 1.968-.528 1.067 0 1.904.352 2.512 1.056.608.693.912 1.653.912 2.88v.24zm-3.408-3.168c-.672 0-1.221.203-1.648.608-.416.405-.682.976-.8 1.712h4.688c-.064-.757-.288-1.333-.672-1.728-.373-.395-.896-.592-1.568-.592zm9.119-1.008a2.67 2.67 0 0 1 .736.096l-.032 1.184c-.245-.085-.528-.128-.848-.128-.778 0-1.36.245-1.744.736-.373.48-.56 1.067-.56 1.76V118h-1.296v-5.792a17.9 17.9 0 0 0-.128-2.256h1.232l.128 1.488c.203-.544.528-.96.976-1.248s.96-.432 1.536-.432zm5.766-2.48c-.426 0-.762.123-1.008.368-.234.235-.352.645-.352 1.232v1.072h1.968v1.024h-1.968V118h-1.296v-7.024h-1.568v-1.024h1.568v-1.232c0-.843.208-1.477.624-1.904.427-.437 1.019-.656 1.776-.656.374 0 .736.048 1.088.144v1.104a3.05 3.05 0 0 0-.832-.128zm5.553 10.832c-.758 0-1.424-.171-2-.512s-1.024-.827-1.344-1.456c-.31-.629-.464-1.365-.464-2.208s.154-1.579.464-2.208c.32-.629.768-1.115 1.344-1.456s1.242-.512 2-.512 1.424.171 2 .512 1.018.827 1.328 1.456c.32.629.48 1.365.48 2.208s-.16 1.579-.48 2.208c-.31.629-.752 1.115-1.328 1.456s-1.243.512-2 .512zm0-1.072c.8 0 1.413-.261 1.84-.784.426-.533.64-1.307.64-2.32 0-.981-.219-1.739-.656-2.272-.438-.544-1.046-.816-1.824-.816-.79 0-1.403.272-1.84.816-.438.533-.656 1.291-.656 2.272 0 1.013.213 1.787.64 2.32.437.523 1.056.784 1.856.784zm9.572-7.28a2.67 2.67 0 0 1 .736.096l-.032 1.184c-.245-.085-.528-.128-.848-.128-.779 0-1.36.245-1.744.736-.373.48-.56 1.067-.56 1.76V118h-1.296v-5.792a18.09 18.09 0 0 0-.128-2.256h1.232l.128 1.488c.203-.544.528-.96.976-1.248s.96-.432 1.536-.432zm10.981 0c1.781 0 2.672 1.061 2.672 3.184V118h-1.296v-4.992c0-.757-.133-1.307-.4-1.648-.256-.341-.677-.512-1.264-.512-.683 0-1.216.229-1.6.688s-.576 1.083-.576 1.872V118h-1.296v-4.992c0-.747-.133-1.291-.4-1.632-.267-.352-.693-.528-1.28-.528-.683 0-1.221.229-1.616.688-.384.459-.576 1.083-.576 1.872V118h-1.296v-5.792a18.09 18.09 0 0 0-.128-2.256h1.232l.128 1.408c.224-.512.555-.907.992-1.184.448-.277.965-.416 1.552-.416.64 0 1.163.128 1.568.384s.704.651.896 1.184c.245-.48.603-.859 1.072-1.136a3.08 3.08 0 0 1 1.616-.432zm5.134.192h1.296V118h-1.296v-8.048zm1.456-3.408v1.472h-1.584v-1.472h1.584zm6.373 3.216c1.931 0 2.896 1.061 2.896 3.184V118h-1.296v-4.992c0-.747-.149-1.291-.448-1.632-.299-.352-.768-.528-1.408-.528-.747 0-1.344.229-1.792.688s-.672 1.077-.672 1.856V118h-1.296v-5.792a18.09 18.09 0 0 0-.128-2.256h1.232l.128 1.44c.245-.523.613-.923 1.104-1.2.491-.288 1.051-.432 1.68-.432zm12.511.192v7.984c0 1.195-.309 2.096-.928 2.704-.608.619-1.509.928-2.704.928-1.226 0-2.282-.277-3.168-.832l.224-1.056c.512.288.992.496 1.44.624.459.128.96.192 1.504.192.779 0 1.366-.208 1.76-.624.395-.405.592-1.013.592-1.824v-1.904c-.245.512-.608.912-1.088 1.2-.469.277-1.029.416-1.68.416-.704 0-1.333-.165-1.888-.496-.544-.331-.965-.8-1.264-1.408s-.448-1.307-.448-2.096.15-1.488.448-2.096.72-1.077 1.264-1.408c.555-.331 1.184-.496 1.888-.496.64 0 1.195.139 1.664.416.48.277.843.667 1.088 1.168v-1.392h1.296zm-3.792 6.72c.779 0 1.387-.256 1.824-.768.448-.523.672-1.237.672-2.144s-.224-1.616-.672-2.128c-.437-.523-1.045-.784-1.824-.784-.789 0-1.413.261-1.872.784-.448.512-.672 1.221-.672 2.128s.224 1.621.672 2.144c.459.512 1.083.768 1.872.768zm-228.407 17.28h1.296V142h-1.296v-8.048zm1.456-3.408v1.472h-1.584v-1.472h1.584zm6.373 3.216c1.93 0 2.896 1.061 2.896 3.184V142h-1.296v-4.992c0-.747-.15-1.291-.448-1.632-.299-.352-.768-.528-1.408-.528-.747 0-1.344.229-1.792.688s-.672 1.077-.672 1.856V142h-1.296v-5.792a18.09 18.09 0 0 0-.128-2.256h1.231l.129 1.44c.245-.523.613-.923 1.104-1.2.49-.288 1.05-.432 1.68-.432zm18.443 0c1.781 0 2.672 1.061 2.672 3.184V142h-1.296v-4.992c0-.757-.134-1.307-.4-1.648-.256-.341-.678-.512-1.264-.512-.683 0-1.216.229-1.6.688s-.576 1.083-.576 1.872V142h-1.296v-4.992c0-.747-.134-1.291-.4-1.632-.267-.352-.694-.528-1.28-.528-.683 0-1.222.229-1.616.688-.384.459-.576 1.083-.576 1.872V142h-1.296v-5.792a18.09 18.09 0 0 0-.128-2.256h1.232l.128 1.408c.224-.512.554-.907.992-1.184.448-.277.965-.416 1.552-.416.64 0 1.162.128 1.568.384s.704.651.896 1.184a2.74 2.74 0 0 1 1.072-1.136c.48-.288 1.018-.432 1.616-.432zm12.222.192V142h-1.28v-1.456a2.58 2.58 0 0 1-1.072 1.168c-.469.267-1.018.4-1.648.4-.714 0-1.344-.171-1.888-.512-.533-.341-.949-.821-1.248-1.44-.288-.629-.432-1.36-.432-2.192s.15-1.563.448-2.192c.299-.64.715-1.136 1.248-1.488.544-.352 1.168-.528 1.872-.528.63 0 1.179.139 1.648.416a2.7 2.7 0 0 1 1.072 1.168v-1.392h1.28zm-3.744 7.088c.79 0 1.398-.267 1.824-.8.427-.544.64-1.312.64-2.304s-.213-1.755-.64-2.288-1.034-.8-1.824-.8-1.408.277-1.856.832c-.437.544-.656 1.307-.656 2.288s.219 1.739.656 2.272 1.056.8 1.856.8zm10.266-7.28c1.931 0 2.896 1.061 2.896 3.184V142h-1.296v-4.992c0-.747-.149-1.291-.448-1.632-.299-.352-.768-.528-1.408-.528-.747 0-1.344.229-1.792.688s-.672 1.077-.672 1.856V142h-1.296v-5.792a18.09 18.09 0 0 0-.128-2.256h1.232l.128 1.44c.245-.523.613-.923 1.104-1.2.491-.288 1.051-.432 1.68-.432zm8.719 8.352c-.778 0-1.461-.171-2.048-.512-.576-.341-1.024-.821-1.344-1.44-.309-.629-.464-1.36-.464-2.192s.16-1.563.48-2.192a3.54 3.54 0 0 1 1.36-1.488c.598-.352 1.291-.528 2.08-.528.544 0 1.067.096 1.568.288.512.181.934.437 1.264.768l-.432.96c-.405-.32-.8-.555-1.184-.704a3.08 3.08 0 0 0-1.152-.224c-.821 0-1.466.277-1.936.832-.469.544-.704 1.307-.704 2.288 0 .971.23 1.728.688 2.272.47.533 1.12.8 1.952.8a3.08 3.08 0 0 0 1.152-.224c.384-.149.779-.384 1.184-.704l.432.96c-.341.32-.773.576-1.296.768-.512.181-1.045.272-1.6.272zm8.562-8.352c1.931 0 2.896 1.061 2.896 3.184V142h-1.296v-4.992c0-.747-.149-1.291-.448-1.632-.298-.352-.768-.528-1.408-.528-.746 0-1.344.229-1.792.688s-.672 1.077-.672 1.856V142h-1.296v-11.776h1.296v5.04c.256-.491.619-.864 1.088-1.12.48-.256 1.024-.384 1.632-.384zm12.08 4.176h-5.904c.01 1.024.245 1.797.704 2.32.469.523 1.146.784 2.032.784.938 0 1.802-.315 2.592-.944l.432.944c-.352.331-.806.592-1.36.784a5.01 5.01 0 0 1-1.68.288c-1.259 0-2.246-.368-2.96-1.104-.715-.747-1.072-1.765-1.072-3.056 0-.821.16-1.547.48-2.176a3.57 3.57 0 0 1 1.344-1.488c.576-.352 1.232-.528 1.968-.528 1.066 0 1.904.352 2.512 1.056.608.693.912 1.653.912 2.88v.24zm-3.408-3.168c-.672 0-1.222.203-1.648.608-.416.405-.683.976-.8 1.712h4.688c-.064-.757-.288-1.333-.672-1.728-.374-.395-.896-.592-1.568-.592zm8.095 7.344c-1.355 0-2.427-.347-3.216-1.04l.432-.96a4.46 4.46 0 0 0 1.328.736c.448.149.949.224 1.504.224.608 0 1.066-.101 1.376-.304a1.03 1.03 0 0 0 .48-.912c0-.32-.107-.576-.32-.768s-.566-.341-1.056-.448l-1.36-.32c-.672-.149-1.195-.416-1.568-.8-.363-.384-.544-.843-.544-1.376a2.06 2.06 0 0 1 .848-1.712c.565-.448 1.312-.672 2.24-.672a4.68 4.68 0 0 1 1.6.272c.501.181.922.443 1.264.784l-.432.944c-.758-.629-1.568-.944-2.432-.944-.576 0-1.024.112-1.344.336-.31.213-.464.517-.464.912 0 .331.096.592.288.784.202.192.522.341.96.448l1.36.336c.746.171 1.301.437 1.664.8.362.352.544.816.544 1.392 0 .693-.283 1.248-.848 1.664s-1.334.624-2.304.624zm6.867-7.136v4.4c0 .597.123 1.019.368 1.264.245.235.592.352 1.04.352a2.62 2.62 0 0 0 .864-.144v1.104c-.331.107-.704.16-1.12.16-.768 0-1.371-.213-1.808-.64-.427-.437-.64-1.077-.64-1.92v-4.576h-1.568v-1.024h1.568v-2.064l1.296-.464v2.528h2.304v1.024h-2.304zm10.602 2.96h-5.904c.011 1.024.245 1.797.704 2.32.469.523 1.147.784 2.032.784.939 0 1.803-.315 2.592-.944l.432.944c-.352.331-.805.592-1.36.784a5.01 5.01 0 0 1-1.68.288c-1.259 0-2.245-.368-2.96-1.104-.715-.747-1.072-1.765-1.072-3.056 0-.821.16-1.547.48-2.176a3.57 3.57 0 0 1 1.344-1.488c.576-.352 1.232-.528 1.968-.528 1.067 0 1.904.352 2.512 1.056.608.693.912 1.653.912 2.88v.24zm-3.408-3.168c-.672 0-1.221.203-1.648.608-.416.405-.683.976-.8 1.712h4.688c-.064-.757-.288-1.333-.672-1.728-.373-.395-.896-.592-1.568-.592zm9.119-1.008a2.67 2.67 0 0 1 .736.096l-.032 1.184c-.245-.085-.528-.128-.848-.128-.779 0-1.36.245-1.744.736-.373.48-.56 1.067-.56 1.76V142h-1.296v-5.792a18.09 18.09 0 0 0-.128-2.256h1.232l.128 1.488c.203-.544.528-.96.976-1.248s.96-.432 1.536-.432zm10.241 0c.704 0 1.328.171 1.872.512s.965.827 1.264 1.456c.298.619.448 1.344.448 2.176s-.15 1.568-.448 2.208c-.299.629-.72 1.12-1.264 1.472s-1.168.528-1.872.528c-.63 0-1.179-.139-1.648-.416a2.68 2.68 0 0 1-1.072-1.184V142h-1.296v-11.776h1.296v5.152a2.57 2.57 0 0 1 1.056-1.2c.48-.277 1.034-.416 1.664-.416zm-.24 7.28c.778 0 1.386-.272 1.824-.816.437-.555.656-1.328.656-2.32 0-.971-.219-1.723-.656-2.256-.427-.533-1.035-.8-1.824-.8-.8 0-1.414.267-1.84.8s-.64 1.296-.64 2.288.213 1.76.64 2.304c.426.533 1.04.8 1.84.8zm12.796-7.088l-3.76 8.784c-.395.917-.891 1.589-1.488 2.016s-1.334.72-2.208.88l-.272-1.008c.757-.171 1.328-.4 1.712-.688.394-.277.72-.709.976-1.296l.32-.72-3.408-7.968h1.36l2.72 6.64 2.752-6.64h1.296zm10.88 2.192c.746.203 1.322.555 1.728 1.056.416.491.624 1.083.624 1.776 0 .971-.368 1.739-1.104 2.304-.736.555-1.728.832-2.976.832s-2.24-.277-2.976-.832c-.736-.565-1.104-1.333-1.104-2.304 0-.693.208-1.291.624-1.792.426-.501 1.008-.848 1.744-1.04-.683-.203-1.206-.533-1.568-.992-.363-.469-.544-1.019-.544-1.648 0-.608.16-1.136.48-1.584.32-.459.768-.811 1.344-1.056.586-.256 1.253-.384 2-.384s1.408.128 1.984.384c.586.245 1.04.597 1.36 1.056.32.448.48.976.48 1.584a2.57 2.57 0 0 1-.56 1.648c-.363.459-.875.789-1.536.992zm-4.24-2.544c0 .608.224 1.104.672 1.488.458.373 1.072.603 1.84.688.768-.085 1.376-.315 1.824-.688a1.85 1.85 0 0 0 .688-1.488c0-.629-.224-1.125-.672-1.488-.438-.363-1.051-.544-1.84-.544s-1.408.181-1.856.544c-.438.363-.656.859-.656 1.488zm2.512 7.424c.896 0 1.584-.181 2.064-.544s.72-.891.72-1.584c0-.629-.256-1.131-.768-1.504-.502-.384-1.174-.619-2.016-.704-.843.085-1.52.32-2.032.704-.502.373-.752.875-.752 1.504 0 .693.24 1.221.72 1.584s1.168.544 2.064.544zm10.057-7.264c.704 0 1.328.176 1.872.528s.966.848 1.264 1.488c.299.629.448 1.36.448 2.192s-.149 1.563-.448 2.192a3.39 3.39 0 0 1-1.264 1.44c-.533.341-1.157.512-1.872.512-.629 0-1.178-.139-1.648-.416s-.826-.672-1.072-1.184v4.944h-1.296v-9.248a17.9 17.9 0 0 0-.128-2.256h1.232l.128 1.552c.224-.555.576-.981 1.056-1.28.491-.309 1.067-.464 1.728-.464zm-.24 7.28c.79 0 1.398-.267 1.824-.8.438-.533.656-1.291.656-2.272s-.218-1.744-.656-2.288c-.437-.555-1.045-.832-1.824-.832-.8 0-1.413.267-1.84.8s-.64 1.296-.64 2.288.214 1.76.64 2.304c.427.533 1.04.8 1.84.8zm14.746-7.28c1.781 0 2.672 1.061 2.672 3.184V142h-1.296v-4.992c0-.757-.133-1.307-.4-1.648-.256-.341-.677-.512-1.264-.512-.683 0-1.216.229-1.6.688s-.576 1.083-.576 1.872V142h-1.296v-4.992c0-.747-.133-1.291-.4-1.632-.267-.352-.693-.528-1.28-.528-.683 0-1.221.229-1.616.688-.384.459-.576 1.083-.576 1.872V142h-1.296v-5.792a18.09 18.09 0 0 0-.128-2.256h1.232l.128 1.408c.224-.512.555-.907.992-1.184.448-.277.965-.416 1.552-.416.64 0 1.163.128 1.568.384s.704.651.896 1.184c.245-.48.603-.859 1.072-1.136a3.08 3.08 0 0 1 1.616-.432zm11.035 1.216v4.4c0 .597.122 1.019.368 1.264.245.235.592.352 1.04.352a2.63 2.63 0 0 0 .864-.144v1.104c-.331.107-.704.16-1.12.16-.768 0-1.371-.213-1.808-.64-.427-.437-.64-1.077-.64-1.92v-4.576h-1.568v-1.024h1.568v-2.064l1.296-.464v2.528h2.304v1.024h-2.304zm7.193 7.136c-.757 0-1.424-.171-2-.512s-1.024-.827-1.344-1.456c-.309-.629-.464-1.365-.464-2.208s.155-1.579.464-2.208c.32-.629.768-1.115 1.344-1.456s1.243-.512 2-.512 1.424.171 2 .512a3.38 3.38 0 0 1 1.328 1.456c.32.629.48 1.365.48 2.208s-.16 1.579-.48 2.208a3.38 3.38 0 0 1-1.328 1.456c-.576.341-1.242.512-2 .512zm0-1.072c.8 0 1.414-.261 1.84-.784.427-.533.64-1.307.64-2.32 0-.981-.218-1.739-.656-2.272-.437-.544-1.045-.816-1.824-.816-.789 0-1.402.272-1.84.816-.437.533-.656 1.291-.656 2.272 0 1.013.214 1.787.64 2.32.438.523 1.056.784 1.856.784zm12.917-10.816V142h-1.28v-1.456c-.235.501-.592.891-1.072 1.168-.47.267-1.019.4-1.648.4-.704 0-1.328-.176-1.872-.528-.534-.352-.95-.843-1.248-1.472-.299-.64-.448-1.376-.448-2.208s.144-1.557.432-2.176c.298-.629.72-1.115 1.264-1.456s1.168-.512 1.872-.512c.629 0 1.178.139 1.648.416.469.267.821.645 1.056 1.136v-5.088h1.296zm-3.744 10.816c.789 0 1.397-.267 1.824-.8.426-.544.64-1.312.64-2.304 0-.981-.214-1.739-.64-2.272-.427-.544-1.035-.816-1.824-.816s-1.408.267-1.856.8c-.438.533-.656 1.285-.656 2.256 0 .992.218 1.765.656 2.32.448.544 1.066.816 1.856.816zm13.337-7.088V142h-1.28v-1.456a2.58 2.58 0 0 1-1.072 1.168c-.469.267-1.018.4-1.648.4-.714 0-1.344-.171-1.888-.512-.533-.341-.949-.821-1.248-1.44-.288-.629-.432-1.36-.432-2.192s.15-1.563.448-2.192c.299-.64.715-1.136 1.248-1.488.544-.352 1.168-.528 1.872-.528.63 0 1.179.139 1.648.416a2.7 2.7 0 0 1 1.072 1.168v-1.392h1.28zm-3.744 7.088c.79 0 1.398-.267 1.824-.8.427-.544.64-1.312.64-2.304s-.213-1.755-.64-2.288-1.034-.8-1.824-.8-1.408.277-1.856.832c-.437.544-.656 1.307-.656 2.288s.219 1.739.656 2.272 1.056.8 1.856.8zm13.322-7.088l-3.76 8.784c-.395.917-.891 1.589-1.488 2.016s-1.333.72-2.208.88l-.272-1.008c.757-.171 1.328-.4 1.712-.688.395-.277.72-.709.976-1.296l.32-.72-3.408-7.968h1.36l2.72 6.64 2.752-6.64h1.296zm2.258 6.4v1.168c0 .448-.074.859-.224 1.232s-.4.736-.752 1.088l-.608-.464c.416-.48.651-.939.704-1.376h-.768v-1.648h1.648zm18.675-6.4L348.277 142h-1.248l-2.304-6.288-2.288 6.288h-1.248l-2.976-8.048h1.36l2.272 6.496 2.352-6.496h1.136l2.32 6.512 2.32-6.512h1.28zm1.683 0h1.296V142h-1.296v-8.048zm1.456-3.408v1.472h-1.584v-1.472h1.584zm2.356-.32h1.296V142h-1.296v-11.776zm3.813 0h1.296V142h-1.296v-11.776zM128.32 157.952l-3.76 8.784c-.395.917-.891 1.589-1.488 2.016s-1.333.72-2.208.88l-.272-1.008c.757-.171 1.328-.4 1.712-.688.395-.277.72-.709.976-1.296l.32-.72-3.408-7.968h1.36l2.72 6.64 2.752-6.64h1.296zm4.662 8.16c-.757 0-1.424-.171-2-.512s-1.024-.827-1.344-1.456c-.309-.629-.464-1.365-.464-2.208s.155-1.579.464-2.208c.32-.629.768-1.115 1.344-1.456s1.243-.512 2-.512 1.424.171 2 .512a3.38 3.38 0 0 1 1.328 1.456c.32.629.48 1.365.48 2.208s-.16 1.579-.48 2.208a3.38 3.38 0 0 1-1.328 1.456c-.576.341-1.242.512-2 .512zm0-1.072c.8 0 1.414-.261 1.84-.784.427-.533.64-1.307.64-2.32 0-.981-.218-1.739-.656-2.272-.437-.544-1.045-.816-1.824-.816-.789 0-1.402.272-1.84.816-.437.533-.656 1.291-.656 2.272 0 1.013.214 1.787.64 2.32.438.523 1.056.784 1.856.784zm12.565-7.088V166h-1.264v-1.392c-.256.491-.614.864-1.072 1.12a3.13 3.13 0 0 1-1.552.384c-.95 0-1.67-.267-2.16-.8s-.736-1.323-.736-2.368v-4.992h1.296v4.96c0 .725.149 1.259.448 1.6s.752.512 1.36.512c.714 0 1.29-.229 1.728-.688.437-.469.656-1.083.656-1.84v-4.544h1.296zm10.686-.192c.704 0 1.328.171 1.872.512s.965.827 1.264 1.456c.298.619.448 1.344.448 2.176s-.15 1.568-.448 2.208c-.299.629-.72 1.12-1.264 1.472s-1.168.528-1.872.528c-.63 0-1.179-.139-1.648-.416a2.68 2.68 0 0 1-1.072-1.184V166h-1.296v-11.776h1.296v5.152a2.57 2.57 0 0 1 1.056-1.2c.48-.277 1.034-.416 1.664-.416zm-.24 7.28c.778 0 1.386-.272 1.824-.816.437-.555.656-1.328.656-2.32 0-.971-.219-1.723-.656-2.256-.427-.533-1.035-.8-1.824-.8-.8 0-1.414.267-1.84.8s-.64 1.296-.64 2.288.213 1.76.64 2.304c.426.533 1.04.8 1.84.8zm12.554-3.104h-5.904c.01 1.024.245 1.797.704 2.32.469.523 1.146.784 2.032.784.938 0 1.802-.315 2.592-.944l.432.944c-.352.331-.806.592-1.36.784a5.01 5.01 0 0 1-1.68.288c-1.259 0-2.246-.368-2.96-1.104-.715-.747-1.072-1.765-1.072-3.056 0-.821.16-1.547.48-2.176a3.57 3.57 0 0 1 1.344-1.488c.576-.352 1.232-.528 1.968-.528 1.066 0 1.904.352 2.512 1.056.608.693.912 1.653.912 2.88v.24zm-3.408-3.168c-.672 0-1.222.203-1.648.608-.416.405-.683.976-.8 1.712h4.688c-.064-.757-.288-1.333-.672-1.728-.374-.395-.896-.592-1.568-.592zm12.267 7.344c-1.355 0-2.427-.347-3.216-1.04l.432-.96a4.46 4.46 0 0 0 1.328.736c.448.149.949.224 1.504.224.608 0 1.066-.101 1.376-.304a1.03 1.03 0 0 0 .48-.912c0-.32-.107-.576-.32-.768s-.566-.341-1.056-.448l-1.36-.32c-.672-.149-1.195-.416-1.568-.8-.363-.384-.544-.843-.544-1.376a2.06 2.06 0 0 1 .848-1.712c.565-.448 1.312-.672 2.239-.672a4.68 4.68 0 0 1 1.601.272c.501.181.922.443 1.264.784l-.432.944c-.758-.629-1.568-.944-2.433-.944-.575 0-1.023.112-1.343.336-.31.213-.464.517-.464.912 0 .331.096.592.288.784.202.192.522.341.96.448l1.36.336c.746.171 1.301.437 1.664.8.362.352.544.816.544 1.392 0 .693-.283 1.248-.848 1.664s-1.334.624-2.304.624zm6.867-7.136v4.4c0 .597.123 1.019.368 1.264.245.235.592.352 1.04.352a2.62 2.62 0 0 0 .864-.144v1.104c-.331.107-.704.16-1.12.16-.768 0-1.371-.213-1.808-.64-.427-.437-.64-1.077-.64-1.92v-4.576h-1.568v-1.024h1.568v-2.064l1.296-.464v2.528h2.304v1.024h-2.304zm7.61-1.216c.266 0 .512.032.736.096l-.032 1.184c-.246-.085-.528-.128-.848-.128-.779 0-1.36.245-1.744.736-.374.48-.56 1.067-.56 1.76V166h-1.296v-5.792a18.09 18.09 0 0 0-.128-2.256h1.232l.128 1.488c.202-.544.528-.96.976-1.248s.96-.432 1.536-.432zm8.632 4.176h-5.904c.011 1.024.246 1.797.704 2.32.47.523 1.147.784 2.032.784.939 0 1.803-.315 2.592-.944l.432.944c-.352.331-.805.592-1.36.784a5.01 5.01 0 0 1-1.68.288c-1.258 0-2.245-.368-2.96-1.104-.714-.747-1.072-1.765-1.072-3.056 0-.821.16-1.547.48-2.176a3.57 3.57 0 0 1 1.344-1.488c.576-.352 1.232-.528 1.968-.528 1.067 0 1.904.352 2.512 1.056.608.693.912 1.653.912 2.88v.24zm-3.408-3.168c-.672 0-1.221.203-1.648.608-.416.405-.682.976-.8 1.712h4.688c-.064-.757-.288-1.333-.672-1.728-.373-.395-.896-.592-1.568-.592zm12.463-.816V166h-1.28v-1.456a2.58 2.58 0 0 1-1.072 1.168c-.469.267-1.018.4-1.648.4-.714 0-1.344-.171-1.888-.512-.533-.341-.949-.821-1.248-1.44-.288-.629-.432-1.36-.432-2.192s.15-1.563.448-2.192c.299-.64.715-1.136 1.248-1.488.544-.352 1.168-.528 1.872-.528.63 0 1.179.139 1.648.416a2.7 2.7 0 0 1 1.072 1.168v-1.392h1.28zm-3.744 7.088c.79 0 1.398-.267 1.824-.8.427-.544.64-1.312.64-2.304s-.213-1.755-.64-2.288-1.034-.8-1.824-.8-1.408.277-1.856.832c-.437.544-.656 1.307-.656 2.288s.219 1.739.656 2.272 1.056.8 1.856.8zm15.178-7.28c1.781 0 2.672 1.061 2.672 3.184V166h-1.296v-4.992c0-.757-.133-1.307-.4-1.648-.256-.341-.677-.512-1.264-.512-.683 0-1.216.229-1.6.688s-.576 1.083-.576 1.872V166h-1.296v-4.992c0-.747-.133-1.291-.4-1.632-.267-.352-.693-.528-1.28-.528-.683 0-1.221.229-1.616.688-.384.459-.576 1.083-.576 1.872V166h-1.296v-5.792a18.09 18.09 0 0 0-.128-2.256h1.232l.128 1.408c.224-.512.555-.907.992-1.184.448-.277.965-.416 1.552-.416.64 0 1.163.128 1.568.384s.704.651.896 1.184c.245-.48.603-.859 1.072-1.136a3.08 3.08 0 0 1 1.616-.432zm5.135.192h1.296V166h-1.296v-8.048zm1.456-3.408v1.472h-1.584v-1.472h1.584zm6.372 3.216c1.931 0 2.896 1.061 2.896 3.184V166h-1.296v-4.992c0-.747-.149-1.291-.448-1.632-.299-.352-.768-.528-1.408-.528-.747 0-1.344.229-1.792.688s-.672 1.077-.672 1.856V166h-1.296v-5.792a18.09 18.09 0 0 0-.128-2.256h1.232l.128 1.44c.245-.523.613-.923 1.104-1.2.491-.288 1.051-.432 1.68-.432zm12.512.192v7.984c0 1.195-.31 2.096-.928 2.704-.608.619-1.51.928-2.704.928-1.227 0-2.283-.277-3.168-.832l.224-1.056c.512.288.992.496 1.44.624.458.128.96.192 1.504.192.778 0 1.365-.208 1.76-.624.394-.405.592-1.013.592-1.824v-1.904a2.76 2.76 0 0 1-1.088 1.2c-.47.277-1.03.416-1.68.416-.704 0-1.334-.165-1.888-.496a3.31 3.31 0 0 1-1.264-1.408c-.299-.608-.448-1.307-.448-2.096s.149-1.488.448-2.096a3.31 3.31 0 0 1 1.264-1.408c.554-.331 1.184-.496 1.888-.496.64 0 1.194.139 1.664.416.48.277.842.667 1.088 1.168v-1.392h1.296zm-3.792 6.72c.778 0 1.386-.256 1.824-.768.448-.523.672-1.237.672-2.144s-.224-1.616-.672-2.128c-.438-.523-1.046-.784-1.824-.784-.79 0-1.414.261-1.872.784-.448.512-.672 1.221-.672 2.128s.224 1.621.672 2.144c.458.512 1.082.768 1.872.768zm12.18-5.696v4.4c0 .597.122 1.019.368 1.264.245.235.592.352 1.04.352a2.63 2.63 0 0 0 .864-.144v1.104c-.331.107-.704.16-1.12.16-.768 0-1.371-.213-1.808-.64-.427-.437-.64-1.077-.64-1.92v-4.576h-1.568v-1.024h1.568v-2.064l1.296-.464v2.528h2.304v1.024h-2.304zm7.881-1.216c1.931 0 2.896 1.061 2.896 3.184V166h-1.296v-4.992c0-.747-.149-1.291-.448-1.632-.298-.352-.768-.528-1.408-.528-.746 0-1.344.229-1.792.688s-.672 1.077-.672 1.856V166h-1.296v-11.776h1.296v5.04c.256-.491.619-.864 1.088-1.12.48-.256 1.024-.384 1.632-.384zm12.08 4.176h-5.904c.01 1.024.245 1.797.704 2.32.469.523 1.146.784 2.032.784.938 0 1.802-.315 2.592-.944l.432.944c-.352.331-.806.592-1.36.784a5.01 5.01 0 0 1-1.68.288c-1.259 0-2.246-.368-2.96-1.104-.715-.747-1.072-1.765-1.072-3.056 0-.821.16-1.547.48-2.176a3.57 3.57 0 0 1 1.344-1.488c.576-.352 1.232-.528 1.968-.528 1.066 0 1.904.352 2.512 1.056.608.693.912 1.653.912 2.88v.24zm-3.408-3.168c-.672 0-1.222.203-1.648.608-.416.405-.683.976-.8 1.712h4.688c-.064-.757-.288-1.333-.672-1.728-.374-.395-.896-.592-1.568-.592zm16.283 3.168h-5.904c.01 1.024.245 1.797.704 2.32.469.523 1.146.784 2.032.784.938 0 1.802-.315 2.592-.944l.432.944c-.352.331-.806.592-1.36.784a5.01 5.01 0 0 1-1.68.288c-1.259 0-2.246-.368-2.96-1.104-.715-.747-1.072-1.765-1.072-3.056 0-.821.16-1.547.48-2.176a3.57 3.57 0 0 1 1.344-1.488c.576-.352 1.232-.528 1.968-.528 1.066 0 1.904.352 2.512 1.056.608.693.912 1.653.912 2.88v.24zm-3.408-3.168c-.672 0-1.222.203-1.648.608-.416.405-.683.976-.8 1.712h4.688c-.064-.757-.288-1.333-.672-1.728-.374-.395-.896-.592-1.568-.592zm12.353-.8L293.176 166h-1.232l-3.424-8.032h1.36l2.72 6.624 2.752-6.624h1.296zm8.07 3.968h-5.904c.011 1.024.246 1.797.704 2.32.47.523 1.147.784 2.032.784.939 0 1.803-.315 2.592-.944l.432.944c-.352.331-.805.592-1.36.784a5.01 5.01 0 0 1-1.68.288c-1.258 0-2.245-.368-2.96-1.104-.714-.747-1.072-1.765-1.072-3.056 0-.821.16-1.547.48-2.176a3.57 3.57 0 0 1 1.344-1.488c.576-.352 1.232-.528 1.968-.528 1.067 0 1.904.352 2.512 1.056.608.693.912 1.653.912 2.88v.24zm-3.408-3.168c-.672 0-1.221.203-1.648.608-.416.405-.682.976-.8 1.712h4.688c-.064-.757-.288-1.333-.672-1.728-.373-.395-.896-.592-1.568-.592zm9.392-1.008c1.93 0 2.896 1.061 2.896 3.184V166h-1.296v-4.992c0-.747-.15-1.291-.448-1.632-.299-.352-.768-.528-1.408-.528-.747 0-1.344.229-1.792.688s-.672 1.077-.672 1.856V166h-1.296v-5.792a18.09 18.09 0 0 0-.128-2.256h1.231l.129 1.44c.245-.523.613-.923 1.104-1.2.49-.288 1.05-.432 1.68-.432zm7.071 1.216v4.4c0 .597.123 1.019.368 1.264.245.235.592.352 1.04.352a2.62 2.62 0 0 0 .864-.144v1.104c-.331.107-.704.16-1.12.16-.768 0-1.371-.213-1.808-.64-.427-.437-.64-1.077-.64-1.92v-4.576h-1.568v-1.024h1.568v-2.064l1.296-.464v2.528h2.304v1.024h-2.304zm4.073-3.904c.341-.192.709-.336 1.104-.432.394-.107.784-.16 1.168-.16.917 0 1.658.235 2.224.704.576.459.864 1.067.864 1.824 0 .395-.07.757-.208 1.088a3.99 3.99 0 0 1-.48.896l-.784.96c-.459.512-.816.971-1.073 1.376-.245.405-.394.875-.447 1.408l-.048.288h-.768v-.4c0-.672.117-1.237.352-1.696.234-.469.581-.992 1.04-1.568.362-.459.629-.848.8-1.168.181-.331.272-.699.272-1.104 0-.459-.16-.821-.48-1.088s-.763-.4-1.328-.4c-.747 0-1.483.224-2.208.672v-1.2zm1.12 9.28h1.648V166h-1.648v-1.648z" fill="#646464"/><path d="M142.321 65c-1.478 0-2.678 1.239-2.678 2.765s1.2 2.765 2.678 2.765S145 69.291 145 67.765 143.8 65 142.321 65z" fill="#f60c0c"/><path fill-rule="evenodd" d="M138.438 76.547l-3.747 4.991a.95.95 0 0 1-1.232.281l-.117-.079-3.695-2.866-3.255 4.324c-.181.253-.465.415-.765.402-.22 0-.415-.08-.596-.201-.389-.296-.493-.845-.272-1.272l.079-.121 3.836-5.154a1 1 0 0 1 .649-.4 1 1 0 0 1 .739.214l3.593 2.918 3.136-4.189c.209-.294.558-.455.909-.415a.96.96 0 0 1 .79.589 1.03 1.03 0 0 1-.104 1.004l.052-.027zm-1.076-8.7c0-.335.026-.669.077-1.004h-10.436c-4.41 0-7.003 2.704-7.003 7.254v9.903c0 4.539 2.593 7.229 7.003 7.229h9.581c4.408 0 7.001-2.69 7.001-7.229v-10.8a5.81 5.81 0 0 1-.959.092c-2.905 0-5.264-2.435-5.264-5.446z" fill="#200e32"/><path d="M352 160a10 10 0 1 1-20 0 10 10 0 1 1 20 0z" fill="#ffcc4d"/><path d="M342 161.667c-2.013 0-3.348-.235-5-.556-.377-.073-1.111 0-1.111 1.111 0 2.222 2.553 5 6.111 5s6.111-2.778 6.111-5c0-1.111-.734-1.184-1.111-1.111-1.652.321-2.987.556-5 .556z" fill="#664500"/><path d="M337 162.222s1.667.556 5 .556 5-.556 5-.556-1.111 2.222-5 2.222-5-2.222-5-2.222z" fill="#fff"/><path d="M340.712 152.452l-2.523.445-1.3-2.363c-.143-.261-.438-.4-.729-.349s-.521.284-.566.577l-.414 2.665-2.523.445c-.298.052-.527.292-.568.591s.118.591.391.721l2.261 1.073-.415 2.674c-.047.297.105.591.373.727a.7.7 0 0 0 .313.074c.181 0 .361-.071.495-.207l1.951-1.978 2.51 1.191c.272.129.596.069.803-.151s.248-.546.103-.81l-1.305-2.371 1.759-1.783c.212-.215.26-.542.12-.81s-.44-.413-.736-.361zm2.576 0l2.523.445 1.3-2.363c.143-.261.438-.4.729-.349s.52.284.566.577l.413 2.665 2.524.445a.69.69 0 0 1 .567.591c.04.299-.117.59-.391.72l-2.261 1.074.416 2.673c.046.298-.105.591-.374.727a.69.69 0 0 1-.312.074c-.182 0-.361-.071-.495-.207l-1.951-1.978-2.51 1.192c-.273.129-.597.068-.804-.151s-.247-.547-.102-.811l1.304-2.37-1.758-1.783c-.213-.215-.261-.542-.121-.81a.7.7 0 0 1 .737-.361z" fill="#e95f28"/><defs><filter id="A" x="0" y="0" width="504" height="330" filterUnits="userSpaceOnUse" color-interpolation-filters="sRGB"><feFlood flood-opacity="0" result="A"/><feColorMatrix in="SourceAlpha" values="0 0 0 0 0 0 0 0 0 0 0 0 0 0 0 0 0 0 127 0"/><feOffset dy="44"/><feGaussianBlur stdDeviation="50"/><feColorMatrix values="0 0 0 0 0.389063 0 0 0 0 0.360937 0 0 0 0 0.360937 0 0 0 0.25 0"/><feBlend in2="A"/><feBlend in="SourceGraphic"/></filter></defs></svg>