<svg xmlns="http://www.w3.org/2000/svg" width="25" height="27" fill="none"  xmlns:v="https://vecta.io/nano"><path d="M22.321 0c-1.478 0-2.678 1.239-2.678 2.765s1.2 2.765 2.678 2.765S25 4.291 25 2.765 23.8 0 22.321 0z" fill="#f60c0c"/><path fill-rule="evenodd" d="M18.438 11.547l-3.747 4.991a.95.95 0 0 1-1.232.281l-.117-.079-3.695-2.865-3.254 4.324c-.182.253-.465.415-.765.402-.22 0-.415-.08-.596-.201-.389-.296-.493-.845-.272-1.271l.079-.12 3.837-5.154a1 1 0 0 1 .648-.4 1 1 0 0 1 .739.214l3.593 2.918 3.136-4.189c.209-.294.558-.455.909-.415.336.027.648.254.79.589a1.03 1.03 0 0 1-.104 1.004l.052-.027zm-1.076-8.7a6.54 6.54 0 0 1 .078-1.004H7.003C2.593 1.843 0 4.547 0 9.098v9.903c0 4.539 2.593 7.229 7.003 7.229h9.581c4.409 0 7.002-2.69 7.002-7.229v-10.8c-.324.054-.635.092-.959.092-2.904 0-5.264-2.435-5.264-5.446z" fill="#200e32"/></svg>