<svg xmlns="http://www.w3.org/2000/svg" width="80" height="80" fill="none"  xmlns:v="https://vecta.io/nano"><g fill="#ffc107"><circle cx="40" cy="40" r="40" fill-opacity=".1"/><path d="M53.296 37.783c-.462-.34-1.044-.766-1.114-1.043a3.49 3.49 0 0 1 .449-1.53c.407-.934.827-1.902.36-2.707s-1.529-.935-2.55-1.043c-.529-.004-1.051-.128-1.525-.364-.236-.476-.36-.999-.363-1.53-.115-1.021-.234-2.078-1.044-2.55s-1.779-.059-2.713.354c-.469.265-.993.419-1.531.449-.282-.076-.706-.652-1.044-1.114C41.63 25.905 40.963 25 40.001 25s-1.629.905-2.218 1.703c-.342.463-.766 1.044-1.044 1.115-.538-.032-1.061-.186-1.531-.449-.939-.414-1.907-.826-2.709-.361s-.937 1.529-1.051 2.557a3.49 3.49 0 0 1-.363 1.525c-.473.233-.993.355-1.52.357-1.023.115-2.081.233-2.551 1.044s-.057 1.778.355 2.713a3.49 3.49 0 0 1 .449 1.535c-.076.282-.652.707-1.114 1.043-.798.587-1.703 1.255-1.703 2.218s.905 1.631 1.705 2.218c.462.34 1.044.766 1.114 1.044a3.49 3.49 0 0 1-.449 1.53c-.407.934-.827 1.902-.36 2.707s1.529.935 2.55 1.044c.529.004 1.051.128 1.525.364.236.476.36.999.363 1.53.115 1.021.233 2.078 1.043 2.55s1.771.047 2.707-.36a3.58 3.58 0 0 1 1.542-.444c.282.076.706.652 1.044 1.114.588.798 1.255 1.703 2.218 1.703s1.629-.905 2.218-1.703c.342-.463.766-1.044 1.043-1.115a3.52 3.52 0 0 1 1.531.449c.934.407 1.902.824 2.705.361s.937-1.529 1.051-2.551a3.49 3.49 0 0 1 .363-1.525c.474-.234.995-.358 1.523-.361 1.023-.115 2.081-.233 2.551-1.044s.046-1.771-.36-2.707a3.49 3.49 0 0 1-.444-1.542c.076-.282.652-.707 1.114-1.043.798-.588 1.705-1.256 1.705-2.218s-.907-1.631-1.706-2.218z"/></g><g fill="#fafafa"><path d="M36.087 43.262a.65.65 0 0 1-.522-.261l-2.739-3.652v3.261a.652.652 0 1 1-1.304 0v-5.217a.65.65 0 0 1 1.174-.391l2.739 3.652v-3.261a.652.652 0 1 1 1.304 0v5.217a.65.65 0 0 1-.446.618.64.64 0 0 1-.206.034zm5.218 0h-2.609a.65.65 0 0 1-.652-.652v-5.217a.65.65 0 0 1 .652-.652h2.609a.652.652 0 1 1 0 1.304h-1.957v3.913h1.957a.652.652 0 1 1 0 1.304z"/><path d="M41.305 40.653h-2.609a.652.652 0 1 1 0-1.304h2.609a.652.652 0 1 1 0 1.304zm6.522 2.609a.65.65 0 0 1-.62-.446l-.685-2.057-.685 2.057c-.083.281-.352.467-.644.445a.65.65 0 0 1-.608-.493l-1.304-5.218c-.087-.35.126-.704.475-.791s.704.126.791.476l.76 3.044.596-1.788a.68.68 0 0 1 1.238 0l.596 1.788.76-3.044c.087-.35.441-.563.791-.476a.65.65 0 0 1 .475.791l-1.304 5.218a.65.65 0 0 1-.608.493l-.026.001z"/></g></svg>